G75*
%MOIN*%
%OFA0B0*%
%FSLAX25Y25*%
%IPPOS*%
%LPD*%
%AMOC8*
5,1,8,0,0,1.08239X$1,22.5*
%
%ADD10C,0.05200*%
%ADD11OC8,0.05200*%
%ADD12OC8,0.07050*%
%ADD13C,0.05600*%
%ADD14C,0.01600*%
D10*
X0041800Y0014200D02*
X0041800Y0019400D01*
X0051800Y0019400D02*
X0051800Y0014200D01*
X0061800Y0014200D02*
X0061800Y0019400D01*
X0071800Y0019400D02*
X0071800Y0014200D01*
X0081800Y0014200D02*
X0081800Y0019400D01*
X0091800Y0019400D02*
X0091800Y0014200D01*
X0086800Y0039200D02*
X0086800Y0044400D01*
X0076800Y0044400D02*
X0076800Y0039200D01*
X0066800Y0039200D02*
X0066800Y0044400D01*
X0056800Y0044400D02*
X0056800Y0039200D01*
X0046800Y0039200D02*
X0046800Y0044400D01*
X0036800Y0044400D02*
X0036800Y0039200D01*
X0036800Y0069200D02*
X0036800Y0074400D01*
X0046800Y0074400D02*
X0046800Y0069200D01*
X0056800Y0069200D02*
X0056800Y0074400D01*
X0066800Y0074400D02*
X0066800Y0069200D01*
X0076800Y0069200D02*
X0076800Y0074400D01*
X0086800Y0074400D02*
X0086800Y0069200D01*
X0096800Y0069200D02*
X0096800Y0074400D01*
X0096800Y0044400D02*
X0096800Y0039200D01*
X0166800Y0039200D02*
X0166800Y0044400D01*
X0176800Y0044400D02*
X0176800Y0039200D01*
X0186800Y0039200D02*
X0186800Y0044400D01*
X0196800Y0044400D02*
X0196800Y0039200D01*
X0206800Y0039200D02*
X0206800Y0044400D01*
X0216800Y0044400D02*
X0216800Y0039200D01*
X0226800Y0039200D02*
X0226800Y0044400D01*
X0226800Y0069200D02*
X0226800Y0074400D01*
X0216800Y0074400D02*
X0216800Y0069200D01*
X0206800Y0069200D02*
X0206800Y0074400D01*
X0196800Y0074400D02*
X0196800Y0069200D01*
X0186800Y0069200D02*
X0186800Y0074400D01*
X0176800Y0074400D02*
X0176800Y0069200D01*
X0166800Y0069200D02*
X0166800Y0074400D01*
X0171800Y0019400D02*
X0171800Y0014200D01*
X0181800Y0014200D02*
X0181800Y0019400D01*
X0191800Y0019400D02*
X0191800Y0014200D01*
X0201800Y0014200D02*
X0201800Y0019400D01*
X0211800Y0019400D02*
X0211800Y0014200D01*
X0221800Y0014200D02*
X0221800Y0019400D01*
D11*
X0221800Y0091800D03*
X0231800Y0091800D03*
X0211800Y0091800D03*
X0201800Y0091800D03*
X0191800Y0091800D03*
X0181800Y0091800D03*
X0171800Y0091800D03*
X0161800Y0091800D03*
X0161800Y0131800D03*
X0171800Y0131800D03*
X0181800Y0131800D03*
X0191800Y0131800D03*
X0201800Y0131800D03*
X0211800Y0131800D03*
X0221800Y0131800D03*
X0231800Y0131800D03*
X0101800Y0131800D03*
X0091800Y0131800D03*
X0081800Y0131800D03*
X0071800Y0131800D03*
X0061800Y0131800D03*
X0051800Y0131800D03*
X0041800Y0131800D03*
X0031800Y0131800D03*
X0031800Y0091800D03*
X0041800Y0091800D03*
X0051800Y0091800D03*
X0061800Y0091800D03*
X0071800Y0091800D03*
X0081800Y0091800D03*
X0091800Y0091800D03*
X0101800Y0091800D03*
D12*
X0088600Y0153795D03*
X0077700Y0153795D03*
X0066800Y0153795D03*
X0055900Y0153795D03*
X0045000Y0153795D03*
X0050450Y0164990D03*
X0061350Y0164990D03*
X0072250Y0164990D03*
X0083150Y0164990D03*
X0175000Y0153795D03*
X0185900Y0153795D03*
X0196800Y0153795D03*
X0207700Y0153795D03*
X0218600Y0153795D03*
X0213150Y0164990D03*
X0202250Y0164990D03*
X0191350Y0164990D03*
X0180450Y0164990D03*
D13*
X0119600Y0136800D02*
X0114000Y0136800D01*
X0114000Y0126800D02*
X0119600Y0126800D01*
X0244000Y0126800D02*
X0249600Y0126800D01*
X0249600Y0136800D02*
X0244000Y0136800D01*
D14*
X0008560Y0008054D02*
X0007392Y0009471D01*
X0006719Y0011180D01*
X0006600Y0012029D01*
X0006600Y0191559D01*
X0006721Y0192395D01*
X0007396Y0194090D01*
X0008562Y0195494D01*
X0010105Y0196469D01*
X0011873Y0196919D01*
X0012141Y0196922D01*
X0012144Y0196921D01*
X0012944Y0196921D01*
X0013741Y0196869D01*
X0013893Y0196921D01*
X0251800Y0196921D01*
X0252479Y0196877D01*
X0253790Y0196525D01*
X0254966Y0195847D01*
X0255925Y0194887D01*
X0256604Y0193711D01*
X0256956Y0192400D01*
X0257000Y0191721D01*
X0257000Y0011800D01*
X0256956Y0011121D01*
X0256604Y0009810D01*
X0255925Y0008634D01*
X0254966Y0007675D01*
X0253790Y0006996D01*
X0252479Y0006644D01*
X0251800Y0006600D01*
X0013903Y0006600D01*
X0013760Y0006649D01*
X0012953Y0006600D01*
X0012302Y0006600D01*
X0011886Y0006607D01*
X0010108Y0007067D01*
X0008560Y0008054D01*
X0008445Y0008194D02*
X0255485Y0008194D01*
X0256594Y0009793D02*
X0225595Y0009793D01*
X0225085Y0009283D02*
X0226717Y0010915D01*
X0227498Y0012800D01*
X0232596Y0012800D01*
X0234066Y0013409D01*
X0239066Y0018409D01*
X0240191Y0019534D01*
X0240800Y0021004D01*
X0240800Y0121631D01*
X0242807Y0120800D01*
X0250793Y0120800D01*
X0252999Y0121713D01*
X0254687Y0123401D01*
X0255600Y0125607D01*
X0255600Y0127993D01*
X0254687Y0130199D01*
X0253085Y0131800D01*
X0254687Y0133401D01*
X0255600Y0135607D01*
X0255600Y0137993D01*
X0254687Y0140199D01*
X0252999Y0141887D01*
X0250793Y0142800D01*
X0242807Y0142800D01*
X0240800Y0141969D01*
X0240800Y0149811D01*
X0241631Y0149331D01*
X0244378Y0148595D01*
X0247222Y0148595D01*
X0249969Y0149331D01*
X0252431Y0150753D01*
X0254442Y0152764D01*
X0255864Y0155226D01*
X0256600Y0157973D01*
X0256600Y0160817D01*
X0255864Y0163564D01*
X0254442Y0166026D01*
X0252431Y0168037D01*
X0249969Y0169459D01*
X0247222Y0170195D01*
X0244378Y0170195D01*
X0241631Y0169459D01*
X0239169Y0168037D01*
X0237158Y0166026D01*
X0235736Y0163564D01*
X0235000Y0160817D01*
X0235000Y0159257D01*
X0225191Y0169066D01*
X0224066Y0170191D01*
X0222596Y0170800D01*
X0216851Y0170800D01*
X0215936Y0171715D01*
X0210364Y0171715D01*
X0207700Y0169051D01*
X0205036Y0171715D01*
X0199464Y0171715D01*
X0195810Y0168061D01*
X0193556Y0170315D01*
X0191725Y0170315D01*
X0191725Y0165365D01*
X0190975Y0165365D01*
X0190975Y0170315D01*
X0189144Y0170315D01*
X0186890Y0168061D01*
X0183236Y0171715D01*
X0177664Y0171715D01*
X0176749Y0170800D01*
X0171004Y0170800D01*
X0169534Y0170191D01*
X0168409Y0169066D01*
X0158600Y0159257D01*
X0158600Y0160817D01*
X0157864Y0163564D01*
X0156442Y0166026D01*
X0154431Y0168037D01*
X0151969Y0169459D01*
X0149222Y0170195D01*
X0146378Y0170195D01*
X0143631Y0169459D01*
X0141169Y0168037D01*
X0139158Y0166026D01*
X0137736Y0163564D01*
X0137000Y0160817D01*
X0137000Y0157973D01*
X0137736Y0155226D01*
X0139158Y0152764D01*
X0141169Y0150753D01*
X0143631Y0149331D01*
X0146378Y0148595D01*
X0148214Y0148595D01*
X0147800Y0147596D01*
X0147800Y0021004D01*
X0148409Y0019534D01*
X0149534Y0018409D01*
X0154534Y0013409D01*
X0156004Y0012800D01*
X0166102Y0012800D01*
X0166883Y0010915D01*
X0168515Y0009283D01*
X0170646Y0008400D01*
X0172954Y0008400D01*
X0175085Y0009283D01*
X0176717Y0010915D01*
X0177571Y0012977D01*
X0177722Y0012511D01*
X0178037Y0011894D01*
X0178444Y0011334D01*
X0178934Y0010844D01*
X0179494Y0010437D01*
X0180111Y0010122D01*
X0180770Y0009908D01*
X0181454Y0009800D01*
X0181800Y0009800D01*
X0182146Y0009800D01*
X0182830Y0009908D01*
X0183489Y0010122D01*
X0184106Y0010437D01*
X0184666Y0010844D01*
X0185156Y0011334D01*
X0185563Y0011894D01*
X0185878Y0012511D01*
X0186029Y0012977D01*
X0186883Y0010915D01*
X0188515Y0009283D01*
X0190646Y0008400D01*
X0192954Y0008400D01*
X0195085Y0009283D01*
X0196717Y0010915D01*
X0196800Y0011115D01*
X0196883Y0010915D01*
X0198515Y0009283D01*
X0200646Y0008400D01*
X0202954Y0008400D01*
X0205085Y0009283D01*
X0206717Y0010915D01*
X0206800Y0011115D01*
X0206883Y0010915D01*
X0208515Y0009283D01*
X0210646Y0008400D01*
X0212954Y0008400D01*
X0215085Y0009283D01*
X0216717Y0010915D01*
X0216800Y0011115D01*
X0216883Y0010915D01*
X0218515Y0009283D01*
X0220646Y0008400D01*
X0222954Y0008400D01*
X0225085Y0009283D01*
X0226914Y0011391D02*
X0256973Y0011391D01*
X0257000Y0012990D02*
X0233053Y0012990D01*
X0235245Y0014588D02*
X0257000Y0014588D01*
X0257000Y0016187D02*
X0236843Y0016187D01*
X0238442Y0017785D02*
X0257000Y0017785D01*
X0257000Y0019384D02*
X0240040Y0019384D01*
X0240791Y0020982D02*
X0257000Y0020982D01*
X0257000Y0022581D02*
X0240800Y0022581D01*
X0240800Y0024179D02*
X0257000Y0024179D01*
X0257000Y0025778D02*
X0240800Y0025778D01*
X0240800Y0027376D02*
X0257000Y0027376D01*
X0257000Y0028975D02*
X0240800Y0028975D01*
X0240800Y0030573D02*
X0257000Y0030573D01*
X0257000Y0032172D02*
X0240800Y0032172D01*
X0240800Y0033770D02*
X0257000Y0033770D01*
X0257000Y0035369D02*
X0240800Y0035369D01*
X0240800Y0036967D02*
X0257000Y0036967D01*
X0257000Y0038566D02*
X0240800Y0038566D01*
X0240800Y0040164D02*
X0257000Y0040164D01*
X0257000Y0041763D02*
X0240800Y0041763D01*
X0240800Y0043361D02*
X0257000Y0043361D01*
X0257000Y0044960D02*
X0240800Y0044960D01*
X0240800Y0046558D02*
X0257000Y0046558D01*
X0257000Y0048157D02*
X0240800Y0048157D01*
X0240800Y0049755D02*
X0257000Y0049755D01*
X0257000Y0051354D02*
X0240800Y0051354D01*
X0240800Y0052952D02*
X0257000Y0052952D01*
X0257000Y0054551D02*
X0240800Y0054551D01*
X0240800Y0056149D02*
X0257000Y0056149D01*
X0257000Y0057748D02*
X0240800Y0057748D01*
X0240800Y0059346D02*
X0257000Y0059346D01*
X0257000Y0060945D02*
X0240800Y0060945D01*
X0240800Y0062543D02*
X0257000Y0062543D01*
X0257000Y0064142D02*
X0240800Y0064142D01*
X0240800Y0065740D02*
X0257000Y0065740D01*
X0257000Y0067339D02*
X0240800Y0067339D01*
X0240800Y0068937D02*
X0257000Y0068937D01*
X0257000Y0070536D02*
X0240800Y0070536D01*
X0240800Y0072134D02*
X0257000Y0072134D01*
X0257000Y0073733D02*
X0240800Y0073733D01*
X0240800Y0075332D02*
X0257000Y0075332D01*
X0257000Y0076930D02*
X0240800Y0076930D01*
X0240800Y0078529D02*
X0257000Y0078529D01*
X0257000Y0080127D02*
X0240800Y0080127D01*
X0240800Y0081726D02*
X0257000Y0081726D01*
X0257000Y0083324D02*
X0240800Y0083324D01*
X0240800Y0084923D02*
X0257000Y0084923D01*
X0257000Y0086521D02*
X0240800Y0086521D01*
X0240800Y0088120D02*
X0257000Y0088120D01*
X0257000Y0089718D02*
X0240800Y0089718D01*
X0240800Y0091317D02*
X0257000Y0091317D01*
X0257000Y0092915D02*
X0240800Y0092915D01*
X0240800Y0094514D02*
X0257000Y0094514D01*
X0257000Y0096112D02*
X0240800Y0096112D01*
X0240800Y0097711D02*
X0257000Y0097711D01*
X0257000Y0099309D02*
X0240800Y0099309D01*
X0240800Y0100908D02*
X0257000Y0100908D01*
X0257000Y0102506D02*
X0240800Y0102506D01*
X0240800Y0104105D02*
X0257000Y0104105D01*
X0257000Y0105703D02*
X0240800Y0105703D01*
X0240800Y0107302D02*
X0257000Y0107302D01*
X0257000Y0108900D02*
X0240800Y0108900D01*
X0240800Y0110499D02*
X0257000Y0110499D01*
X0257000Y0112097D02*
X0240800Y0112097D01*
X0240800Y0113696D02*
X0257000Y0113696D01*
X0257000Y0115294D02*
X0240800Y0115294D01*
X0240800Y0116893D02*
X0257000Y0116893D01*
X0257000Y0118491D02*
X0240800Y0118491D01*
X0240800Y0120090D02*
X0257000Y0120090D01*
X0257000Y0121688D02*
X0252938Y0121688D01*
X0254572Y0123287D02*
X0257000Y0123287D01*
X0257000Y0124885D02*
X0255301Y0124885D01*
X0255600Y0126484D02*
X0257000Y0126484D01*
X0257000Y0128082D02*
X0255563Y0128082D01*
X0254901Y0129681D02*
X0257000Y0129681D01*
X0257000Y0131279D02*
X0253606Y0131279D01*
X0254163Y0132878D02*
X0257000Y0132878D01*
X0257000Y0134476D02*
X0255132Y0134476D01*
X0255600Y0136075D02*
X0257000Y0136075D01*
X0257000Y0137673D02*
X0255600Y0137673D01*
X0255070Y0139272D02*
X0257000Y0139272D01*
X0257000Y0140870D02*
X0254015Y0140870D01*
X0251593Y0142469D02*
X0257000Y0142469D01*
X0257000Y0144068D02*
X0240800Y0144068D01*
X0240800Y0145666D02*
X0257000Y0145666D01*
X0257000Y0147265D02*
X0240800Y0147265D01*
X0240800Y0148863D02*
X0243377Y0148863D01*
X0248223Y0148863D02*
X0257000Y0148863D01*
X0257000Y0150462D02*
X0251927Y0150462D01*
X0253739Y0152060D02*
X0257000Y0152060D01*
X0257000Y0153659D02*
X0254959Y0153659D01*
X0255872Y0155257D02*
X0257000Y0155257D01*
X0257000Y0156856D02*
X0256301Y0156856D01*
X0256600Y0158454D02*
X0257000Y0158454D01*
X0257000Y0160053D02*
X0256600Y0160053D01*
X0256376Y0161651D02*
X0257000Y0161651D01*
X0257000Y0163250D02*
X0255948Y0163250D01*
X0255122Y0164848D02*
X0257000Y0164848D01*
X0257000Y0166447D02*
X0254022Y0166447D01*
X0252417Y0168045D02*
X0257000Y0168045D01*
X0257000Y0169644D02*
X0249279Y0169644D01*
X0242321Y0169644D02*
X0224613Y0169644D01*
X0226212Y0168045D02*
X0239183Y0168045D01*
X0237578Y0166447D02*
X0227810Y0166447D01*
X0229409Y0164848D02*
X0236478Y0164848D01*
X0235652Y0163250D02*
X0231007Y0163250D01*
X0232606Y0161651D02*
X0235224Y0161651D01*
X0235000Y0160053D02*
X0234204Y0160053D01*
X0227686Y0155257D02*
X0225325Y0155257D01*
X0225325Y0156580D02*
X0221386Y0160520D01*
X0218190Y0160520D01*
X0219875Y0162205D01*
X0219875Y0162800D01*
X0220143Y0162800D01*
X0232800Y0150143D01*
X0232800Y0137600D01*
X0229398Y0137600D01*
X0226800Y0135002D01*
X0224202Y0137600D01*
X0220800Y0137600D01*
X0220800Y0147070D01*
X0221386Y0147070D01*
X0225325Y0151009D01*
X0225325Y0156580D01*
X0225050Y0156856D02*
X0226088Y0156856D01*
X0224489Y0158454D02*
X0223451Y0158454D01*
X0222891Y0160053D02*
X0221853Y0160053D01*
X0221292Y0161651D02*
X0219322Y0161651D01*
X0221800Y0166800D02*
X0214960Y0166800D01*
X0213150Y0164990D01*
X0208293Y0169644D02*
X0207107Y0169644D01*
X0205509Y0171242D02*
X0209891Y0171242D01*
X0216409Y0171242D02*
X0257000Y0171242D01*
X0257000Y0172841D02*
X0006600Y0172841D01*
X0006600Y0174439D02*
X0257000Y0174439D01*
X0257000Y0176038D02*
X0006600Y0176038D01*
X0006600Y0177636D02*
X0257000Y0177636D01*
X0257000Y0179235D02*
X0006600Y0179235D01*
X0006600Y0180833D02*
X0257000Y0180833D01*
X0257000Y0182432D02*
X0006600Y0182432D01*
X0006600Y0184030D02*
X0257000Y0184030D01*
X0257000Y0185629D02*
X0006600Y0185629D01*
X0006600Y0187227D02*
X0257000Y0187227D01*
X0257000Y0188826D02*
X0006600Y0188826D01*
X0006600Y0190424D02*
X0257000Y0190424D01*
X0256980Y0192023D02*
X0006667Y0192023D01*
X0007209Y0193621D02*
X0256628Y0193621D01*
X0255592Y0195220D02*
X0008334Y0195220D01*
X0011479Y0196818D02*
X0252697Y0196818D01*
X0221800Y0166800D02*
X0236800Y0151800D01*
X0236800Y0021800D01*
X0231800Y0016800D01*
X0221800Y0016800D01*
X0227498Y0020800D02*
X0226717Y0022685D01*
X0225085Y0024317D01*
X0223065Y0025154D01*
X0229829Y0034173D01*
X0229837Y0034180D01*
X0230085Y0034283D01*
X0231717Y0035915D01*
X0232600Y0038046D01*
X0232600Y0045554D01*
X0231717Y0047685D01*
X0230085Y0049317D01*
X0227954Y0050200D01*
X0225646Y0050200D01*
X0223515Y0049317D01*
X0221883Y0047685D01*
X0221800Y0047485D01*
X0221717Y0047685D01*
X0220800Y0048602D01*
X0220800Y0050143D01*
X0224066Y0053409D01*
X0225191Y0054534D01*
X0225800Y0056004D01*
X0225800Y0063400D01*
X0227954Y0063400D01*
X0230085Y0064283D01*
X0231717Y0065915D01*
X0232600Y0068046D01*
X0232600Y0075554D01*
X0232193Y0076536D01*
X0232800Y0077143D01*
X0232800Y0023457D01*
X0230143Y0020800D01*
X0227498Y0020800D01*
X0227423Y0020982D02*
X0230325Y0020982D01*
X0231924Y0022581D02*
X0226760Y0022581D01*
X0225223Y0024179D02*
X0232800Y0024179D01*
X0232800Y0025778D02*
X0223533Y0025778D01*
X0224732Y0027376D02*
X0232800Y0027376D01*
X0232800Y0028975D02*
X0225931Y0028975D01*
X0227130Y0030573D02*
X0232800Y0030573D01*
X0232800Y0032172D02*
X0228329Y0032172D01*
X0229528Y0033770D02*
X0232800Y0033770D01*
X0232800Y0035369D02*
X0231171Y0035369D01*
X0232153Y0036967D02*
X0232800Y0036967D01*
X0232800Y0038566D02*
X0232600Y0038566D01*
X0232600Y0040164D02*
X0232800Y0040164D01*
X0232800Y0041763D02*
X0232600Y0041763D01*
X0232600Y0043361D02*
X0232800Y0043361D01*
X0232800Y0044960D02*
X0232600Y0044960D01*
X0232800Y0046558D02*
X0232184Y0046558D01*
X0232800Y0048157D02*
X0231246Y0048157D01*
X0232800Y0049755D02*
X0229027Y0049755D01*
X0224573Y0049755D02*
X0220800Y0049755D01*
X0221246Y0048157D02*
X0222354Y0048157D01*
X0222011Y0051354D02*
X0232800Y0051354D01*
X0232800Y0052952D02*
X0223609Y0052952D01*
X0225198Y0054551D02*
X0232800Y0054551D01*
X0232800Y0056149D02*
X0225800Y0056149D01*
X0225800Y0057748D02*
X0232800Y0057748D01*
X0232800Y0059346D02*
X0225800Y0059346D01*
X0225800Y0060945D02*
X0232800Y0060945D01*
X0232800Y0062543D02*
X0225800Y0062543D01*
X0229745Y0064142D02*
X0232800Y0064142D01*
X0232800Y0065740D02*
X0231543Y0065740D01*
X0232307Y0067339D02*
X0232800Y0067339D01*
X0232800Y0068937D02*
X0232600Y0068937D01*
X0232600Y0070536D02*
X0232800Y0070536D01*
X0232800Y0072134D02*
X0232600Y0072134D01*
X0232600Y0073733D02*
X0232800Y0073733D01*
X0232800Y0075332D02*
X0232600Y0075332D01*
X0232587Y0076930D02*
X0232800Y0076930D01*
X0231800Y0081800D02*
X0226800Y0076800D01*
X0226800Y0071800D01*
X0225800Y0081457D02*
X0225800Y0087598D01*
X0226800Y0088598D01*
X0227800Y0087598D01*
X0227800Y0083457D01*
X0225800Y0081457D01*
X0225800Y0081726D02*
X0226069Y0081726D01*
X0225800Y0083324D02*
X0227667Y0083324D01*
X0227800Y0084923D02*
X0225800Y0084923D01*
X0225800Y0086521D02*
X0227800Y0086521D01*
X0227278Y0088120D02*
X0226322Y0088120D01*
X0221800Y0091800D02*
X0221800Y0056800D01*
X0216800Y0051800D01*
X0216800Y0041800D01*
X0211800Y0036115D02*
X0211883Y0035915D01*
X0213515Y0034283D01*
X0215646Y0033400D01*
X0217954Y0033400D01*
X0219834Y0034179D01*
X0213065Y0025154D01*
X0212954Y0025200D01*
X0210646Y0025200D01*
X0208515Y0024317D01*
X0206883Y0022685D01*
X0206800Y0022485D01*
X0206717Y0022685D01*
X0205800Y0023602D01*
X0205800Y0033400D01*
X0207954Y0033400D01*
X0210085Y0034283D01*
X0211717Y0035915D01*
X0211800Y0036115D01*
X0211171Y0035369D02*
X0212429Y0035369D01*
X0214752Y0033770D02*
X0208847Y0033770D01*
X0205800Y0032172D02*
X0218329Y0032172D01*
X0218847Y0033770D02*
X0219528Y0033770D01*
X0217130Y0030573D02*
X0205800Y0030573D01*
X0205800Y0028975D02*
X0215931Y0028975D01*
X0214732Y0027376D02*
X0205800Y0027376D01*
X0205800Y0025778D02*
X0213533Y0025778D01*
X0208377Y0024179D02*
X0205800Y0024179D01*
X0206760Y0022581D02*
X0206840Y0022581D01*
X0211800Y0016800D02*
X0226800Y0036800D01*
X0226800Y0041800D01*
X0212800Y0048602D02*
X0211883Y0047685D01*
X0211800Y0047485D01*
X0211717Y0047685D01*
X0210800Y0048602D01*
X0210800Y0050143D01*
X0212800Y0052143D01*
X0212800Y0051004D01*
X0212800Y0048602D01*
X0212354Y0048157D02*
X0211246Y0048157D01*
X0210800Y0049755D02*
X0212800Y0049755D01*
X0212800Y0051354D02*
X0212011Y0051354D01*
X0206800Y0051800D02*
X0211800Y0056800D01*
X0211800Y0091800D01*
X0211800Y0106800D01*
X0216800Y0111800D01*
X0216800Y0151995D01*
X0218600Y0153795D01*
X0223179Y0148863D02*
X0232800Y0148863D01*
X0232800Y0147265D02*
X0221580Y0147265D01*
X0220800Y0145666D02*
X0232800Y0145666D01*
X0232800Y0144068D02*
X0220800Y0144068D01*
X0220800Y0142469D02*
X0232800Y0142469D01*
X0232800Y0140870D02*
X0220800Y0140870D01*
X0220800Y0139272D02*
X0232800Y0139272D01*
X0232800Y0137673D02*
X0220800Y0137673D01*
X0225727Y0136075D02*
X0227873Y0136075D01*
X0226800Y0128598D02*
X0229398Y0126000D01*
X0232800Y0126000D01*
X0232800Y0097600D01*
X0229398Y0097600D01*
X0226800Y0095002D01*
X0224202Y0097600D01*
X0219398Y0097600D01*
X0216800Y0095002D01*
X0215800Y0096002D01*
X0215800Y0105143D01*
X0219066Y0108409D01*
X0220191Y0109534D01*
X0220800Y0111004D01*
X0220800Y0126000D01*
X0224202Y0126000D01*
X0226800Y0128598D01*
X0226285Y0128082D02*
X0227315Y0128082D01*
X0228914Y0126484D02*
X0224686Y0126484D01*
X0220800Y0124885D02*
X0232800Y0124885D01*
X0232800Y0123287D02*
X0220800Y0123287D01*
X0220800Y0121688D02*
X0232800Y0121688D01*
X0232800Y0120090D02*
X0220800Y0120090D01*
X0220800Y0118491D02*
X0232800Y0118491D01*
X0232800Y0116893D02*
X0220800Y0116893D01*
X0220800Y0115294D02*
X0232800Y0115294D01*
X0232800Y0113696D02*
X0220800Y0113696D01*
X0220800Y0112097D02*
X0232800Y0112097D01*
X0232800Y0110499D02*
X0220591Y0110499D01*
X0219557Y0108900D02*
X0232800Y0108900D01*
X0232800Y0107302D02*
X0217959Y0107302D01*
X0216360Y0105703D02*
X0232800Y0105703D01*
X0232800Y0104105D02*
X0215800Y0104105D01*
X0215800Y0102506D02*
X0232800Y0102506D01*
X0232800Y0100908D02*
X0215800Y0100908D01*
X0215800Y0099309D02*
X0232800Y0099309D01*
X0232800Y0097711D02*
X0215800Y0097711D01*
X0215800Y0096112D02*
X0217910Y0096112D01*
X0216800Y0088598D02*
X0215800Y0087598D01*
X0215800Y0080200D01*
X0217800Y0080200D01*
X0217800Y0087598D01*
X0216800Y0088598D01*
X0216322Y0088120D02*
X0217278Y0088120D01*
X0217800Y0086521D02*
X0215800Y0086521D01*
X0215800Y0084923D02*
X0217800Y0084923D01*
X0217800Y0083324D02*
X0215800Y0083324D01*
X0215800Y0081726D02*
X0217800Y0081726D01*
X0207800Y0081726D02*
X0205800Y0081726D01*
X0205800Y0080200D02*
X0205800Y0087598D01*
X0206800Y0088598D01*
X0207800Y0087598D01*
X0207800Y0080200D01*
X0205800Y0080200D01*
X0205800Y0083324D02*
X0207800Y0083324D01*
X0207800Y0084923D02*
X0205800Y0084923D01*
X0205800Y0086521D02*
X0207800Y0086521D01*
X0207278Y0088120D02*
X0206322Y0088120D01*
X0201800Y0091800D02*
X0201800Y0061800D01*
X0196800Y0056800D01*
X0196800Y0041800D01*
X0191800Y0036115D02*
X0191883Y0035915D01*
X0193515Y0034283D01*
X0195646Y0033400D01*
X0197800Y0033400D01*
X0197800Y0023602D01*
X0196883Y0022685D01*
X0196800Y0022485D01*
X0196717Y0022685D01*
X0195800Y0023602D01*
X0195800Y0027596D01*
X0195191Y0029066D01*
X0194066Y0030191D01*
X0194066Y0030191D01*
X0190800Y0033457D01*
X0190800Y0034998D01*
X0191717Y0035915D01*
X0191800Y0036115D01*
X0191171Y0035369D02*
X0192429Y0035369D01*
X0190800Y0033770D02*
X0194752Y0033770D01*
X0192085Y0032172D02*
X0197800Y0032172D01*
X0197800Y0030573D02*
X0193684Y0030573D01*
X0195229Y0028975D02*
X0197800Y0028975D01*
X0197800Y0027376D02*
X0195800Y0027376D01*
X0195800Y0025778D02*
X0197800Y0025778D01*
X0197800Y0024179D02*
X0195800Y0024179D01*
X0196760Y0022581D02*
X0196840Y0022581D01*
X0191800Y0026800D02*
X0186800Y0031800D01*
X0186800Y0041800D01*
X0176800Y0041800D01*
X0181800Y0036115D02*
X0181883Y0035915D01*
X0182800Y0034998D01*
X0182800Y0031004D01*
X0183409Y0029534D01*
X0184534Y0028409D01*
X0184534Y0028409D01*
X0187800Y0025143D01*
X0187800Y0023602D01*
X0186883Y0022685D01*
X0186029Y0020623D01*
X0185878Y0021089D01*
X0185563Y0021706D01*
X0185156Y0022266D01*
X0184666Y0022756D01*
X0184106Y0023163D01*
X0183489Y0023478D01*
X0182830Y0023692D01*
X0182146Y0023800D01*
X0181800Y0023800D01*
X0181800Y0016800D01*
X0181800Y0016800D01*
X0181800Y0009800D01*
X0181800Y0016800D01*
X0181800Y0016800D01*
X0181800Y0023800D01*
X0181454Y0023800D01*
X0180770Y0023692D01*
X0180111Y0023478D01*
X0179494Y0023163D01*
X0178934Y0022756D01*
X0178444Y0022266D01*
X0178037Y0021706D01*
X0177722Y0021089D01*
X0177571Y0020623D01*
X0176717Y0022685D01*
X0175085Y0024317D01*
X0172954Y0025200D01*
X0170646Y0025200D01*
X0168515Y0024317D01*
X0166883Y0022685D01*
X0166102Y0020800D01*
X0158457Y0020800D01*
X0155800Y0023457D01*
X0155800Y0145143D01*
X0173457Y0162800D01*
X0173725Y0162800D01*
X0173725Y0162205D01*
X0175410Y0160520D01*
X0172214Y0160520D01*
X0168275Y0156580D01*
X0168275Y0151009D01*
X0172214Y0147070D01*
X0177786Y0147070D01*
X0180450Y0149734D01*
X0182800Y0147384D01*
X0182800Y0137600D01*
X0179398Y0137600D01*
X0176000Y0134202D01*
X0176000Y0133823D01*
X0173623Y0136200D01*
X0171800Y0136200D01*
X0171800Y0131800D01*
X0171800Y0131800D01*
X0171800Y0127400D01*
X0173623Y0127400D01*
X0176000Y0129777D01*
X0176000Y0129398D01*
X0179398Y0126000D01*
X0182800Y0126000D01*
X0182800Y0113457D01*
X0174534Y0105191D01*
X0173409Y0104066D01*
X0172800Y0102596D01*
X0172800Y0097600D01*
X0169398Y0097600D01*
X0166800Y0095002D01*
X0164202Y0097600D01*
X0159398Y0097600D01*
X0156000Y0094202D01*
X0156000Y0089398D01*
X0157800Y0087598D01*
X0157800Y0046004D01*
X0158409Y0044534D01*
X0159534Y0043409D01*
X0159534Y0043409D01*
X0161000Y0041943D01*
X0161000Y0038046D01*
X0161883Y0035915D01*
X0163515Y0034283D01*
X0165646Y0033400D01*
X0167954Y0033400D01*
X0170085Y0034283D01*
X0171717Y0035915D01*
X0171800Y0036115D01*
X0171883Y0035915D01*
X0173515Y0034283D01*
X0175646Y0033400D01*
X0177954Y0033400D01*
X0180085Y0034283D01*
X0181717Y0035915D01*
X0181800Y0036115D01*
X0181171Y0035369D02*
X0182429Y0035369D01*
X0182800Y0033770D02*
X0178847Y0033770D01*
X0174752Y0033770D02*
X0168847Y0033770D01*
X0171171Y0035369D02*
X0172429Y0035369D01*
X0166800Y0041800D02*
X0161800Y0046800D01*
X0161800Y0091800D01*
X0165800Y0087598D02*
X0166800Y0088598D01*
X0167800Y0087598D01*
X0167800Y0078696D01*
X0167146Y0078800D01*
X0166800Y0078800D01*
X0166800Y0071800D01*
X0166800Y0071800D01*
X0166800Y0064800D01*
X0167146Y0064800D01*
X0167800Y0064904D01*
X0167800Y0061004D01*
X0168409Y0059534D01*
X0169534Y0058409D01*
X0174534Y0053409D01*
X0176004Y0052800D01*
X0192596Y0052800D01*
X0192800Y0052885D01*
X0192800Y0048602D01*
X0191883Y0047685D01*
X0191800Y0047485D01*
X0191717Y0047685D01*
X0190085Y0049317D01*
X0187954Y0050200D01*
X0185646Y0050200D01*
X0183515Y0049317D01*
X0181883Y0047685D01*
X0181800Y0047485D01*
X0181717Y0047685D01*
X0180085Y0049317D01*
X0177954Y0050200D01*
X0175646Y0050200D01*
X0173515Y0049317D01*
X0171883Y0047685D01*
X0171800Y0047485D01*
X0171717Y0047685D01*
X0170085Y0049317D01*
X0167954Y0050200D01*
X0165800Y0050200D01*
X0165800Y0064904D01*
X0166454Y0064800D01*
X0166800Y0064800D01*
X0166800Y0071800D01*
X0166800Y0071800D01*
X0166800Y0078800D01*
X0166454Y0078800D01*
X0165800Y0078696D01*
X0165800Y0087598D01*
X0166322Y0088120D02*
X0167278Y0088120D01*
X0167800Y0086521D02*
X0165800Y0086521D01*
X0165800Y0084923D02*
X0167800Y0084923D01*
X0167800Y0083324D02*
X0165800Y0083324D01*
X0165800Y0081726D02*
X0167800Y0081726D01*
X0167800Y0080127D02*
X0165800Y0080127D01*
X0166800Y0078529D02*
X0166800Y0078529D01*
X0166800Y0076930D02*
X0166800Y0076930D01*
X0166800Y0075332D02*
X0166800Y0075332D01*
X0166800Y0073733D02*
X0166800Y0073733D01*
X0166800Y0072134D02*
X0166800Y0072134D01*
X0166800Y0070536D02*
X0166800Y0070536D01*
X0166800Y0068937D02*
X0166800Y0068937D01*
X0166800Y0067339D02*
X0166800Y0067339D01*
X0166800Y0065740D02*
X0166800Y0065740D01*
X0165800Y0064142D02*
X0167800Y0064142D01*
X0167800Y0062543D02*
X0165800Y0062543D01*
X0165800Y0060945D02*
X0167825Y0060945D01*
X0168597Y0059346D02*
X0165800Y0059346D01*
X0165800Y0057748D02*
X0170195Y0057748D01*
X0171794Y0056149D02*
X0165800Y0056149D01*
X0165800Y0054551D02*
X0173392Y0054551D01*
X0175637Y0052952D02*
X0165800Y0052952D01*
X0165800Y0051354D02*
X0192800Y0051354D01*
X0192800Y0049755D02*
X0189027Y0049755D01*
X0191246Y0048157D02*
X0192354Y0048157D01*
X0184573Y0049755D02*
X0179027Y0049755D01*
X0181246Y0048157D02*
X0182354Y0048157D01*
X0174573Y0049755D02*
X0169027Y0049755D01*
X0171246Y0048157D02*
X0172354Y0048157D01*
X0176800Y0056800D02*
X0171800Y0061800D01*
X0171800Y0091800D01*
X0167910Y0096112D02*
X0165690Y0096112D01*
X0172800Y0097711D02*
X0155800Y0097711D01*
X0155800Y0099309D02*
X0172800Y0099309D01*
X0172800Y0100908D02*
X0155800Y0100908D01*
X0155800Y0102506D02*
X0172800Y0102506D01*
X0173448Y0104105D02*
X0155800Y0104105D01*
X0155800Y0105703D02*
X0175046Y0105703D01*
X0176645Y0107302D02*
X0155800Y0107302D01*
X0155800Y0108900D02*
X0178243Y0108900D01*
X0179842Y0110499D02*
X0155800Y0110499D01*
X0155800Y0112097D02*
X0181440Y0112097D01*
X0182800Y0113696D02*
X0155800Y0113696D01*
X0155800Y0115294D02*
X0182800Y0115294D01*
X0182800Y0116893D02*
X0155800Y0116893D01*
X0155800Y0118491D02*
X0182800Y0118491D01*
X0182800Y0120090D02*
X0155800Y0120090D01*
X0155800Y0121688D02*
X0182800Y0121688D01*
X0182800Y0123287D02*
X0155800Y0123287D01*
X0155800Y0124885D02*
X0182800Y0124885D01*
X0178914Y0126484D02*
X0155800Y0126484D01*
X0155800Y0128082D02*
X0159295Y0128082D01*
X0159977Y0127400D02*
X0157400Y0129977D01*
X0157400Y0131800D01*
X0161800Y0131800D01*
X0161800Y0131800D01*
X0161800Y0136200D01*
X0163623Y0136200D01*
X0166200Y0133623D01*
X0166200Y0131800D01*
X0161800Y0131800D01*
X0161800Y0131800D01*
X0161800Y0131800D01*
X0161800Y0136200D01*
X0159977Y0136200D01*
X0157400Y0133623D01*
X0157400Y0131800D01*
X0161800Y0131800D01*
X0166200Y0131800D01*
X0166200Y0129977D01*
X0163623Y0127400D01*
X0161800Y0127400D01*
X0161800Y0131800D01*
X0161800Y0131800D01*
X0161800Y0127400D01*
X0159977Y0127400D01*
X0161800Y0128082D02*
X0161800Y0128082D01*
X0161800Y0129681D02*
X0161800Y0129681D01*
X0161800Y0131279D02*
X0161800Y0131279D01*
X0161800Y0132878D02*
X0161800Y0132878D01*
X0161800Y0134476D02*
X0161800Y0134476D01*
X0161800Y0136075D02*
X0161800Y0136075D01*
X0163748Y0136075D02*
X0169852Y0136075D01*
X0169977Y0136200D02*
X0167400Y0133623D01*
X0167400Y0131800D01*
X0171800Y0131800D01*
X0171800Y0131800D01*
X0171800Y0131800D01*
X0171800Y0136200D01*
X0169977Y0136200D01*
X0171800Y0136075D02*
X0171800Y0136075D01*
X0171800Y0134476D02*
X0171800Y0134476D01*
X0171800Y0132878D02*
X0171800Y0132878D01*
X0171800Y0131800D02*
X0167400Y0131800D01*
X0167400Y0129977D01*
X0169977Y0127400D01*
X0171800Y0127400D01*
X0171800Y0131800D01*
X0171800Y0131279D02*
X0171800Y0131279D01*
X0171800Y0129681D02*
X0171800Y0129681D01*
X0171800Y0128082D02*
X0171800Y0128082D01*
X0174305Y0128082D02*
X0177315Y0128082D01*
X0176000Y0129681D02*
X0175903Y0129681D01*
X0176274Y0134476D02*
X0175346Y0134476D01*
X0173748Y0136075D02*
X0177873Y0136075D01*
X0182800Y0137673D02*
X0155800Y0137673D01*
X0155800Y0136075D02*
X0159852Y0136075D01*
X0158254Y0134476D02*
X0155800Y0134476D01*
X0155800Y0132878D02*
X0157400Y0132878D01*
X0157400Y0131279D02*
X0155800Y0131279D01*
X0155800Y0129681D02*
X0157697Y0129681D01*
X0164305Y0128082D02*
X0169295Y0128082D01*
X0167697Y0129681D02*
X0165903Y0129681D01*
X0166200Y0131279D02*
X0167400Y0131279D01*
X0167400Y0132878D02*
X0166200Y0132878D01*
X0165346Y0134476D02*
X0168254Y0134476D01*
X0155800Y0139272D02*
X0182800Y0139272D01*
X0182800Y0140870D02*
X0155800Y0140870D01*
X0155800Y0142469D02*
X0182800Y0142469D01*
X0182800Y0144068D02*
X0155800Y0144068D01*
X0156323Y0145666D02*
X0182800Y0145666D01*
X0182800Y0147265D02*
X0177980Y0147265D01*
X0179579Y0148863D02*
X0181321Y0148863D01*
X0185900Y0152700D02*
X0186800Y0151800D01*
X0186800Y0111800D01*
X0176800Y0101800D01*
X0176800Y0086800D01*
X0186800Y0076800D01*
X0191800Y0081800D01*
X0191800Y0091800D01*
X0195800Y0087598D02*
X0196800Y0088598D01*
X0197800Y0087598D01*
X0197800Y0080200D01*
X0195646Y0080200D01*
X0195430Y0080110D01*
X0195800Y0081004D01*
X0195800Y0087598D01*
X0196322Y0088120D02*
X0197278Y0088120D01*
X0197800Y0086521D02*
X0195800Y0086521D01*
X0195800Y0084923D02*
X0197800Y0084923D01*
X0197800Y0083324D02*
X0195800Y0083324D01*
X0195800Y0081726D02*
X0197800Y0081726D01*
X0195470Y0080127D02*
X0195437Y0080127D01*
X0187800Y0083457D02*
X0187800Y0087598D01*
X0186800Y0088598D01*
X0184202Y0086000D01*
X0183257Y0086000D01*
X0186800Y0082457D01*
X0187800Y0083457D01*
X0187667Y0083324D02*
X0185933Y0083324D01*
X0184334Y0084923D02*
X0187800Y0084923D01*
X0187800Y0086521D02*
X0184724Y0086521D01*
X0186322Y0088120D02*
X0187278Y0088120D01*
X0181800Y0091800D02*
X0181800Y0096800D01*
X0206800Y0121800D01*
X0206800Y0152895D01*
X0207700Y0153795D01*
X0202800Y0149184D02*
X0202800Y0137600D01*
X0199398Y0137600D01*
X0197598Y0135800D01*
X0196002Y0135800D01*
X0194202Y0137600D01*
X0190800Y0137600D01*
X0190800Y0149184D01*
X0191350Y0149734D01*
X0194014Y0147070D01*
X0199586Y0147070D01*
X0202250Y0149734D01*
X0202800Y0149184D01*
X0202800Y0148863D02*
X0201379Y0148863D01*
X0202800Y0147265D02*
X0199780Y0147265D01*
X0202800Y0145666D02*
X0190800Y0145666D01*
X0190800Y0144068D02*
X0202800Y0144068D01*
X0202800Y0142469D02*
X0190800Y0142469D01*
X0190800Y0140870D02*
X0202800Y0140870D01*
X0202800Y0139272D02*
X0190800Y0139272D01*
X0190800Y0137673D02*
X0202800Y0137673D01*
X0197873Y0136075D02*
X0195727Y0136075D01*
X0191800Y0131800D02*
X0201800Y0131800D01*
X0197598Y0127800D02*
X0199398Y0126000D01*
X0202800Y0126000D01*
X0202800Y0123457D01*
X0190800Y0111457D01*
X0190800Y0126000D01*
X0194202Y0126000D01*
X0196002Y0127800D01*
X0197598Y0127800D01*
X0198914Y0126484D02*
X0194686Y0126484D01*
X0190800Y0124885D02*
X0202800Y0124885D01*
X0202630Y0123287D02*
X0190800Y0123287D01*
X0190800Y0121688D02*
X0201032Y0121688D01*
X0199433Y0120090D02*
X0190800Y0120090D01*
X0190800Y0118491D02*
X0197834Y0118491D01*
X0196236Y0116893D02*
X0190800Y0116893D01*
X0190800Y0115294D02*
X0194637Y0115294D01*
X0193039Y0113696D02*
X0190800Y0113696D01*
X0190800Y0112097D02*
X0191440Y0112097D01*
X0196360Y0105703D02*
X0207800Y0105703D01*
X0207800Y0104105D02*
X0194762Y0104105D01*
X0193163Y0102506D02*
X0207800Y0102506D01*
X0207800Y0100908D02*
X0191565Y0100908D01*
X0189966Y0099309D02*
X0207800Y0099309D01*
X0207800Y0097711D02*
X0188368Y0097711D01*
X0189398Y0097600D02*
X0186800Y0095002D01*
X0186230Y0095573D01*
X0209066Y0118409D01*
X0210191Y0119534D01*
X0210800Y0121004D01*
X0210800Y0126000D01*
X0212800Y0126000D01*
X0212800Y0113457D01*
X0208409Y0109066D01*
X0207800Y0107596D01*
X0207800Y0096002D01*
X0206800Y0095002D01*
X0204202Y0097600D01*
X0199398Y0097600D01*
X0196800Y0095002D01*
X0194202Y0097600D01*
X0189398Y0097600D01*
X0187910Y0096112D02*
X0186769Y0096112D01*
X0195690Y0096112D02*
X0197910Y0096112D01*
X0205690Y0096112D02*
X0207800Y0096112D01*
X0207800Y0107302D02*
X0197959Y0107302D01*
X0199557Y0108900D02*
X0208340Y0108900D01*
X0209842Y0110499D02*
X0201156Y0110499D01*
X0202754Y0112097D02*
X0211440Y0112097D01*
X0212800Y0113696D02*
X0204353Y0113696D01*
X0205951Y0115294D02*
X0212800Y0115294D01*
X0212800Y0116893D02*
X0207550Y0116893D01*
X0209148Y0118491D02*
X0212800Y0118491D01*
X0212800Y0120090D02*
X0210421Y0120090D01*
X0210800Y0121688D02*
X0212800Y0121688D01*
X0212800Y0123287D02*
X0210800Y0123287D01*
X0210800Y0124885D02*
X0212800Y0124885D01*
X0212800Y0137600D02*
X0210800Y0137600D01*
X0210800Y0147384D01*
X0212800Y0149384D01*
X0212800Y0137600D01*
X0212800Y0137673D02*
X0210800Y0137673D01*
X0210800Y0139272D02*
X0212800Y0139272D01*
X0212800Y0140870D02*
X0210800Y0140870D01*
X0210800Y0142469D02*
X0212800Y0142469D01*
X0212800Y0144068D02*
X0210800Y0144068D01*
X0210800Y0145666D02*
X0212800Y0145666D01*
X0212800Y0147265D02*
X0210800Y0147265D01*
X0212279Y0148863D02*
X0212800Y0148863D01*
X0213150Y0157855D02*
X0213560Y0158265D01*
X0212740Y0158265D01*
X0213150Y0157855D01*
X0208110Y0160520D02*
X0207700Y0160930D01*
X0207290Y0160520D01*
X0208110Y0160520D01*
X0202660Y0158265D02*
X0202250Y0157855D01*
X0201840Y0158265D01*
X0202660Y0158265D01*
X0197210Y0160520D02*
X0195810Y0161920D01*
X0194410Y0160520D01*
X0197210Y0160520D01*
X0196078Y0161651D02*
X0195542Y0161651D01*
X0193160Y0159665D02*
X0191350Y0157855D01*
X0189540Y0159665D01*
X0190975Y0159665D01*
X0190975Y0164615D01*
X0191725Y0164615D01*
X0191725Y0159665D01*
X0193160Y0159665D01*
X0191725Y0160053D02*
X0190975Y0160053D01*
X0190975Y0161651D02*
X0191725Y0161651D01*
X0191725Y0163250D02*
X0190975Y0163250D01*
X0188290Y0160520D02*
X0186890Y0161920D01*
X0185490Y0160520D01*
X0188290Y0160520D01*
X0187158Y0161651D02*
X0186622Y0161651D01*
X0190751Y0158454D02*
X0191949Y0158454D01*
X0185900Y0153795D02*
X0185900Y0152700D01*
X0190800Y0148863D02*
X0192221Y0148863D01*
X0190800Y0147265D02*
X0193820Y0147265D01*
X0180860Y0158265D02*
X0180450Y0157855D01*
X0180040Y0158265D01*
X0180860Y0158265D01*
X0174278Y0161651D02*
X0172308Y0161651D01*
X0171747Y0160053D02*
X0170709Y0160053D01*
X0170149Y0158454D02*
X0169111Y0158454D01*
X0168550Y0156856D02*
X0167512Y0156856D01*
X0168275Y0155257D02*
X0165914Y0155257D01*
X0164315Y0153659D02*
X0168275Y0153659D01*
X0168275Y0152060D02*
X0162717Y0152060D01*
X0161118Y0150462D02*
X0168823Y0150462D01*
X0170421Y0148863D02*
X0159520Y0148863D01*
X0157921Y0147265D02*
X0172020Y0147265D01*
X0159396Y0160053D02*
X0158600Y0160053D01*
X0158376Y0161651D02*
X0160994Y0161651D01*
X0162593Y0163250D02*
X0157948Y0163250D01*
X0157122Y0164848D02*
X0164191Y0164848D01*
X0165790Y0166447D02*
X0156022Y0166447D01*
X0154417Y0168045D02*
X0167388Y0168045D01*
X0168987Y0169644D02*
X0151279Y0169644D01*
X0144321Y0169644D02*
X0119279Y0169644D01*
X0119969Y0169459D02*
X0117222Y0170195D01*
X0114378Y0170195D01*
X0111631Y0169459D01*
X0109169Y0168037D01*
X0107158Y0166026D01*
X0105736Y0163564D01*
X0105000Y0160817D01*
X0105000Y0159257D01*
X0095191Y0169066D01*
X0094066Y0170191D01*
X0092596Y0170800D01*
X0086851Y0170800D01*
X0085936Y0171715D01*
X0080364Y0171715D01*
X0077700Y0169051D01*
X0075036Y0171715D01*
X0069464Y0171715D01*
X0065810Y0168061D01*
X0063556Y0170315D01*
X0061725Y0170315D01*
X0061725Y0165365D01*
X0060975Y0165365D01*
X0060975Y0170315D01*
X0059144Y0170315D01*
X0056890Y0168061D01*
X0053236Y0171715D01*
X0047664Y0171715D01*
X0046749Y0170800D01*
X0041004Y0170800D01*
X0039534Y0170191D01*
X0038409Y0169066D01*
X0028600Y0159257D01*
X0028600Y0160817D01*
X0027864Y0163564D01*
X0026442Y0166026D01*
X0024431Y0168037D01*
X0021969Y0169459D01*
X0019222Y0170195D01*
X0016378Y0170195D01*
X0013631Y0169459D01*
X0011169Y0168037D01*
X0009158Y0166026D01*
X0007736Y0163564D01*
X0007000Y0160817D01*
X0007000Y0157973D01*
X0007736Y0155226D01*
X0009158Y0152764D01*
X0011169Y0150753D01*
X0013631Y0149331D01*
X0016378Y0148595D01*
X0018214Y0148595D01*
X0017800Y0147596D01*
X0017800Y0021004D01*
X0018409Y0019534D01*
X0019534Y0018409D01*
X0024534Y0013409D01*
X0026004Y0012800D01*
X0036102Y0012800D01*
X0036883Y0010915D01*
X0038515Y0009283D01*
X0040646Y0008400D01*
X0042954Y0008400D01*
X0045085Y0009283D01*
X0046717Y0010915D01*
X0047571Y0012977D01*
X0047722Y0012511D01*
X0048037Y0011894D01*
X0048444Y0011334D01*
X0048934Y0010844D01*
X0049494Y0010437D01*
X0050111Y0010122D01*
X0050770Y0009908D01*
X0051454Y0009800D01*
X0051800Y0009800D01*
X0052146Y0009800D01*
X0052830Y0009908D01*
X0053489Y0010122D01*
X0054106Y0010437D01*
X0054666Y0010844D01*
X0055156Y0011334D01*
X0055563Y0011894D01*
X0055878Y0012511D01*
X0056029Y0012977D01*
X0056883Y0010915D01*
X0058515Y0009283D01*
X0060646Y0008400D01*
X0062954Y0008400D01*
X0065085Y0009283D01*
X0066717Y0010915D01*
X0066800Y0011115D01*
X0066883Y0010915D01*
X0068515Y0009283D01*
X0070646Y0008400D01*
X0072954Y0008400D01*
X0075085Y0009283D01*
X0076717Y0010915D01*
X0076800Y0011115D01*
X0076883Y0010915D01*
X0078515Y0009283D01*
X0080646Y0008400D01*
X0082954Y0008400D01*
X0085085Y0009283D01*
X0086717Y0010915D01*
X0086800Y0011115D01*
X0086883Y0010915D01*
X0088515Y0009283D01*
X0090646Y0008400D01*
X0092954Y0008400D01*
X0095085Y0009283D01*
X0096717Y0010915D01*
X0097498Y0012800D01*
X0102596Y0012800D01*
X0104066Y0013409D01*
X0109066Y0018409D01*
X0110191Y0019534D01*
X0110800Y0021004D01*
X0110800Y0121631D01*
X0112807Y0120800D01*
X0120793Y0120800D01*
X0122999Y0121713D01*
X0124687Y0123401D01*
X0125600Y0125607D01*
X0125600Y0127993D01*
X0124687Y0130199D01*
X0123085Y0131800D01*
X0124687Y0133401D01*
X0125600Y0135607D01*
X0125600Y0137993D01*
X0124687Y0140199D01*
X0122999Y0141887D01*
X0120793Y0142800D01*
X0112807Y0142800D01*
X0110800Y0141969D01*
X0110800Y0149811D01*
X0111631Y0149331D01*
X0114378Y0148595D01*
X0117222Y0148595D01*
X0119969Y0149331D01*
X0122431Y0150753D01*
X0124442Y0152764D01*
X0125864Y0155226D01*
X0126600Y0157973D01*
X0126600Y0160817D01*
X0125864Y0163564D01*
X0124442Y0166026D01*
X0122431Y0168037D01*
X0119969Y0169459D01*
X0122417Y0168045D02*
X0141183Y0168045D01*
X0139578Y0166447D02*
X0124022Y0166447D01*
X0125122Y0164848D02*
X0138478Y0164848D01*
X0137652Y0163250D02*
X0125948Y0163250D01*
X0126376Y0161651D02*
X0137224Y0161651D01*
X0137000Y0160053D02*
X0126600Y0160053D01*
X0126600Y0158454D02*
X0137000Y0158454D01*
X0137299Y0156856D02*
X0126301Y0156856D01*
X0125872Y0155257D02*
X0137728Y0155257D01*
X0138641Y0153659D02*
X0124959Y0153659D01*
X0123739Y0152060D02*
X0139861Y0152060D01*
X0141673Y0150462D02*
X0121927Y0150462D01*
X0118223Y0148863D02*
X0145377Y0148863D01*
X0147800Y0147265D02*
X0110800Y0147265D01*
X0110800Y0148863D02*
X0113377Y0148863D01*
X0110800Y0145666D02*
X0147800Y0145666D01*
X0147800Y0144068D02*
X0110800Y0144068D01*
X0110800Y0142469D02*
X0112007Y0142469D01*
X0102800Y0142469D02*
X0090800Y0142469D01*
X0090800Y0140870D02*
X0102800Y0140870D01*
X0102800Y0139272D02*
X0090800Y0139272D01*
X0090800Y0137673D02*
X0102800Y0137673D01*
X0102800Y0137600D02*
X0099398Y0137600D01*
X0096800Y0135002D01*
X0094202Y0137600D01*
X0090800Y0137600D01*
X0090800Y0147070D01*
X0091386Y0147070D01*
X0095325Y0151009D01*
X0095325Y0156580D01*
X0091386Y0160520D01*
X0088190Y0160520D01*
X0089875Y0162205D01*
X0089875Y0162800D01*
X0090143Y0162800D01*
X0102800Y0150143D01*
X0102800Y0137600D01*
X0097873Y0136075D02*
X0095727Y0136075D01*
X0096800Y0128598D02*
X0099398Y0126000D01*
X0102800Y0126000D01*
X0102800Y0097600D01*
X0099398Y0097600D01*
X0096800Y0095002D01*
X0094202Y0097600D01*
X0089398Y0097600D01*
X0086800Y0095002D01*
X0085800Y0096002D01*
X0085800Y0105143D01*
X0090191Y0109534D01*
X0090800Y0111004D01*
X0090800Y0126000D01*
X0094202Y0126000D01*
X0096800Y0128598D01*
X0096285Y0128082D02*
X0097315Y0128082D01*
X0098914Y0126484D02*
X0094686Y0126484D01*
X0090800Y0124885D02*
X0102800Y0124885D01*
X0102800Y0123287D02*
X0090800Y0123287D01*
X0090800Y0121688D02*
X0102800Y0121688D01*
X0102800Y0120090D02*
X0090800Y0120090D01*
X0090800Y0118491D02*
X0102800Y0118491D01*
X0102800Y0116893D02*
X0090800Y0116893D01*
X0090800Y0115294D02*
X0102800Y0115294D01*
X0102800Y0113696D02*
X0090800Y0113696D01*
X0090800Y0112097D02*
X0102800Y0112097D01*
X0102800Y0110499D02*
X0090591Y0110499D01*
X0089557Y0108900D02*
X0102800Y0108900D01*
X0102800Y0107302D02*
X0087959Y0107302D01*
X0086360Y0105703D02*
X0102800Y0105703D01*
X0102800Y0104105D02*
X0085800Y0104105D01*
X0085800Y0102506D02*
X0102800Y0102506D01*
X0102800Y0100908D02*
X0085800Y0100908D01*
X0085800Y0099309D02*
X0102800Y0099309D01*
X0102800Y0097711D02*
X0085800Y0097711D01*
X0085800Y0096112D02*
X0087910Y0096112D01*
X0091800Y0091800D02*
X0091800Y0056800D01*
X0086800Y0051800D01*
X0086800Y0041800D01*
X0081800Y0036115D02*
X0081883Y0035915D01*
X0083515Y0034283D01*
X0085646Y0033400D01*
X0087954Y0033400D01*
X0089834Y0034179D01*
X0083065Y0025154D01*
X0082954Y0025200D01*
X0080646Y0025200D01*
X0078515Y0024317D01*
X0076883Y0022685D01*
X0076800Y0022485D01*
X0076717Y0022685D01*
X0075800Y0023602D01*
X0075800Y0033400D01*
X0077954Y0033400D01*
X0080085Y0034283D01*
X0081717Y0035915D01*
X0081800Y0036115D01*
X0081171Y0035369D02*
X0082429Y0035369D01*
X0084752Y0033770D02*
X0078847Y0033770D01*
X0075800Y0032172D02*
X0088329Y0032172D01*
X0088847Y0033770D02*
X0089528Y0033770D01*
X0087130Y0030573D02*
X0075800Y0030573D01*
X0075800Y0028975D02*
X0085931Y0028975D01*
X0084732Y0027376D02*
X0075800Y0027376D01*
X0075800Y0025778D02*
X0083533Y0025778D01*
X0078377Y0024179D02*
X0075800Y0024179D01*
X0076760Y0022581D02*
X0076840Y0022581D01*
X0081800Y0016800D02*
X0096800Y0036800D01*
X0096800Y0041800D01*
X0102600Y0041763D02*
X0102800Y0041763D01*
X0102800Y0043361D02*
X0102600Y0043361D01*
X0102600Y0044960D02*
X0102800Y0044960D01*
X0102600Y0045554D02*
X0101717Y0047685D01*
X0100085Y0049317D01*
X0097954Y0050200D01*
X0095646Y0050200D01*
X0093515Y0049317D01*
X0091883Y0047685D01*
X0091800Y0047485D01*
X0091717Y0047685D01*
X0090800Y0048602D01*
X0090800Y0050143D01*
X0094066Y0053409D01*
X0095191Y0054534D01*
X0095800Y0056004D01*
X0095800Y0063400D01*
X0097954Y0063400D01*
X0100085Y0064283D01*
X0101717Y0065915D01*
X0102600Y0068046D01*
X0102600Y0075554D01*
X0102193Y0076536D01*
X0102800Y0077143D01*
X0102800Y0023457D01*
X0100143Y0020800D01*
X0097498Y0020800D01*
X0096717Y0022685D01*
X0095085Y0024317D01*
X0093065Y0025154D01*
X0099829Y0034173D01*
X0099837Y0034180D01*
X0100085Y0034283D01*
X0101717Y0035915D01*
X0102600Y0038046D01*
X0102600Y0045554D01*
X0102800Y0046558D02*
X0102184Y0046558D01*
X0102800Y0048157D02*
X0101246Y0048157D01*
X0102800Y0049755D02*
X0099027Y0049755D01*
X0102800Y0051354D02*
X0092011Y0051354D01*
X0090800Y0049755D02*
X0094573Y0049755D01*
X0092354Y0048157D02*
X0091246Y0048157D01*
X0093609Y0052952D02*
X0102800Y0052952D01*
X0102800Y0054551D02*
X0095198Y0054551D01*
X0095800Y0056149D02*
X0102800Y0056149D01*
X0102800Y0057748D02*
X0095800Y0057748D01*
X0095800Y0059346D02*
X0102800Y0059346D01*
X0102800Y0060945D02*
X0095800Y0060945D01*
X0095800Y0062543D02*
X0102800Y0062543D01*
X0102800Y0064142D02*
X0099745Y0064142D01*
X0101543Y0065740D02*
X0102800Y0065740D01*
X0102800Y0067339D02*
X0102307Y0067339D01*
X0102600Y0068937D02*
X0102800Y0068937D01*
X0102800Y0070536D02*
X0102600Y0070536D01*
X0102600Y0072134D02*
X0102800Y0072134D01*
X0102800Y0073733D02*
X0102600Y0073733D01*
X0102600Y0075332D02*
X0102800Y0075332D01*
X0102800Y0076930D02*
X0102587Y0076930D01*
X0101800Y0081800D02*
X0096800Y0076800D01*
X0096800Y0071800D01*
X0095800Y0081457D02*
X0095800Y0087598D01*
X0096800Y0088598D01*
X0097800Y0087598D01*
X0097800Y0083457D01*
X0095800Y0081457D01*
X0095800Y0081726D02*
X0096069Y0081726D01*
X0095800Y0083324D02*
X0097667Y0083324D01*
X0097800Y0084923D02*
X0095800Y0084923D01*
X0095800Y0086521D02*
X0097800Y0086521D01*
X0097278Y0088120D02*
X0096322Y0088120D01*
X0101800Y0091800D02*
X0101800Y0081800D01*
X0110800Y0081726D02*
X0147800Y0081726D01*
X0147800Y0083324D02*
X0110800Y0083324D01*
X0110800Y0084923D02*
X0147800Y0084923D01*
X0147800Y0086521D02*
X0110800Y0086521D01*
X0110800Y0088120D02*
X0147800Y0088120D01*
X0147800Y0089718D02*
X0110800Y0089718D01*
X0110800Y0091317D02*
X0147800Y0091317D01*
X0147800Y0092915D02*
X0110800Y0092915D01*
X0110800Y0094514D02*
X0147800Y0094514D01*
X0147800Y0096112D02*
X0110800Y0096112D01*
X0110800Y0097711D02*
X0147800Y0097711D01*
X0147800Y0099309D02*
X0110800Y0099309D01*
X0110800Y0100908D02*
X0147800Y0100908D01*
X0147800Y0102506D02*
X0110800Y0102506D01*
X0110800Y0104105D02*
X0147800Y0104105D01*
X0147800Y0105703D02*
X0110800Y0105703D01*
X0110800Y0107302D02*
X0147800Y0107302D01*
X0147800Y0108900D02*
X0110800Y0108900D01*
X0110800Y0110499D02*
X0147800Y0110499D01*
X0147800Y0112097D02*
X0110800Y0112097D01*
X0110800Y0113696D02*
X0147800Y0113696D01*
X0147800Y0115294D02*
X0110800Y0115294D01*
X0110800Y0116893D02*
X0147800Y0116893D01*
X0147800Y0118491D02*
X0110800Y0118491D01*
X0110800Y0120090D02*
X0147800Y0120090D01*
X0147800Y0121688D02*
X0122938Y0121688D01*
X0124572Y0123287D02*
X0147800Y0123287D01*
X0147800Y0124885D02*
X0125301Y0124885D01*
X0125600Y0126484D02*
X0147800Y0126484D01*
X0147800Y0128082D02*
X0125563Y0128082D01*
X0124901Y0129681D02*
X0147800Y0129681D01*
X0147800Y0131279D02*
X0123606Y0131279D01*
X0124163Y0132878D02*
X0147800Y0132878D01*
X0147800Y0134476D02*
X0125132Y0134476D01*
X0125600Y0136075D02*
X0147800Y0136075D01*
X0147800Y0137673D02*
X0125600Y0137673D01*
X0125070Y0139272D02*
X0147800Y0139272D01*
X0147800Y0140870D02*
X0124015Y0140870D01*
X0121593Y0142469D02*
X0147800Y0142469D01*
X0151800Y0146800D02*
X0171800Y0166800D01*
X0178640Y0166800D01*
X0180450Y0164990D01*
X0185307Y0169644D02*
X0188473Y0169644D01*
X0190975Y0169644D02*
X0191725Y0169644D01*
X0191725Y0168045D02*
X0190975Y0168045D01*
X0190975Y0166447D02*
X0191725Y0166447D01*
X0194227Y0169644D02*
X0197393Y0169644D01*
X0198991Y0171242D02*
X0183709Y0171242D01*
X0177191Y0171242D02*
X0086409Y0171242D01*
X0084960Y0166800D02*
X0083150Y0164990D01*
X0084960Y0166800D02*
X0091800Y0166800D01*
X0106800Y0151800D01*
X0106800Y0021800D01*
X0101800Y0016800D01*
X0091800Y0016800D01*
X0097423Y0020982D02*
X0100325Y0020982D01*
X0101924Y0022581D02*
X0096760Y0022581D01*
X0095223Y0024179D02*
X0102800Y0024179D01*
X0102800Y0025778D02*
X0093533Y0025778D01*
X0094732Y0027376D02*
X0102800Y0027376D01*
X0102800Y0028975D02*
X0095931Y0028975D01*
X0097130Y0030573D02*
X0102800Y0030573D01*
X0102800Y0032172D02*
X0098329Y0032172D01*
X0099528Y0033770D02*
X0102800Y0033770D01*
X0102800Y0035369D02*
X0101171Y0035369D01*
X0102153Y0036967D02*
X0102800Y0036967D01*
X0102800Y0038566D02*
X0102600Y0038566D01*
X0102600Y0040164D02*
X0102800Y0040164D01*
X0110800Y0040164D02*
X0147800Y0040164D01*
X0147800Y0038566D02*
X0110800Y0038566D01*
X0110800Y0036967D02*
X0147800Y0036967D01*
X0147800Y0035369D02*
X0110800Y0035369D01*
X0110800Y0033770D02*
X0147800Y0033770D01*
X0147800Y0032172D02*
X0110800Y0032172D01*
X0110800Y0030573D02*
X0147800Y0030573D01*
X0147800Y0028975D02*
X0110800Y0028975D01*
X0110800Y0027376D02*
X0147800Y0027376D01*
X0147800Y0025778D02*
X0110800Y0025778D01*
X0110800Y0024179D02*
X0147800Y0024179D01*
X0147800Y0022581D02*
X0110800Y0022581D01*
X0110791Y0020982D02*
X0147809Y0020982D01*
X0148560Y0019384D02*
X0110040Y0019384D01*
X0108442Y0017785D02*
X0150158Y0017785D01*
X0151757Y0016187D02*
X0106843Y0016187D01*
X0105245Y0014588D02*
X0153355Y0014588D01*
X0155547Y0012990D02*
X0103053Y0012990D01*
X0096914Y0011391D02*
X0166686Y0011391D01*
X0168005Y0009793D02*
X0095595Y0009793D01*
X0088005Y0009793D02*
X0085595Y0009793D01*
X0078005Y0009793D02*
X0075595Y0009793D01*
X0068005Y0009793D02*
X0065595Y0009793D01*
X0058005Y0009793D02*
X0045595Y0009793D01*
X0046914Y0011391D02*
X0048402Y0011391D01*
X0051800Y0011391D02*
X0051800Y0011391D01*
X0051800Y0009800D02*
X0051800Y0016800D01*
X0051800Y0016800D01*
X0051800Y0023800D01*
X0052146Y0023800D01*
X0052830Y0023692D01*
X0053489Y0023478D01*
X0054106Y0023163D01*
X0054666Y0022756D01*
X0055156Y0022266D01*
X0055563Y0021706D01*
X0055878Y0021089D01*
X0056029Y0020623D01*
X0056883Y0022685D01*
X0057800Y0023602D01*
X0057800Y0025143D01*
X0053409Y0029534D01*
X0052800Y0031004D01*
X0052800Y0034998D01*
X0051883Y0035915D01*
X0051800Y0036115D01*
X0051717Y0035915D01*
X0050085Y0034283D01*
X0047954Y0033400D01*
X0045646Y0033400D01*
X0043515Y0034283D01*
X0041883Y0035915D01*
X0041800Y0036115D01*
X0041717Y0035915D01*
X0040085Y0034283D01*
X0037954Y0033400D01*
X0035646Y0033400D01*
X0033515Y0034283D01*
X0031883Y0035915D01*
X0031000Y0038046D01*
X0031000Y0041943D01*
X0028409Y0044534D01*
X0027800Y0046004D01*
X0027800Y0087598D01*
X0026000Y0089398D01*
X0026000Y0094202D01*
X0029398Y0097600D01*
X0034202Y0097600D01*
X0036800Y0095002D01*
X0039398Y0097600D01*
X0042800Y0097600D01*
X0042800Y0102596D01*
X0043409Y0104066D01*
X0044534Y0105191D01*
X0052800Y0113457D01*
X0052800Y0126000D01*
X0049398Y0126000D01*
X0046000Y0129398D01*
X0046000Y0129777D01*
X0043623Y0127400D01*
X0041800Y0127400D01*
X0041800Y0131800D01*
X0041800Y0131800D01*
X0041800Y0136200D01*
X0043623Y0136200D01*
X0046000Y0133823D01*
X0046000Y0134202D01*
X0049398Y0137600D01*
X0052800Y0137600D01*
X0052800Y0147384D01*
X0050450Y0149734D01*
X0047786Y0147070D01*
X0042214Y0147070D01*
X0038275Y0151009D01*
X0038275Y0156580D01*
X0042214Y0160520D01*
X0045410Y0160520D01*
X0043725Y0162205D01*
X0043725Y0162800D01*
X0043457Y0162800D01*
X0025800Y0145143D01*
X0025800Y0023457D01*
X0028457Y0020800D01*
X0036102Y0020800D01*
X0036883Y0022685D01*
X0038515Y0024317D01*
X0040646Y0025200D01*
X0042954Y0025200D01*
X0045085Y0024317D01*
X0046717Y0022685D01*
X0047571Y0020623D01*
X0047722Y0021089D01*
X0048037Y0021706D01*
X0048444Y0022266D01*
X0048934Y0022756D01*
X0049494Y0023163D01*
X0050111Y0023478D01*
X0050770Y0023692D01*
X0051454Y0023800D01*
X0051800Y0023800D01*
X0051800Y0016800D01*
X0051800Y0016800D01*
X0051800Y0009800D01*
X0051800Y0012990D02*
X0051800Y0012990D01*
X0051800Y0014588D02*
X0051800Y0014588D01*
X0051800Y0016187D02*
X0051800Y0016187D01*
X0051800Y0017785D02*
X0051800Y0017785D01*
X0051800Y0019384D02*
X0051800Y0019384D01*
X0051800Y0020982D02*
X0051800Y0020982D01*
X0051800Y0022581D02*
X0051800Y0022581D01*
X0054842Y0022581D02*
X0056840Y0022581D01*
X0056177Y0020982D02*
X0055912Y0020982D01*
X0057800Y0024179D02*
X0045223Y0024179D01*
X0046760Y0022581D02*
X0048758Y0022581D01*
X0047688Y0020982D02*
X0047423Y0020982D01*
X0041800Y0016800D02*
X0026800Y0016800D01*
X0021800Y0021800D01*
X0021800Y0146800D01*
X0041800Y0166800D01*
X0048640Y0166800D01*
X0050450Y0164990D01*
X0055307Y0169644D02*
X0058473Y0169644D01*
X0060975Y0169644D02*
X0061725Y0169644D01*
X0061725Y0168045D02*
X0060975Y0168045D01*
X0060975Y0166447D02*
X0061725Y0166447D01*
X0061725Y0164615D02*
X0061725Y0159665D01*
X0063160Y0159665D01*
X0061350Y0157855D01*
X0059540Y0159665D01*
X0060975Y0159665D01*
X0060975Y0164615D01*
X0061725Y0164615D01*
X0061725Y0163250D02*
X0060975Y0163250D01*
X0060975Y0161651D02*
X0061725Y0161651D01*
X0061725Y0160053D02*
X0060975Y0160053D01*
X0060751Y0158454D02*
X0061949Y0158454D01*
X0064410Y0160520D02*
X0065810Y0161920D01*
X0067210Y0160520D01*
X0064410Y0160520D01*
X0065542Y0161651D02*
X0066078Y0161651D01*
X0071840Y0158265D02*
X0072660Y0158265D01*
X0072250Y0157855D01*
X0071840Y0158265D01*
X0077290Y0160520D02*
X0077700Y0160930D01*
X0078110Y0160520D01*
X0077290Y0160520D01*
X0082740Y0158265D02*
X0083560Y0158265D01*
X0083150Y0157855D01*
X0082740Y0158265D01*
X0077700Y0153795D02*
X0077700Y0152700D01*
X0076800Y0151800D01*
X0076800Y0121800D01*
X0051800Y0096800D01*
X0051800Y0091800D01*
X0056230Y0095573D02*
X0080191Y0119534D01*
X0080800Y0121004D01*
X0080800Y0122596D01*
X0080800Y0126000D01*
X0082800Y0126000D01*
X0082800Y0113457D01*
X0079534Y0110191D01*
X0078409Y0109066D01*
X0077800Y0107596D01*
X0077800Y0096002D01*
X0076800Y0095002D01*
X0074202Y0097600D01*
X0069398Y0097600D01*
X0066800Y0095002D01*
X0064202Y0097600D01*
X0059398Y0097600D01*
X0056800Y0095002D01*
X0056230Y0095573D01*
X0056769Y0096112D02*
X0057910Y0096112D01*
X0058368Y0097711D02*
X0077800Y0097711D01*
X0077800Y0099309D02*
X0059966Y0099309D01*
X0061565Y0100908D02*
X0077800Y0100908D01*
X0077800Y0102506D02*
X0063163Y0102506D01*
X0064762Y0104105D02*
X0077800Y0104105D01*
X0077800Y0105703D02*
X0066360Y0105703D01*
X0067959Y0107302D02*
X0077800Y0107302D01*
X0078340Y0108900D02*
X0069557Y0108900D01*
X0071156Y0110499D02*
X0079842Y0110499D01*
X0081440Y0112097D02*
X0072754Y0112097D01*
X0074353Y0113696D02*
X0082800Y0113696D01*
X0082800Y0115294D02*
X0075951Y0115294D01*
X0077550Y0116893D02*
X0082800Y0116893D01*
X0082800Y0118491D02*
X0079148Y0118491D01*
X0080421Y0120090D02*
X0082800Y0120090D01*
X0082800Y0121688D02*
X0080800Y0121688D01*
X0080800Y0123287D02*
X0082800Y0123287D01*
X0082800Y0124885D02*
X0080800Y0124885D01*
X0072800Y0124885D02*
X0060800Y0124885D01*
X0060800Y0126000D02*
X0064202Y0126000D01*
X0066002Y0127800D01*
X0067598Y0127800D01*
X0069398Y0126000D01*
X0072800Y0126000D01*
X0072800Y0123457D01*
X0060800Y0111457D01*
X0060800Y0112596D01*
X0060800Y0126000D01*
X0064686Y0126484D02*
X0068914Y0126484D01*
X0072630Y0123287D02*
X0060800Y0123287D01*
X0060800Y0121688D02*
X0071032Y0121688D01*
X0069433Y0120090D02*
X0060800Y0120090D01*
X0060800Y0118491D02*
X0067834Y0118491D01*
X0066236Y0116893D02*
X0060800Y0116893D01*
X0060800Y0115294D02*
X0064637Y0115294D01*
X0063039Y0113696D02*
X0060800Y0113696D01*
X0060800Y0112097D02*
X0061440Y0112097D01*
X0056800Y0111800D02*
X0046800Y0101800D01*
X0046800Y0086800D01*
X0056800Y0076800D01*
X0056800Y0071800D01*
X0056800Y0076800D02*
X0061800Y0081800D01*
X0061800Y0091800D01*
X0065800Y0087598D02*
X0066800Y0088598D01*
X0067800Y0087598D01*
X0067800Y0080200D01*
X0065646Y0080200D01*
X0065430Y0080110D01*
X0065800Y0081004D01*
X0065800Y0087598D01*
X0066322Y0088120D02*
X0067278Y0088120D01*
X0067800Y0086521D02*
X0065800Y0086521D01*
X0065800Y0084923D02*
X0067800Y0084923D01*
X0067800Y0083324D02*
X0065800Y0083324D01*
X0065800Y0081726D02*
X0067800Y0081726D01*
X0065470Y0080127D02*
X0065437Y0080127D01*
X0057800Y0083457D02*
X0057800Y0087598D01*
X0056800Y0088598D01*
X0054202Y0086000D01*
X0053257Y0086000D01*
X0056800Y0082457D01*
X0057800Y0083457D01*
X0057667Y0083324D02*
X0055933Y0083324D01*
X0054334Y0084923D02*
X0057800Y0084923D01*
X0057800Y0086521D02*
X0054724Y0086521D01*
X0056322Y0088120D02*
X0057278Y0088120D01*
X0047743Y0080200D02*
X0045800Y0080200D01*
X0045800Y0082143D01*
X0047743Y0080200D01*
X0046218Y0081726D02*
X0045800Y0081726D01*
X0037800Y0081726D02*
X0035800Y0081726D01*
X0035800Y0083324D02*
X0037800Y0083324D01*
X0037800Y0084923D02*
X0035800Y0084923D01*
X0035800Y0086521D02*
X0037800Y0086521D01*
X0037800Y0087598D02*
X0037800Y0078696D01*
X0037146Y0078800D01*
X0036800Y0078800D01*
X0036800Y0071800D01*
X0036800Y0071800D01*
X0036800Y0064800D01*
X0037146Y0064800D01*
X0037800Y0064904D01*
X0037800Y0061004D01*
X0038409Y0059534D01*
X0043409Y0054534D01*
X0044534Y0053409D01*
X0046004Y0052800D01*
X0062596Y0052800D01*
X0062800Y0052885D01*
X0062800Y0048602D01*
X0061883Y0047685D01*
X0061800Y0047485D01*
X0061717Y0047685D01*
X0060085Y0049317D01*
X0057954Y0050200D01*
X0055646Y0050200D01*
X0053515Y0049317D01*
X0051883Y0047685D01*
X0051800Y0047485D01*
X0051717Y0047685D01*
X0050085Y0049317D01*
X0047954Y0050200D01*
X0045646Y0050200D01*
X0043515Y0049317D01*
X0041883Y0047685D01*
X0041800Y0047485D01*
X0041717Y0047685D01*
X0040085Y0049317D01*
X0037954Y0050200D01*
X0035800Y0050200D01*
X0035800Y0064904D01*
X0036454Y0064800D01*
X0036800Y0064800D01*
X0036800Y0071800D01*
X0036800Y0071800D01*
X0036800Y0078800D01*
X0036454Y0078800D01*
X0035800Y0078696D01*
X0035800Y0087598D01*
X0036800Y0088598D01*
X0037800Y0087598D01*
X0037278Y0088120D02*
X0036322Y0088120D01*
X0031800Y0091800D02*
X0031800Y0046800D01*
X0036800Y0041800D01*
X0031000Y0041763D02*
X0025800Y0041763D01*
X0025800Y0043361D02*
X0029582Y0043361D01*
X0028233Y0044960D02*
X0025800Y0044960D01*
X0025800Y0046558D02*
X0027800Y0046558D01*
X0027800Y0048157D02*
X0025800Y0048157D01*
X0025800Y0049755D02*
X0027800Y0049755D01*
X0027800Y0051354D02*
X0025800Y0051354D01*
X0025800Y0052952D02*
X0027800Y0052952D01*
X0027800Y0054551D02*
X0025800Y0054551D01*
X0025800Y0056149D02*
X0027800Y0056149D01*
X0027800Y0057748D02*
X0025800Y0057748D01*
X0025800Y0059346D02*
X0027800Y0059346D01*
X0027800Y0060945D02*
X0025800Y0060945D01*
X0025800Y0062543D02*
X0027800Y0062543D01*
X0027800Y0064142D02*
X0025800Y0064142D01*
X0025800Y0065740D02*
X0027800Y0065740D01*
X0027800Y0067339D02*
X0025800Y0067339D01*
X0025800Y0068937D02*
X0027800Y0068937D01*
X0027800Y0070536D02*
X0025800Y0070536D01*
X0025800Y0072134D02*
X0027800Y0072134D01*
X0027800Y0073733D02*
X0025800Y0073733D01*
X0025800Y0075332D02*
X0027800Y0075332D01*
X0027800Y0076930D02*
X0025800Y0076930D01*
X0025800Y0078529D02*
X0027800Y0078529D01*
X0027800Y0080127D02*
X0025800Y0080127D01*
X0025800Y0081726D02*
X0027800Y0081726D01*
X0027800Y0083324D02*
X0025800Y0083324D01*
X0025800Y0084923D02*
X0027800Y0084923D01*
X0027800Y0086521D02*
X0025800Y0086521D01*
X0025800Y0088120D02*
X0027278Y0088120D01*
X0026000Y0089718D02*
X0025800Y0089718D01*
X0025800Y0091317D02*
X0026000Y0091317D01*
X0026000Y0092915D02*
X0025800Y0092915D01*
X0025800Y0094514D02*
X0026311Y0094514D01*
X0025800Y0096112D02*
X0027910Y0096112D01*
X0025800Y0097711D02*
X0042800Y0097711D01*
X0042800Y0099309D02*
X0025800Y0099309D01*
X0025800Y0100908D02*
X0042800Y0100908D01*
X0042800Y0102506D02*
X0025800Y0102506D01*
X0025800Y0104105D02*
X0043448Y0104105D01*
X0045046Y0105703D02*
X0025800Y0105703D01*
X0025800Y0107302D02*
X0046645Y0107302D01*
X0048243Y0108900D02*
X0025800Y0108900D01*
X0025800Y0110499D02*
X0049842Y0110499D01*
X0051440Y0112097D02*
X0025800Y0112097D01*
X0025800Y0113696D02*
X0052800Y0113696D01*
X0052800Y0115294D02*
X0025800Y0115294D01*
X0025800Y0116893D02*
X0052800Y0116893D01*
X0052800Y0118491D02*
X0025800Y0118491D01*
X0025800Y0120090D02*
X0052800Y0120090D01*
X0052800Y0121688D02*
X0025800Y0121688D01*
X0025800Y0123287D02*
X0052800Y0123287D01*
X0052800Y0124885D02*
X0025800Y0124885D01*
X0025800Y0126484D02*
X0048914Y0126484D01*
X0047315Y0128082D02*
X0044305Y0128082D01*
X0045903Y0129681D02*
X0046000Y0129681D01*
X0041800Y0129681D02*
X0041800Y0129681D01*
X0041800Y0131279D02*
X0041800Y0131279D01*
X0041800Y0131800D02*
X0041800Y0131800D01*
X0041800Y0131800D01*
X0037400Y0131800D01*
X0037400Y0133623D01*
X0039977Y0136200D01*
X0041800Y0136200D01*
X0041800Y0131800D01*
X0041800Y0127400D01*
X0039977Y0127400D01*
X0037400Y0129977D01*
X0037400Y0131800D01*
X0041800Y0131800D01*
X0041800Y0132878D02*
X0041800Y0132878D01*
X0041800Y0134476D02*
X0041800Y0134476D01*
X0041800Y0136075D02*
X0041800Y0136075D01*
X0043748Y0136075D02*
X0047873Y0136075D01*
X0046274Y0134476D02*
X0045346Y0134476D01*
X0039852Y0136075D02*
X0033748Y0136075D01*
X0033623Y0136200D02*
X0031800Y0136200D01*
X0031800Y0131800D01*
X0031800Y0131800D01*
X0036200Y0131800D01*
X0036200Y0133623D01*
X0033623Y0136200D01*
X0031800Y0136200D02*
X0029977Y0136200D01*
X0027400Y0133623D01*
X0027400Y0131800D01*
X0031800Y0131800D01*
X0031800Y0131800D01*
X0031800Y0131800D01*
X0031800Y0136200D01*
X0031800Y0136075D02*
X0031800Y0136075D01*
X0031800Y0134476D02*
X0031800Y0134476D01*
X0031800Y0132878D02*
X0031800Y0132878D01*
X0031800Y0131800D02*
X0027400Y0131800D01*
X0027400Y0129977D01*
X0029977Y0127400D01*
X0031800Y0127400D01*
X0033623Y0127400D01*
X0036200Y0129977D01*
X0036200Y0131800D01*
X0031800Y0131800D01*
X0031800Y0127400D01*
X0031800Y0131800D01*
X0031800Y0131800D01*
X0031800Y0131279D02*
X0031800Y0131279D01*
X0031800Y0129681D02*
X0031800Y0129681D01*
X0031800Y0128082D02*
X0031800Y0128082D01*
X0034305Y0128082D02*
X0039295Y0128082D01*
X0037697Y0129681D02*
X0035903Y0129681D01*
X0036200Y0131279D02*
X0037400Y0131279D01*
X0037400Y0132878D02*
X0036200Y0132878D01*
X0035346Y0134476D02*
X0038254Y0134476D01*
X0041800Y0128082D02*
X0041800Y0128082D01*
X0029295Y0128082D02*
X0025800Y0128082D01*
X0025800Y0129681D02*
X0027697Y0129681D01*
X0027400Y0131279D02*
X0025800Y0131279D01*
X0025800Y0132878D02*
X0027400Y0132878D01*
X0028254Y0134476D02*
X0025800Y0134476D01*
X0025800Y0136075D02*
X0029852Y0136075D01*
X0025800Y0137673D02*
X0052800Y0137673D01*
X0052800Y0139272D02*
X0025800Y0139272D01*
X0025800Y0140870D02*
X0052800Y0140870D01*
X0052800Y0142469D02*
X0025800Y0142469D01*
X0025800Y0144068D02*
X0052800Y0144068D01*
X0052800Y0145666D02*
X0026323Y0145666D01*
X0027921Y0147265D02*
X0042020Y0147265D01*
X0040421Y0148863D02*
X0029520Y0148863D01*
X0031118Y0150462D02*
X0038823Y0150462D01*
X0038275Y0152060D02*
X0032717Y0152060D01*
X0034315Y0153659D02*
X0038275Y0153659D01*
X0038275Y0155257D02*
X0035914Y0155257D01*
X0037512Y0156856D02*
X0038550Y0156856D01*
X0039111Y0158454D02*
X0040149Y0158454D01*
X0040709Y0160053D02*
X0041747Y0160053D01*
X0042308Y0161651D02*
X0044278Y0161651D01*
X0050040Y0158265D02*
X0050860Y0158265D01*
X0050450Y0157855D01*
X0050040Y0158265D01*
X0055490Y0160520D02*
X0056890Y0161920D01*
X0058290Y0160520D01*
X0055490Y0160520D01*
X0056622Y0161651D02*
X0057158Y0161651D01*
X0064227Y0169644D02*
X0067393Y0169644D01*
X0068991Y0171242D02*
X0053709Y0171242D01*
X0047191Y0171242D02*
X0006600Y0171242D01*
X0006600Y0169644D02*
X0014321Y0169644D01*
X0011183Y0168045D02*
X0006600Y0168045D01*
X0006600Y0166447D02*
X0009578Y0166447D01*
X0008478Y0164848D02*
X0006600Y0164848D01*
X0006600Y0163250D02*
X0007652Y0163250D01*
X0007224Y0161651D02*
X0006600Y0161651D01*
X0006600Y0160053D02*
X0007000Y0160053D01*
X0007000Y0158454D02*
X0006600Y0158454D01*
X0006600Y0156856D02*
X0007299Y0156856D01*
X0007728Y0155257D02*
X0006600Y0155257D01*
X0006600Y0153659D02*
X0008641Y0153659D01*
X0009861Y0152060D02*
X0006600Y0152060D01*
X0006600Y0150462D02*
X0011673Y0150462D01*
X0015377Y0148863D02*
X0006600Y0148863D01*
X0006600Y0147265D02*
X0017800Y0147265D01*
X0017800Y0145666D02*
X0006600Y0145666D01*
X0006600Y0144068D02*
X0017800Y0144068D01*
X0017800Y0142469D02*
X0006600Y0142469D01*
X0006600Y0140870D02*
X0017800Y0140870D01*
X0017800Y0139272D02*
X0006600Y0139272D01*
X0006600Y0137673D02*
X0017800Y0137673D01*
X0017800Y0136075D02*
X0006600Y0136075D01*
X0006600Y0134476D02*
X0017800Y0134476D01*
X0017800Y0132878D02*
X0006600Y0132878D01*
X0006600Y0131279D02*
X0017800Y0131279D01*
X0017800Y0129681D02*
X0006600Y0129681D01*
X0006600Y0128082D02*
X0017800Y0128082D01*
X0017800Y0126484D02*
X0006600Y0126484D01*
X0006600Y0124885D02*
X0017800Y0124885D01*
X0017800Y0123287D02*
X0006600Y0123287D01*
X0006600Y0121688D02*
X0017800Y0121688D01*
X0017800Y0120090D02*
X0006600Y0120090D01*
X0006600Y0118491D02*
X0017800Y0118491D01*
X0017800Y0116893D02*
X0006600Y0116893D01*
X0006600Y0115294D02*
X0017800Y0115294D01*
X0017800Y0113696D02*
X0006600Y0113696D01*
X0006600Y0112097D02*
X0017800Y0112097D01*
X0017800Y0110499D02*
X0006600Y0110499D01*
X0006600Y0108900D02*
X0017800Y0108900D01*
X0017800Y0107302D02*
X0006600Y0107302D01*
X0006600Y0105703D02*
X0017800Y0105703D01*
X0017800Y0104105D02*
X0006600Y0104105D01*
X0006600Y0102506D02*
X0017800Y0102506D01*
X0017800Y0100908D02*
X0006600Y0100908D01*
X0006600Y0099309D02*
X0017800Y0099309D01*
X0017800Y0097711D02*
X0006600Y0097711D01*
X0006600Y0096112D02*
X0017800Y0096112D01*
X0017800Y0094514D02*
X0006600Y0094514D01*
X0006600Y0092915D02*
X0017800Y0092915D01*
X0017800Y0091317D02*
X0006600Y0091317D01*
X0006600Y0089718D02*
X0017800Y0089718D01*
X0017800Y0088120D02*
X0006600Y0088120D01*
X0006600Y0086521D02*
X0017800Y0086521D01*
X0017800Y0084923D02*
X0006600Y0084923D01*
X0006600Y0083324D02*
X0017800Y0083324D01*
X0017800Y0081726D02*
X0006600Y0081726D01*
X0006600Y0080127D02*
X0017800Y0080127D01*
X0017800Y0078529D02*
X0006600Y0078529D01*
X0006600Y0076930D02*
X0017800Y0076930D01*
X0017800Y0075332D02*
X0006600Y0075332D01*
X0006600Y0073733D02*
X0017800Y0073733D01*
X0017800Y0072134D02*
X0006600Y0072134D01*
X0006600Y0070536D02*
X0017800Y0070536D01*
X0017800Y0068937D02*
X0006600Y0068937D01*
X0006600Y0067339D02*
X0017800Y0067339D01*
X0017800Y0065740D02*
X0006600Y0065740D01*
X0006600Y0064142D02*
X0017800Y0064142D01*
X0017800Y0062543D02*
X0006600Y0062543D01*
X0006600Y0060945D02*
X0017800Y0060945D01*
X0017800Y0059346D02*
X0006600Y0059346D01*
X0006600Y0057748D02*
X0017800Y0057748D01*
X0017800Y0056149D02*
X0006600Y0056149D01*
X0006600Y0054551D02*
X0017800Y0054551D01*
X0017800Y0052952D02*
X0006600Y0052952D01*
X0006600Y0051354D02*
X0017800Y0051354D01*
X0017800Y0049755D02*
X0006600Y0049755D01*
X0006600Y0048157D02*
X0017800Y0048157D01*
X0017800Y0046558D02*
X0006600Y0046558D01*
X0006600Y0044960D02*
X0017800Y0044960D01*
X0017800Y0043361D02*
X0006600Y0043361D01*
X0006600Y0041763D02*
X0017800Y0041763D01*
X0017800Y0040164D02*
X0006600Y0040164D01*
X0006600Y0038566D02*
X0017800Y0038566D01*
X0017800Y0036967D02*
X0006600Y0036967D01*
X0006600Y0035369D02*
X0017800Y0035369D01*
X0017800Y0033770D02*
X0006600Y0033770D01*
X0006600Y0032172D02*
X0017800Y0032172D01*
X0017800Y0030573D02*
X0006600Y0030573D01*
X0006600Y0028975D02*
X0017800Y0028975D01*
X0017800Y0027376D02*
X0006600Y0027376D01*
X0006600Y0025778D02*
X0017800Y0025778D01*
X0017800Y0024179D02*
X0006600Y0024179D01*
X0006600Y0022581D02*
X0017800Y0022581D01*
X0017809Y0020982D02*
X0006600Y0020982D01*
X0006600Y0019384D02*
X0018560Y0019384D01*
X0020158Y0017785D02*
X0006600Y0017785D01*
X0006600Y0016187D02*
X0021757Y0016187D01*
X0023355Y0014588D02*
X0006600Y0014588D01*
X0006600Y0012990D02*
X0025547Y0012990D01*
X0028275Y0020982D02*
X0036177Y0020982D01*
X0036840Y0022581D02*
X0026676Y0022581D01*
X0025800Y0024179D02*
X0038377Y0024179D01*
X0038847Y0033770D02*
X0044752Y0033770D01*
X0042429Y0035369D02*
X0041171Y0035369D01*
X0034752Y0033770D02*
X0025800Y0033770D01*
X0025800Y0032172D02*
X0052800Y0032172D01*
X0052800Y0033770D02*
X0048847Y0033770D01*
X0051171Y0035369D02*
X0052429Y0035369D01*
X0056800Y0031800D02*
X0061800Y0026800D01*
X0061800Y0016800D01*
X0056686Y0011391D02*
X0055198Y0011391D01*
X0066800Y0022485D02*
X0066717Y0022685D01*
X0065800Y0023602D01*
X0065800Y0027596D01*
X0065191Y0029066D01*
X0064066Y0030191D01*
X0060800Y0033457D01*
X0060800Y0034998D01*
X0061717Y0035915D01*
X0061800Y0036115D01*
X0061883Y0035915D01*
X0063515Y0034283D01*
X0065646Y0033400D01*
X0067800Y0033400D01*
X0067800Y0023602D01*
X0066883Y0022685D01*
X0066800Y0022485D01*
X0066760Y0022581D02*
X0066840Y0022581D01*
X0067800Y0024179D02*
X0065800Y0024179D01*
X0065800Y0025778D02*
X0067800Y0025778D01*
X0067800Y0027376D02*
X0065800Y0027376D01*
X0065229Y0028975D02*
X0067800Y0028975D01*
X0067800Y0030573D02*
X0063684Y0030573D01*
X0062085Y0032172D02*
X0067800Y0032172D01*
X0064752Y0033770D02*
X0060800Y0033770D01*
X0061171Y0035369D02*
X0062429Y0035369D01*
X0056800Y0031800D02*
X0056800Y0041800D01*
X0046800Y0041800D01*
X0042354Y0048157D02*
X0041246Y0048157D01*
X0039027Y0049755D02*
X0044573Y0049755D01*
X0045637Y0052952D02*
X0035800Y0052952D01*
X0035800Y0051354D02*
X0062800Y0051354D01*
X0062800Y0049755D02*
X0059027Y0049755D01*
X0061246Y0048157D02*
X0062354Y0048157D01*
X0066800Y0041800D02*
X0066800Y0056800D01*
X0071800Y0061800D01*
X0071800Y0091800D01*
X0075800Y0087598D02*
X0076800Y0088598D01*
X0077800Y0087598D01*
X0077800Y0080200D01*
X0075800Y0080200D01*
X0075800Y0087598D01*
X0076322Y0088120D02*
X0077278Y0088120D01*
X0077800Y0086521D02*
X0075800Y0086521D01*
X0075800Y0084923D02*
X0077800Y0084923D01*
X0077800Y0083324D02*
X0075800Y0083324D01*
X0075800Y0081726D02*
X0077800Y0081726D01*
X0085800Y0081726D02*
X0087800Y0081726D01*
X0087800Y0080200D02*
X0085800Y0080200D01*
X0085800Y0087598D01*
X0086800Y0088598D01*
X0087800Y0087598D01*
X0087800Y0080200D01*
X0087800Y0083324D02*
X0085800Y0083324D01*
X0085800Y0084923D02*
X0087800Y0084923D01*
X0087800Y0086521D02*
X0085800Y0086521D01*
X0086322Y0088120D02*
X0087278Y0088120D01*
X0081800Y0091800D02*
X0081800Y0056800D01*
X0076800Y0051800D01*
X0076800Y0041800D01*
X0081800Y0047485D02*
X0081717Y0047685D01*
X0080800Y0048602D01*
X0080800Y0050143D01*
X0082800Y0052143D01*
X0082800Y0051004D01*
X0082800Y0048602D01*
X0081883Y0047685D01*
X0081800Y0047485D01*
X0081246Y0048157D02*
X0082354Y0048157D01*
X0082800Y0049755D02*
X0080800Y0049755D01*
X0082011Y0051354D02*
X0082800Y0051354D01*
X0085800Y0056457D02*
X0085800Y0063400D01*
X0087800Y0063400D01*
X0087800Y0058457D01*
X0085800Y0056457D01*
X0085800Y0057748D02*
X0087091Y0057748D01*
X0087800Y0059346D02*
X0085800Y0059346D01*
X0085800Y0060945D02*
X0087800Y0060945D01*
X0087800Y0062543D02*
X0085800Y0062543D01*
X0076800Y0061800D02*
X0076800Y0071800D01*
X0066800Y0071800D02*
X0066800Y0061800D01*
X0061800Y0056800D01*
X0046800Y0056800D01*
X0041800Y0061800D01*
X0041800Y0091800D01*
X0037910Y0096112D02*
X0035690Y0096112D01*
X0035800Y0080127D02*
X0037800Y0080127D01*
X0036800Y0078529D02*
X0036800Y0078529D01*
X0036800Y0076930D02*
X0036800Y0076930D01*
X0036800Y0075332D02*
X0036800Y0075332D01*
X0036800Y0073733D02*
X0036800Y0073733D01*
X0036800Y0072134D02*
X0036800Y0072134D01*
X0036800Y0070536D02*
X0036800Y0070536D01*
X0036800Y0068937D02*
X0036800Y0068937D01*
X0036800Y0067339D02*
X0036800Y0067339D01*
X0036800Y0065740D02*
X0036800Y0065740D01*
X0035800Y0064142D02*
X0037800Y0064142D01*
X0037800Y0062543D02*
X0035800Y0062543D01*
X0035800Y0060945D02*
X0037825Y0060945D01*
X0038597Y0059346D02*
X0035800Y0059346D01*
X0035800Y0057748D02*
X0040195Y0057748D01*
X0041794Y0056149D02*
X0035800Y0056149D01*
X0035800Y0054551D02*
X0043392Y0054551D01*
X0049027Y0049755D02*
X0054573Y0049755D01*
X0052354Y0048157D02*
X0051246Y0048157D01*
X0048457Y0060800D02*
X0045857Y0063400D01*
X0047954Y0063400D01*
X0050085Y0064283D01*
X0051717Y0065915D01*
X0051800Y0066115D01*
X0051883Y0065915D01*
X0053515Y0064283D01*
X0055646Y0063400D01*
X0057954Y0063400D01*
X0060085Y0064283D01*
X0061717Y0065915D01*
X0061800Y0066115D01*
X0061883Y0065915D01*
X0062800Y0064998D01*
X0062800Y0063457D01*
X0060143Y0060800D01*
X0048457Y0060800D01*
X0048312Y0060945D02*
X0060288Y0060945D01*
X0061887Y0062543D02*
X0046713Y0062543D01*
X0049745Y0064142D02*
X0053855Y0064142D01*
X0052057Y0065740D02*
X0051543Y0065740D01*
X0059745Y0064142D02*
X0062800Y0064142D01*
X0062057Y0065740D02*
X0061543Y0065740D01*
X0071800Y0056800D02*
X0076800Y0061800D01*
X0071800Y0056800D02*
X0071800Y0016800D01*
X0057165Y0025778D02*
X0025800Y0025778D01*
X0025800Y0027376D02*
X0055567Y0027376D01*
X0053968Y0028975D02*
X0025800Y0028975D01*
X0025800Y0030573D02*
X0052979Y0030573D01*
X0032429Y0035369D02*
X0025800Y0035369D01*
X0025800Y0036967D02*
X0031447Y0036967D01*
X0031000Y0038566D02*
X0025800Y0038566D01*
X0025800Y0040164D02*
X0031000Y0040164D01*
X0036686Y0011391D02*
X0006690Y0011391D01*
X0007265Y0009793D02*
X0038005Y0009793D01*
X0110800Y0041763D02*
X0147800Y0041763D01*
X0147800Y0043361D02*
X0110800Y0043361D01*
X0110800Y0044960D02*
X0147800Y0044960D01*
X0147800Y0046558D02*
X0110800Y0046558D01*
X0110800Y0048157D02*
X0147800Y0048157D01*
X0147800Y0049755D02*
X0110800Y0049755D01*
X0110800Y0051354D02*
X0147800Y0051354D01*
X0147800Y0052952D02*
X0110800Y0052952D01*
X0110800Y0054551D02*
X0147800Y0054551D01*
X0147800Y0056149D02*
X0110800Y0056149D01*
X0110800Y0057748D02*
X0147800Y0057748D01*
X0147800Y0059346D02*
X0110800Y0059346D01*
X0110800Y0060945D02*
X0147800Y0060945D01*
X0147800Y0062543D02*
X0110800Y0062543D01*
X0110800Y0064142D02*
X0147800Y0064142D01*
X0147800Y0065740D02*
X0110800Y0065740D01*
X0110800Y0067339D02*
X0147800Y0067339D01*
X0147800Y0068937D02*
X0110800Y0068937D01*
X0110800Y0070536D02*
X0147800Y0070536D01*
X0147800Y0072134D02*
X0110800Y0072134D01*
X0110800Y0073733D02*
X0147800Y0073733D01*
X0147800Y0075332D02*
X0110800Y0075332D01*
X0110800Y0076930D02*
X0147800Y0076930D01*
X0147800Y0078529D02*
X0110800Y0078529D01*
X0110800Y0080127D02*
X0147800Y0080127D01*
X0155800Y0080127D02*
X0157800Y0080127D01*
X0157800Y0078529D02*
X0155800Y0078529D01*
X0155800Y0076930D02*
X0157800Y0076930D01*
X0157800Y0075332D02*
X0155800Y0075332D01*
X0155800Y0073733D02*
X0157800Y0073733D01*
X0157800Y0072134D02*
X0155800Y0072134D01*
X0155800Y0070536D02*
X0157800Y0070536D01*
X0157800Y0068937D02*
X0155800Y0068937D01*
X0155800Y0067339D02*
X0157800Y0067339D01*
X0157800Y0065740D02*
X0155800Y0065740D01*
X0155800Y0064142D02*
X0157800Y0064142D01*
X0157800Y0062543D02*
X0155800Y0062543D01*
X0155800Y0060945D02*
X0157800Y0060945D01*
X0157800Y0059346D02*
X0155800Y0059346D01*
X0155800Y0057748D02*
X0157800Y0057748D01*
X0157800Y0056149D02*
X0155800Y0056149D01*
X0155800Y0054551D02*
X0157800Y0054551D01*
X0157800Y0052952D02*
X0155800Y0052952D01*
X0155800Y0051354D02*
X0157800Y0051354D01*
X0157800Y0049755D02*
X0155800Y0049755D01*
X0155800Y0048157D02*
X0157800Y0048157D01*
X0157800Y0046558D02*
X0155800Y0046558D01*
X0155800Y0044960D02*
X0158233Y0044960D01*
X0159582Y0043361D02*
X0155800Y0043361D01*
X0155800Y0041763D02*
X0161000Y0041763D01*
X0161000Y0040164D02*
X0155800Y0040164D01*
X0155800Y0038566D02*
X0161000Y0038566D01*
X0161447Y0036967D02*
X0155800Y0036967D01*
X0155800Y0035369D02*
X0162429Y0035369D01*
X0164752Y0033770D02*
X0155800Y0033770D01*
X0155800Y0032172D02*
X0182800Y0032172D01*
X0182979Y0030573D02*
X0155800Y0030573D01*
X0155800Y0028975D02*
X0183968Y0028975D01*
X0185567Y0027376D02*
X0155800Y0027376D01*
X0155800Y0025778D02*
X0187165Y0025778D01*
X0187800Y0024179D02*
X0175223Y0024179D01*
X0176760Y0022581D02*
X0178758Y0022581D01*
X0177688Y0020982D02*
X0177423Y0020982D01*
X0181800Y0020982D02*
X0181800Y0020982D01*
X0181800Y0019384D02*
X0181800Y0019384D01*
X0181800Y0017785D02*
X0181800Y0017785D01*
X0181800Y0016187D02*
X0181800Y0016187D01*
X0181800Y0014588D02*
X0181800Y0014588D01*
X0181800Y0012990D02*
X0181800Y0012990D01*
X0181800Y0011391D02*
X0181800Y0011391D01*
X0178402Y0011391D02*
X0176914Y0011391D01*
X0175595Y0009793D02*
X0188005Y0009793D01*
X0186686Y0011391D02*
X0185198Y0011391D01*
X0191800Y0016800D02*
X0191800Y0026800D01*
X0186840Y0022581D02*
X0184842Y0022581D01*
X0185912Y0020982D02*
X0186177Y0020982D01*
X0181800Y0022581D02*
X0181800Y0022581D01*
X0171800Y0016800D02*
X0156800Y0016800D01*
X0151800Y0021800D01*
X0151800Y0146800D01*
X0112321Y0169644D02*
X0094613Y0169644D01*
X0096212Y0168045D02*
X0109183Y0168045D01*
X0107578Y0166447D02*
X0097810Y0166447D01*
X0099409Y0164848D02*
X0106478Y0164848D01*
X0105652Y0163250D02*
X0101007Y0163250D01*
X0102606Y0161651D02*
X0105224Y0161651D01*
X0105000Y0160053D02*
X0104204Y0160053D01*
X0097686Y0155257D02*
X0095325Y0155257D01*
X0095325Y0153659D02*
X0099285Y0153659D01*
X0100883Y0152060D02*
X0095325Y0152060D01*
X0094777Y0150462D02*
X0102482Y0150462D01*
X0102800Y0148863D02*
X0093179Y0148863D01*
X0091580Y0147265D02*
X0102800Y0147265D01*
X0102800Y0145666D02*
X0090800Y0145666D01*
X0090800Y0144068D02*
X0102800Y0144068D01*
X0088600Y0153600D02*
X0086800Y0151800D01*
X0086800Y0111800D01*
X0081800Y0106800D01*
X0081800Y0091800D01*
X0077800Y0096112D02*
X0075690Y0096112D01*
X0067910Y0096112D02*
X0065690Y0096112D01*
X0056800Y0111800D02*
X0056800Y0151800D01*
X0055900Y0152700D01*
X0055900Y0153795D01*
X0060800Y0149184D02*
X0061350Y0149734D01*
X0064014Y0147070D01*
X0069586Y0147070D01*
X0072250Y0149734D01*
X0072800Y0149184D01*
X0072800Y0137600D01*
X0069398Y0137600D01*
X0067598Y0135800D01*
X0066002Y0135800D01*
X0064202Y0137600D01*
X0060800Y0137600D01*
X0060800Y0149184D01*
X0060800Y0148863D02*
X0062221Y0148863D01*
X0060800Y0147265D02*
X0063820Y0147265D01*
X0060800Y0145666D02*
X0072800Y0145666D01*
X0072800Y0144068D02*
X0060800Y0144068D01*
X0060800Y0142469D02*
X0072800Y0142469D01*
X0072800Y0140870D02*
X0060800Y0140870D01*
X0060800Y0139272D02*
X0072800Y0139272D01*
X0072800Y0137673D02*
X0060800Y0137673D01*
X0065727Y0136075D02*
X0067873Y0136075D01*
X0071800Y0131800D02*
X0061800Y0131800D01*
X0069780Y0147265D02*
X0072800Y0147265D01*
X0072800Y0148863D02*
X0071379Y0148863D01*
X0080800Y0147384D02*
X0082800Y0149384D01*
X0082800Y0137600D01*
X0080800Y0137600D01*
X0080800Y0147384D01*
X0080800Y0147265D02*
X0082800Y0147265D01*
X0082800Y0148863D02*
X0082279Y0148863D01*
X0082800Y0145666D02*
X0080800Y0145666D01*
X0080800Y0144068D02*
X0082800Y0144068D01*
X0082800Y0142469D02*
X0080800Y0142469D01*
X0080800Y0140870D02*
X0082800Y0140870D01*
X0082800Y0139272D02*
X0080800Y0139272D01*
X0080800Y0137673D02*
X0082800Y0137673D01*
X0088600Y0153600D02*
X0088600Y0153795D01*
X0093451Y0158454D02*
X0094489Y0158454D01*
X0095050Y0156856D02*
X0096088Y0156856D01*
X0092891Y0160053D02*
X0091853Y0160053D01*
X0091292Y0161651D02*
X0089322Y0161651D01*
X0079891Y0171242D02*
X0075509Y0171242D01*
X0077107Y0169644D02*
X0078293Y0169644D01*
X0052800Y0147265D02*
X0047980Y0147265D01*
X0049579Y0148863D02*
X0051321Y0148863D01*
X0034191Y0164848D02*
X0027122Y0164848D01*
X0027948Y0163250D02*
X0032593Y0163250D01*
X0030994Y0161651D02*
X0028376Y0161651D01*
X0028600Y0160053D02*
X0029396Y0160053D01*
X0026022Y0166447D02*
X0035790Y0166447D01*
X0037388Y0168045D02*
X0024417Y0168045D01*
X0021279Y0169644D02*
X0038987Y0169644D01*
X0095690Y0096112D02*
X0097910Y0096112D01*
X0155800Y0096112D02*
X0157910Y0096112D01*
X0156311Y0094514D02*
X0155800Y0094514D01*
X0155800Y0092915D02*
X0156000Y0092915D01*
X0156000Y0091317D02*
X0155800Y0091317D01*
X0155800Y0089718D02*
X0156000Y0089718D01*
X0155800Y0088120D02*
X0157278Y0088120D01*
X0157800Y0086521D02*
X0155800Y0086521D01*
X0155800Y0084923D02*
X0157800Y0084923D01*
X0157800Y0083324D02*
X0155800Y0083324D01*
X0155800Y0081726D02*
X0157800Y0081726D01*
X0175800Y0081726D02*
X0176218Y0081726D01*
X0175800Y0082143D02*
X0177743Y0080200D01*
X0175800Y0080200D01*
X0175800Y0082143D01*
X0186800Y0076800D02*
X0186800Y0071800D01*
X0191800Y0066115D02*
X0191883Y0065915D01*
X0192800Y0064998D01*
X0192800Y0063457D01*
X0190143Y0060800D01*
X0178457Y0060800D01*
X0175857Y0063400D01*
X0177954Y0063400D01*
X0180085Y0064283D01*
X0181717Y0065915D01*
X0181800Y0066115D01*
X0181883Y0065915D01*
X0183515Y0064283D01*
X0185646Y0063400D01*
X0187954Y0063400D01*
X0190085Y0064283D01*
X0191717Y0065915D01*
X0191800Y0066115D01*
X0191543Y0065740D02*
X0192057Y0065740D01*
X0192800Y0064142D02*
X0189745Y0064142D01*
X0191887Y0062543D02*
X0176713Y0062543D01*
X0178312Y0060945D02*
X0190288Y0060945D01*
X0191800Y0056800D02*
X0176800Y0056800D01*
X0179745Y0064142D02*
X0183855Y0064142D01*
X0182057Y0065740D02*
X0181543Y0065740D01*
X0191800Y0056800D02*
X0196800Y0061800D01*
X0196800Y0071800D01*
X0206800Y0071800D02*
X0206800Y0061800D01*
X0201800Y0056800D01*
X0201800Y0016800D01*
X0205595Y0009793D02*
X0208005Y0009793D01*
X0215595Y0009793D02*
X0218005Y0009793D01*
X0198005Y0009793D02*
X0195595Y0009793D01*
X0168377Y0024179D02*
X0155800Y0024179D01*
X0156676Y0022581D02*
X0166840Y0022581D01*
X0166177Y0020982D02*
X0158275Y0020982D01*
X0206800Y0041800D02*
X0206800Y0051800D01*
X0215800Y0056457D02*
X0215800Y0063400D01*
X0217800Y0063400D01*
X0217800Y0058457D01*
X0215800Y0056457D01*
X0215800Y0057748D02*
X0217091Y0057748D01*
X0217800Y0059346D02*
X0215800Y0059346D01*
X0215800Y0060945D02*
X0217800Y0060945D01*
X0217800Y0062543D02*
X0215800Y0062543D01*
X0231800Y0081800D02*
X0231800Y0091800D01*
X0227910Y0096112D02*
X0225690Y0096112D01*
X0240800Y0142469D02*
X0242007Y0142469D01*
X0232482Y0150462D02*
X0224777Y0150462D01*
X0225325Y0152060D02*
X0230883Y0152060D01*
X0229285Y0153659D02*
X0225325Y0153659D01*
M02*
