G75*
%MOIN*%
%OFA0B0*%
%FSLAX25Y25*%
%IPPOS*%
%LPD*%
%AMOC8*
5,1,8,0,0,1.08239X$1,22.5*
%
%ADD10C,0.00000*%
%ADD11C,0.05200*%
%ADD12OC8,0.05200*%
%ADD13OC8,0.07050*%
%ADD14C,0.05600*%
%ADD15C,0.01600*%
D10*
X0013099Y0001800D02*
X0251800Y0001800D01*
X0252042Y0001803D01*
X0252283Y0001812D01*
X0252524Y0001826D01*
X0252765Y0001847D01*
X0253005Y0001873D01*
X0253245Y0001905D01*
X0253484Y0001943D01*
X0253721Y0001986D01*
X0253958Y0002036D01*
X0254193Y0002091D01*
X0254427Y0002151D01*
X0254659Y0002218D01*
X0254890Y0002289D01*
X0255119Y0002367D01*
X0255346Y0002450D01*
X0255571Y0002538D01*
X0255794Y0002632D01*
X0256014Y0002731D01*
X0256232Y0002836D01*
X0256447Y0002945D01*
X0256660Y0003060D01*
X0256870Y0003180D01*
X0257076Y0003305D01*
X0257280Y0003435D01*
X0257481Y0003570D01*
X0257678Y0003710D01*
X0257872Y0003854D01*
X0258062Y0004003D01*
X0258248Y0004157D01*
X0258431Y0004315D01*
X0258610Y0004477D01*
X0258785Y0004644D01*
X0258956Y0004815D01*
X0259123Y0004990D01*
X0259285Y0005169D01*
X0259443Y0005352D01*
X0259597Y0005538D01*
X0259746Y0005728D01*
X0259890Y0005922D01*
X0260030Y0006119D01*
X0260165Y0006320D01*
X0260295Y0006524D01*
X0260420Y0006730D01*
X0260540Y0006940D01*
X0260655Y0007153D01*
X0260764Y0007368D01*
X0260869Y0007586D01*
X0260968Y0007806D01*
X0261062Y0008029D01*
X0261150Y0008254D01*
X0261233Y0008481D01*
X0261311Y0008710D01*
X0261382Y0008941D01*
X0261449Y0009173D01*
X0261509Y0009407D01*
X0261564Y0009642D01*
X0261614Y0009879D01*
X0261657Y0010116D01*
X0261695Y0010355D01*
X0261727Y0010595D01*
X0261753Y0010835D01*
X0261774Y0011076D01*
X0261788Y0011317D01*
X0261797Y0011558D01*
X0261800Y0011800D01*
X0261800Y0191721D01*
X0261797Y0191963D01*
X0261788Y0192204D01*
X0261774Y0192445D01*
X0261753Y0192686D01*
X0261727Y0192926D01*
X0261695Y0193166D01*
X0261657Y0193405D01*
X0261614Y0193642D01*
X0261564Y0193879D01*
X0261509Y0194114D01*
X0261449Y0194348D01*
X0261382Y0194580D01*
X0261311Y0194811D01*
X0261233Y0195040D01*
X0261150Y0195267D01*
X0261062Y0195492D01*
X0260968Y0195715D01*
X0260869Y0195935D01*
X0260764Y0196153D01*
X0260655Y0196368D01*
X0260540Y0196581D01*
X0260420Y0196791D01*
X0260295Y0196997D01*
X0260165Y0197201D01*
X0260030Y0197402D01*
X0259890Y0197599D01*
X0259746Y0197793D01*
X0259597Y0197983D01*
X0259443Y0198169D01*
X0259285Y0198352D01*
X0259123Y0198531D01*
X0258956Y0198706D01*
X0258785Y0198877D01*
X0258610Y0199044D01*
X0258431Y0199206D01*
X0258248Y0199364D01*
X0258062Y0199518D01*
X0257872Y0199667D01*
X0257678Y0199811D01*
X0257481Y0199951D01*
X0257280Y0200086D01*
X0257076Y0200216D01*
X0256870Y0200341D01*
X0256660Y0200461D01*
X0256447Y0200576D01*
X0256232Y0200685D01*
X0256014Y0200790D01*
X0255794Y0200889D01*
X0255571Y0200983D01*
X0255346Y0201071D01*
X0255119Y0201154D01*
X0254890Y0201232D01*
X0254659Y0201303D01*
X0254427Y0201370D01*
X0254193Y0201430D01*
X0253958Y0201485D01*
X0253721Y0201535D01*
X0253484Y0201578D01*
X0253245Y0201616D01*
X0253005Y0201648D01*
X0252765Y0201674D01*
X0252524Y0201695D01*
X0252283Y0201709D01*
X0252042Y0201718D01*
X0251800Y0201721D01*
X0013099Y0201721D01*
X0013099Y0201722D02*
X0012838Y0201735D01*
X0012578Y0201743D01*
X0012317Y0201744D01*
X0012056Y0201738D01*
X0011795Y0201726D01*
X0011535Y0201708D01*
X0011275Y0201683D01*
X0011016Y0201652D01*
X0010757Y0201615D01*
X0010500Y0201571D01*
X0010244Y0201521D01*
X0009989Y0201465D01*
X0009736Y0201402D01*
X0009484Y0201334D01*
X0009234Y0201259D01*
X0008986Y0201178D01*
X0008740Y0201091D01*
X0008496Y0200998D01*
X0008255Y0200898D01*
X0008016Y0200794D01*
X0007780Y0200683D01*
X0007546Y0200566D01*
X0007315Y0200444D01*
X0007088Y0200316D01*
X0006864Y0200183D01*
X0006643Y0200044D01*
X0006425Y0199900D01*
X0006211Y0199750D01*
X0006001Y0199596D01*
X0005795Y0199436D01*
X0005593Y0199271D01*
X0005394Y0199101D01*
X0005200Y0198926D01*
X0005011Y0198747D01*
X0004826Y0198563D01*
X0004645Y0198375D01*
X0004469Y0198182D01*
X0004298Y0197985D01*
X0004132Y0197784D01*
X0003970Y0197579D01*
X0003814Y0197370D01*
X0003663Y0197157D01*
X0003517Y0196940D01*
X0003377Y0196720D01*
X0003242Y0196497D01*
X0003113Y0196270D01*
X0002989Y0196041D01*
X0002871Y0195808D01*
X0002758Y0195573D01*
X0002652Y0195334D01*
X0002551Y0195094D01*
X0002456Y0194850D01*
X0002367Y0194605D01*
X0002285Y0194358D01*
X0002208Y0194108D01*
X0002138Y0193857D01*
X0002073Y0193604D01*
X0002015Y0193349D01*
X0001963Y0193094D01*
X0001918Y0192837D01*
X0001879Y0192579D01*
X0001846Y0192320D01*
X0001819Y0192060D01*
X0001799Y0191800D01*
X0001800Y0191800D02*
X0001800Y0011800D01*
X0001801Y0011800D02*
X0001820Y0011539D01*
X0001845Y0011279D01*
X0001877Y0011019D01*
X0001916Y0010760D01*
X0001960Y0010502D01*
X0002011Y0010245D01*
X0002069Y0009989D01*
X0002132Y0009735D01*
X0002202Y0009483D01*
X0002278Y0009232D01*
X0002360Y0008984D01*
X0002448Y0008737D01*
X0002542Y0008493D01*
X0002642Y0008251D01*
X0002748Y0008011D01*
X0002860Y0007775D01*
X0002978Y0007541D01*
X0003101Y0007310D01*
X0003230Y0007082D01*
X0003364Y0006857D01*
X0003504Y0006636D01*
X0003650Y0006418D01*
X0003801Y0006204D01*
X0003956Y0005994D01*
X0004117Y0005787D01*
X0004283Y0005585D01*
X0004454Y0005386D01*
X0004630Y0005192D01*
X0004811Y0005002D01*
X0004996Y0004817D01*
X0005185Y0004636D01*
X0005379Y0004461D01*
X0005577Y0004289D01*
X0005780Y0004123D01*
X0005986Y0003962D01*
X0006196Y0003806D01*
X0006410Y0003655D01*
X0006628Y0003510D01*
X0006849Y0003369D01*
X0007074Y0003235D01*
X0007302Y0003105D01*
X0007532Y0002982D01*
X0007766Y0002864D01*
X0008003Y0002752D01*
X0008242Y0002646D01*
X0008484Y0002545D01*
X0008728Y0002451D01*
X0008975Y0002363D01*
X0009223Y0002281D01*
X0009474Y0002204D01*
X0009726Y0002135D01*
X0009980Y0002071D01*
X0010236Y0002013D01*
X0010493Y0001962D01*
X0010751Y0001917D01*
X0011010Y0001879D01*
X0011269Y0001847D01*
X0011530Y0001821D01*
X0011791Y0001801D01*
X0012053Y0001788D01*
X0012314Y0001782D01*
X0012576Y0001782D01*
X0012838Y0001788D01*
X0013100Y0001801D01*
X0011800Y0159395D02*
X0011802Y0159549D01*
X0011808Y0159704D01*
X0011818Y0159858D01*
X0011832Y0160012D01*
X0011850Y0160165D01*
X0011871Y0160318D01*
X0011897Y0160471D01*
X0011927Y0160622D01*
X0011960Y0160773D01*
X0011998Y0160923D01*
X0012039Y0161072D01*
X0012084Y0161220D01*
X0012133Y0161366D01*
X0012186Y0161512D01*
X0012242Y0161655D01*
X0012302Y0161798D01*
X0012366Y0161938D01*
X0012433Y0162078D01*
X0012504Y0162215D01*
X0012578Y0162350D01*
X0012656Y0162484D01*
X0012737Y0162615D01*
X0012822Y0162744D01*
X0012910Y0162872D01*
X0013001Y0162996D01*
X0013095Y0163119D01*
X0013193Y0163239D01*
X0013293Y0163356D01*
X0013397Y0163471D01*
X0013503Y0163583D01*
X0013612Y0163692D01*
X0013724Y0163798D01*
X0013839Y0163902D01*
X0013956Y0164002D01*
X0014076Y0164100D01*
X0014199Y0164194D01*
X0014323Y0164285D01*
X0014451Y0164373D01*
X0014580Y0164458D01*
X0014711Y0164539D01*
X0014845Y0164617D01*
X0014980Y0164691D01*
X0015117Y0164762D01*
X0015257Y0164829D01*
X0015397Y0164893D01*
X0015540Y0164953D01*
X0015683Y0165009D01*
X0015829Y0165062D01*
X0015975Y0165111D01*
X0016123Y0165156D01*
X0016272Y0165197D01*
X0016422Y0165235D01*
X0016573Y0165268D01*
X0016724Y0165298D01*
X0016877Y0165324D01*
X0017030Y0165345D01*
X0017183Y0165363D01*
X0017337Y0165377D01*
X0017491Y0165387D01*
X0017646Y0165393D01*
X0017800Y0165395D01*
X0017954Y0165393D01*
X0018109Y0165387D01*
X0018263Y0165377D01*
X0018417Y0165363D01*
X0018570Y0165345D01*
X0018723Y0165324D01*
X0018876Y0165298D01*
X0019027Y0165268D01*
X0019178Y0165235D01*
X0019328Y0165197D01*
X0019477Y0165156D01*
X0019625Y0165111D01*
X0019771Y0165062D01*
X0019917Y0165009D01*
X0020060Y0164953D01*
X0020203Y0164893D01*
X0020343Y0164829D01*
X0020483Y0164762D01*
X0020620Y0164691D01*
X0020755Y0164617D01*
X0020889Y0164539D01*
X0021020Y0164458D01*
X0021149Y0164373D01*
X0021277Y0164285D01*
X0021401Y0164194D01*
X0021524Y0164100D01*
X0021644Y0164002D01*
X0021761Y0163902D01*
X0021876Y0163798D01*
X0021988Y0163692D01*
X0022097Y0163583D01*
X0022203Y0163471D01*
X0022307Y0163356D01*
X0022407Y0163239D01*
X0022505Y0163119D01*
X0022599Y0162996D01*
X0022690Y0162872D01*
X0022778Y0162744D01*
X0022863Y0162615D01*
X0022944Y0162484D01*
X0023022Y0162350D01*
X0023096Y0162215D01*
X0023167Y0162078D01*
X0023234Y0161938D01*
X0023298Y0161798D01*
X0023358Y0161655D01*
X0023414Y0161512D01*
X0023467Y0161366D01*
X0023516Y0161220D01*
X0023561Y0161072D01*
X0023602Y0160923D01*
X0023640Y0160773D01*
X0023673Y0160622D01*
X0023703Y0160471D01*
X0023729Y0160318D01*
X0023750Y0160165D01*
X0023768Y0160012D01*
X0023782Y0159858D01*
X0023792Y0159704D01*
X0023798Y0159549D01*
X0023800Y0159395D01*
X0023798Y0159241D01*
X0023792Y0159086D01*
X0023782Y0158932D01*
X0023768Y0158778D01*
X0023750Y0158625D01*
X0023729Y0158472D01*
X0023703Y0158319D01*
X0023673Y0158168D01*
X0023640Y0158017D01*
X0023602Y0157867D01*
X0023561Y0157718D01*
X0023516Y0157570D01*
X0023467Y0157424D01*
X0023414Y0157278D01*
X0023358Y0157135D01*
X0023298Y0156992D01*
X0023234Y0156852D01*
X0023167Y0156712D01*
X0023096Y0156575D01*
X0023022Y0156440D01*
X0022944Y0156306D01*
X0022863Y0156175D01*
X0022778Y0156046D01*
X0022690Y0155918D01*
X0022599Y0155794D01*
X0022505Y0155671D01*
X0022407Y0155551D01*
X0022307Y0155434D01*
X0022203Y0155319D01*
X0022097Y0155207D01*
X0021988Y0155098D01*
X0021876Y0154992D01*
X0021761Y0154888D01*
X0021644Y0154788D01*
X0021524Y0154690D01*
X0021401Y0154596D01*
X0021277Y0154505D01*
X0021149Y0154417D01*
X0021020Y0154332D01*
X0020889Y0154251D01*
X0020755Y0154173D01*
X0020620Y0154099D01*
X0020483Y0154028D01*
X0020343Y0153961D01*
X0020203Y0153897D01*
X0020060Y0153837D01*
X0019917Y0153781D01*
X0019771Y0153728D01*
X0019625Y0153679D01*
X0019477Y0153634D01*
X0019328Y0153593D01*
X0019178Y0153555D01*
X0019027Y0153522D01*
X0018876Y0153492D01*
X0018723Y0153466D01*
X0018570Y0153445D01*
X0018417Y0153427D01*
X0018263Y0153413D01*
X0018109Y0153403D01*
X0017954Y0153397D01*
X0017800Y0153395D01*
X0017646Y0153397D01*
X0017491Y0153403D01*
X0017337Y0153413D01*
X0017183Y0153427D01*
X0017030Y0153445D01*
X0016877Y0153466D01*
X0016724Y0153492D01*
X0016573Y0153522D01*
X0016422Y0153555D01*
X0016272Y0153593D01*
X0016123Y0153634D01*
X0015975Y0153679D01*
X0015829Y0153728D01*
X0015683Y0153781D01*
X0015540Y0153837D01*
X0015397Y0153897D01*
X0015257Y0153961D01*
X0015117Y0154028D01*
X0014980Y0154099D01*
X0014845Y0154173D01*
X0014711Y0154251D01*
X0014580Y0154332D01*
X0014451Y0154417D01*
X0014323Y0154505D01*
X0014199Y0154596D01*
X0014076Y0154690D01*
X0013956Y0154788D01*
X0013839Y0154888D01*
X0013724Y0154992D01*
X0013612Y0155098D01*
X0013503Y0155207D01*
X0013397Y0155319D01*
X0013293Y0155434D01*
X0013193Y0155551D01*
X0013095Y0155671D01*
X0013001Y0155794D01*
X0012910Y0155918D01*
X0012822Y0156046D01*
X0012737Y0156175D01*
X0012656Y0156306D01*
X0012578Y0156440D01*
X0012504Y0156575D01*
X0012433Y0156712D01*
X0012366Y0156852D01*
X0012302Y0156992D01*
X0012242Y0157135D01*
X0012186Y0157278D01*
X0012133Y0157424D01*
X0012084Y0157570D01*
X0012039Y0157718D01*
X0011998Y0157867D01*
X0011960Y0158017D01*
X0011927Y0158168D01*
X0011897Y0158319D01*
X0011871Y0158472D01*
X0011850Y0158625D01*
X0011832Y0158778D01*
X0011818Y0158932D01*
X0011808Y0159086D01*
X0011802Y0159241D01*
X0011800Y0159395D01*
X0109800Y0159395D02*
X0109802Y0159549D01*
X0109808Y0159704D01*
X0109818Y0159858D01*
X0109832Y0160012D01*
X0109850Y0160165D01*
X0109871Y0160318D01*
X0109897Y0160471D01*
X0109927Y0160622D01*
X0109960Y0160773D01*
X0109998Y0160923D01*
X0110039Y0161072D01*
X0110084Y0161220D01*
X0110133Y0161366D01*
X0110186Y0161512D01*
X0110242Y0161655D01*
X0110302Y0161798D01*
X0110366Y0161938D01*
X0110433Y0162078D01*
X0110504Y0162215D01*
X0110578Y0162350D01*
X0110656Y0162484D01*
X0110737Y0162615D01*
X0110822Y0162744D01*
X0110910Y0162872D01*
X0111001Y0162996D01*
X0111095Y0163119D01*
X0111193Y0163239D01*
X0111293Y0163356D01*
X0111397Y0163471D01*
X0111503Y0163583D01*
X0111612Y0163692D01*
X0111724Y0163798D01*
X0111839Y0163902D01*
X0111956Y0164002D01*
X0112076Y0164100D01*
X0112199Y0164194D01*
X0112323Y0164285D01*
X0112451Y0164373D01*
X0112580Y0164458D01*
X0112711Y0164539D01*
X0112845Y0164617D01*
X0112980Y0164691D01*
X0113117Y0164762D01*
X0113257Y0164829D01*
X0113397Y0164893D01*
X0113540Y0164953D01*
X0113683Y0165009D01*
X0113829Y0165062D01*
X0113975Y0165111D01*
X0114123Y0165156D01*
X0114272Y0165197D01*
X0114422Y0165235D01*
X0114573Y0165268D01*
X0114724Y0165298D01*
X0114877Y0165324D01*
X0115030Y0165345D01*
X0115183Y0165363D01*
X0115337Y0165377D01*
X0115491Y0165387D01*
X0115646Y0165393D01*
X0115800Y0165395D01*
X0115954Y0165393D01*
X0116109Y0165387D01*
X0116263Y0165377D01*
X0116417Y0165363D01*
X0116570Y0165345D01*
X0116723Y0165324D01*
X0116876Y0165298D01*
X0117027Y0165268D01*
X0117178Y0165235D01*
X0117328Y0165197D01*
X0117477Y0165156D01*
X0117625Y0165111D01*
X0117771Y0165062D01*
X0117917Y0165009D01*
X0118060Y0164953D01*
X0118203Y0164893D01*
X0118343Y0164829D01*
X0118483Y0164762D01*
X0118620Y0164691D01*
X0118755Y0164617D01*
X0118889Y0164539D01*
X0119020Y0164458D01*
X0119149Y0164373D01*
X0119277Y0164285D01*
X0119401Y0164194D01*
X0119524Y0164100D01*
X0119644Y0164002D01*
X0119761Y0163902D01*
X0119876Y0163798D01*
X0119988Y0163692D01*
X0120097Y0163583D01*
X0120203Y0163471D01*
X0120307Y0163356D01*
X0120407Y0163239D01*
X0120505Y0163119D01*
X0120599Y0162996D01*
X0120690Y0162872D01*
X0120778Y0162744D01*
X0120863Y0162615D01*
X0120944Y0162484D01*
X0121022Y0162350D01*
X0121096Y0162215D01*
X0121167Y0162078D01*
X0121234Y0161938D01*
X0121298Y0161798D01*
X0121358Y0161655D01*
X0121414Y0161512D01*
X0121467Y0161366D01*
X0121516Y0161220D01*
X0121561Y0161072D01*
X0121602Y0160923D01*
X0121640Y0160773D01*
X0121673Y0160622D01*
X0121703Y0160471D01*
X0121729Y0160318D01*
X0121750Y0160165D01*
X0121768Y0160012D01*
X0121782Y0159858D01*
X0121792Y0159704D01*
X0121798Y0159549D01*
X0121800Y0159395D01*
X0121798Y0159241D01*
X0121792Y0159086D01*
X0121782Y0158932D01*
X0121768Y0158778D01*
X0121750Y0158625D01*
X0121729Y0158472D01*
X0121703Y0158319D01*
X0121673Y0158168D01*
X0121640Y0158017D01*
X0121602Y0157867D01*
X0121561Y0157718D01*
X0121516Y0157570D01*
X0121467Y0157424D01*
X0121414Y0157278D01*
X0121358Y0157135D01*
X0121298Y0156992D01*
X0121234Y0156852D01*
X0121167Y0156712D01*
X0121096Y0156575D01*
X0121022Y0156440D01*
X0120944Y0156306D01*
X0120863Y0156175D01*
X0120778Y0156046D01*
X0120690Y0155918D01*
X0120599Y0155794D01*
X0120505Y0155671D01*
X0120407Y0155551D01*
X0120307Y0155434D01*
X0120203Y0155319D01*
X0120097Y0155207D01*
X0119988Y0155098D01*
X0119876Y0154992D01*
X0119761Y0154888D01*
X0119644Y0154788D01*
X0119524Y0154690D01*
X0119401Y0154596D01*
X0119277Y0154505D01*
X0119149Y0154417D01*
X0119020Y0154332D01*
X0118889Y0154251D01*
X0118755Y0154173D01*
X0118620Y0154099D01*
X0118483Y0154028D01*
X0118343Y0153961D01*
X0118203Y0153897D01*
X0118060Y0153837D01*
X0117917Y0153781D01*
X0117771Y0153728D01*
X0117625Y0153679D01*
X0117477Y0153634D01*
X0117328Y0153593D01*
X0117178Y0153555D01*
X0117027Y0153522D01*
X0116876Y0153492D01*
X0116723Y0153466D01*
X0116570Y0153445D01*
X0116417Y0153427D01*
X0116263Y0153413D01*
X0116109Y0153403D01*
X0115954Y0153397D01*
X0115800Y0153395D01*
X0115646Y0153397D01*
X0115491Y0153403D01*
X0115337Y0153413D01*
X0115183Y0153427D01*
X0115030Y0153445D01*
X0114877Y0153466D01*
X0114724Y0153492D01*
X0114573Y0153522D01*
X0114422Y0153555D01*
X0114272Y0153593D01*
X0114123Y0153634D01*
X0113975Y0153679D01*
X0113829Y0153728D01*
X0113683Y0153781D01*
X0113540Y0153837D01*
X0113397Y0153897D01*
X0113257Y0153961D01*
X0113117Y0154028D01*
X0112980Y0154099D01*
X0112845Y0154173D01*
X0112711Y0154251D01*
X0112580Y0154332D01*
X0112451Y0154417D01*
X0112323Y0154505D01*
X0112199Y0154596D01*
X0112076Y0154690D01*
X0111956Y0154788D01*
X0111839Y0154888D01*
X0111724Y0154992D01*
X0111612Y0155098D01*
X0111503Y0155207D01*
X0111397Y0155319D01*
X0111293Y0155434D01*
X0111193Y0155551D01*
X0111095Y0155671D01*
X0111001Y0155794D01*
X0110910Y0155918D01*
X0110822Y0156046D01*
X0110737Y0156175D01*
X0110656Y0156306D01*
X0110578Y0156440D01*
X0110504Y0156575D01*
X0110433Y0156712D01*
X0110366Y0156852D01*
X0110302Y0156992D01*
X0110242Y0157135D01*
X0110186Y0157278D01*
X0110133Y0157424D01*
X0110084Y0157570D01*
X0110039Y0157718D01*
X0109998Y0157867D01*
X0109960Y0158017D01*
X0109927Y0158168D01*
X0109897Y0158319D01*
X0109871Y0158472D01*
X0109850Y0158625D01*
X0109832Y0158778D01*
X0109818Y0158932D01*
X0109808Y0159086D01*
X0109802Y0159241D01*
X0109800Y0159395D01*
X0141800Y0159395D02*
X0141802Y0159549D01*
X0141808Y0159704D01*
X0141818Y0159858D01*
X0141832Y0160012D01*
X0141850Y0160165D01*
X0141871Y0160318D01*
X0141897Y0160471D01*
X0141927Y0160622D01*
X0141960Y0160773D01*
X0141998Y0160923D01*
X0142039Y0161072D01*
X0142084Y0161220D01*
X0142133Y0161366D01*
X0142186Y0161512D01*
X0142242Y0161655D01*
X0142302Y0161798D01*
X0142366Y0161938D01*
X0142433Y0162078D01*
X0142504Y0162215D01*
X0142578Y0162350D01*
X0142656Y0162484D01*
X0142737Y0162615D01*
X0142822Y0162744D01*
X0142910Y0162872D01*
X0143001Y0162996D01*
X0143095Y0163119D01*
X0143193Y0163239D01*
X0143293Y0163356D01*
X0143397Y0163471D01*
X0143503Y0163583D01*
X0143612Y0163692D01*
X0143724Y0163798D01*
X0143839Y0163902D01*
X0143956Y0164002D01*
X0144076Y0164100D01*
X0144199Y0164194D01*
X0144323Y0164285D01*
X0144451Y0164373D01*
X0144580Y0164458D01*
X0144711Y0164539D01*
X0144845Y0164617D01*
X0144980Y0164691D01*
X0145117Y0164762D01*
X0145257Y0164829D01*
X0145397Y0164893D01*
X0145540Y0164953D01*
X0145683Y0165009D01*
X0145829Y0165062D01*
X0145975Y0165111D01*
X0146123Y0165156D01*
X0146272Y0165197D01*
X0146422Y0165235D01*
X0146573Y0165268D01*
X0146724Y0165298D01*
X0146877Y0165324D01*
X0147030Y0165345D01*
X0147183Y0165363D01*
X0147337Y0165377D01*
X0147491Y0165387D01*
X0147646Y0165393D01*
X0147800Y0165395D01*
X0147954Y0165393D01*
X0148109Y0165387D01*
X0148263Y0165377D01*
X0148417Y0165363D01*
X0148570Y0165345D01*
X0148723Y0165324D01*
X0148876Y0165298D01*
X0149027Y0165268D01*
X0149178Y0165235D01*
X0149328Y0165197D01*
X0149477Y0165156D01*
X0149625Y0165111D01*
X0149771Y0165062D01*
X0149917Y0165009D01*
X0150060Y0164953D01*
X0150203Y0164893D01*
X0150343Y0164829D01*
X0150483Y0164762D01*
X0150620Y0164691D01*
X0150755Y0164617D01*
X0150889Y0164539D01*
X0151020Y0164458D01*
X0151149Y0164373D01*
X0151277Y0164285D01*
X0151401Y0164194D01*
X0151524Y0164100D01*
X0151644Y0164002D01*
X0151761Y0163902D01*
X0151876Y0163798D01*
X0151988Y0163692D01*
X0152097Y0163583D01*
X0152203Y0163471D01*
X0152307Y0163356D01*
X0152407Y0163239D01*
X0152505Y0163119D01*
X0152599Y0162996D01*
X0152690Y0162872D01*
X0152778Y0162744D01*
X0152863Y0162615D01*
X0152944Y0162484D01*
X0153022Y0162350D01*
X0153096Y0162215D01*
X0153167Y0162078D01*
X0153234Y0161938D01*
X0153298Y0161798D01*
X0153358Y0161655D01*
X0153414Y0161512D01*
X0153467Y0161366D01*
X0153516Y0161220D01*
X0153561Y0161072D01*
X0153602Y0160923D01*
X0153640Y0160773D01*
X0153673Y0160622D01*
X0153703Y0160471D01*
X0153729Y0160318D01*
X0153750Y0160165D01*
X0153768Y0160012D01*
X0153782Y0159858D01*
X0153792Y0159704D01*
X0153798Y0159549D01*
X0153800Y0159395D01*
X0153798Y0159241D01*
X0153792Y0159086D01*
X0153782Y0158932D01*
X0153768Y0158778D01*
X0153750Y0158625D01*
X0153729Y0158472D01*
X0153703Y0158319D01*
X0153673Y0158168D01*
X0153640Y0158017D01*
X0153602Y0157867D01*
X0153561Y0157718D01*
X0153516Y0157570D01*
X0153467Y0157424D01*
X0153414Y0157278D01*
X0153358Y0157135D01*
X0153298Y0156992D01*
X0153234Y0156852D01*
X0153167Y0156712D01*
X0153096Y0156575D01*
X0153022Y0156440D01*
X0152944Y0156306D01*
X0152863Y0156175D01*
X0152778Y0156046D01*
X0152690Y0155918D01*
X0152599Y0155794D01*
X0152505Y0155671D01*
X0152407Y0155551D01*
X0152307Y0155434D01*
X0152203Y0155319D01*
X0152097Y0155207D01*
X0151988Y0155098D01*
X0151876Y0154992D01*
X0151761Y0154888D01*
X0151644Y0154788D01*
X0151524Y0154690D01*
X0151401Y0154596D01*
X0151277Y0154505D01*
X0151149Y0154417D01*
X0151020Y0154332D01*
X0150889Y0154251D01*
X0150755Y0154173D01*
X0150620Y0154099D01*
X0150483Y0154028D01*
X0150343Y0153961D01*
X0150203Y0153897D01*
X0150060Y0153837D01*
X0149917Y0153781D01*
X0149771Y0153728D01*
X0149625Y0153679D01*
X0149477Y0153634D01*
X0149328Y0153593D01*
X0149178Y0153555D01*
X0149027Y0153522D01*
X0148876Y0153492D01*
X0148723Y0153466D01*
X0148570Y0153445D01*
X0148417Y0153427D01*
X0148263Y0153413D01*
X0148109Y0153403D01*
X0147954Y0153397D01*
X0147800Y0153395D01*
X0147646Y0153397D01*
X0147491Y0153403D01*
X0147337Y0153413D01*
X0147183Y0153427D01*
X0147030Y0153445D01*
X0146877Y0153466D01*
X0146724Y0153492D01*
X0146573Y0153522D01*
X0146422Y0153555D01*
X0146272Y0153593D01*
X0146123Y0153634D01*
X0145975Y0153679D01*
X0145829Y0153728D01*
X0145683Y0153781D01*
X0145540Y0153837D01*
X0145397Y0153897D01*
X0145257Y0153961D01*
X0145117Y0154028D01*
X0144980Y0154099D01*
X0144845Y0154173D01*
X0144711Y0154251D01*
X0144580Y0154332D01*
X0144451Y0154417D01*
X0144323Y0154505D01*
X0144199Y0154596D01*
X0144076Y0154690D01*
X0143956Y0154788D01*
X0143839Y0154888D01*
X0143724Y0154992D01*
X0143612Y0155098D01*
X0143503Y0155207D01*
X0143397Y0155319D01*
X0143293Y0155434D01*
X0143193Y0155551D01*
X0143095Y0155671D01*
X0143001Y0155794D01*
X0142910Y0155918D01*
X0142822Y0156046D01*
X0142737Y0156175D01*
X0142656Y0156306D01*
X0142578Y0156440D01*
X0142504Y0156575D01*
X0142433Y0156712D01*
X0142366Y0156852D01*
X0142302Y0156992D01*
X0142242Y0157135D01*
X0142186Y0157278D01*
X0142133Y0157424D01*
X0142084Y0157570D01*
X0142039Y0157718D01*
X0141998Y0157867D01*
X0141960Y0158017D01*
X0141927Y0158168D01*
X0141897Y0158319D01*
X0141871Y0158472D01*
X0141850Y0158625D01*
X0141832Y0158778D01*
X0141818Y0158932D01*
X0141808Y0159086D01*
X0141802Y0159241D01*
X0141800Y0159395D01*
X0239800Y0159395D02*
X0239802Y0159549D01*
X0239808Y0159704D01*
X0239818Y0159858D01*
X0239832Y0160012D01*
X0239850Y0160165D01*
X0239871Y0160318D01*
X0239897Y0160471D01*
X0239927Y0160622D01*
X0239960Y0160773D01*
X0239998Y0160923D01*
X0240039Y0161072D01*
X0240084Y0161220D01*
X0240133Y0161366D01*
X0240186Y0161512D01*
X0240242Y0161655D01*
X0240302Y0161798D01*
X0240366Y0161938D01*
X0240433Y0162078D01*
X0240504Y0162215D01*
X0240578Y0162350D01*
X0240656Y0162484D01*
X0240737Y0162615D01*
X0240822Y0162744D01*
X0240910Y0162872D01*
X0241001Y0162996D01*
X0241095Y0163119D01*
X0241193Y0163239D01*
X0241293Y0163356D01*
X0241397Y0163471D01*
X0241503Y0163583D01*
X0241612Y0163692D01*
X0241724Y0163798D01*
X0241839Y0163902D01*
X0241956Y0164002D01*
X0242076Y0164100D01*
X0242199Y0164194D01*
X0242323Y0164285D01*
X0242451Y0164373D01*
X0242580Y0164458D01*
X0242711Y0164539D01*
X0242845Y0164617D01*
X0242980Y0164691D01*
X0243117Y0164762D01*
X0243257Y0164829D01*
X0243397Y0164893D01*
X0243540Y0164953D01*
X0243683Y0165009D01*
X0243829Y0165062D01*
X0243975Y0165111D01*
X0244123Y0165156D01*
X0244272Y0165197D01*
X0244422Y0165235D01*
X0244573Y0165268D01*
X0244724Y0165298D01*
X0244877Y0165324D01*
X0245030Y0165345D01*
X0245183Y0165363D01*
X0245337Y0165377D01*
X0245491Y0165387D01*
X0245646Y0165393D01*
X0245800Y0165395D01*
X0245954Y0165393D01*
X0246109Y0165387D01*
X0246263Y0165377D01*
X0246417Y0165363D01*
X0246570Y0165345D01*
X0246723Y0165324D01*
X0246876Y0165298D01*
X0247027Y0165268D01*
X0247178Y0165235D01*
X0247328Y0165197D01*
X0247477Y0165156D01*
X0247625Y0165111D01*
X0247771Y0165062D01*
X0247917Y0165009D01*
X0248060Y0164953D01*
X0248203Y0164893D01*
X0248343Y0164829D01*
X0248483Y0164762D01*
X0248620Y0164691D01*
X0248755Y0164617D01*
X0248889Y0164539D01*
X0249020Y0164458D01*
X0249149Y0164373D01*
X0249277Y0164285D01*
X0249401Y0164194D01*
X0249524Y0164100D01*
X0249644Y0164002D01*
X0249761Y0163902D01*
X0249876Y0163798D01*
X0249988Y0163692D01*
X0250097Y0163583D01*
X0250203Y0163471D01*
X0250307Y0163356D01*
X0250407Y0163239D01*
X0250505Y0163119D01*
X0250599Y0162996D01*
X0250690Y0162872D01*
X0250778Y0162744D01*
X0250863Y0162615D01*
X0250944Y0162484D01*
X0251022Y0162350D01*
X0251096Y0162215D01*
X0251167Y0162078D01*
X0251234Y0161938D01*
X0251298Y0161798D01*
X0251358Y0161655D01*
X0251414Y0161512D01*
X0251467Y0161366D01*
X0251516Y0161220D01*
X0251561Y0161072D01*
X0251602Y0160923D01*
X0251640Y0160773D01*
X0251673Y0160622D01*
X0251703Y0160471D01*
X0251729Y0160318D01*
X0251750Y0160165D01*
X0251768Y0160012D01*
X0251782Y0159858D01*
X0251792Y0159704D01*
X0251798Y0159549D01*
X0251800Y0159395D01*
X0251798Y0159241D01*
X0251792Y0159086D01*
X0251782Y0158932D01*
X0251768Y0158778D01*
X0251750Y0158625D01*
X0251729Y0158472D01*
X0251703Y0158319D01*
X0251673Y0158168D01*
X0251640Y0158017D01*
X0251602Y0157867D01*
X0251561Y0157718D01*
X0251516Y0157570D01*
X0251467Y0157424D01*
X0251414Y0157278D01*
X0251358Y0157135D01*
X0251298Y0156992D01*
X0251234Y0156852D01*
X0251167Y0156712D01*
X0251096Y0156575D01*
X0251022Y0156440D01*
X0250944Y0156306D01*
X0250863Y0156175D01*
X0250778Y0156046D01*
X0250690Y0155918D01*
X0250599Y0155794D01*
X0250505Y0155671D01*
X0250407Y0155551D01*
X0250307Y0155434D01*
X0250203Y0155319D01*
X0250097Y0155207D01*
X0249988Y0155098D01*
X0249876Y0154992D01*
X0249761Y0154888D01*
X0249644Y0154788D01*
X0249524Y0154690D01*
X0249401Y0154596D01*
X0249277Y0154505D01*
X0249149Y0154417D01*
X0249020Y0154332D01*
X0248889Y0154251D01*
X0248755Y0154173D01*
X0248620Y0154099D01*
X0248483Y0154028D01*
X0248343Y0153961D01*
X0248203Y0153897D01*
X0248060Y0153837D01*
X0247917Y0153781D01*
X0247771Y0153728D01*
X0247625Y0153679D01*
X0247477Y0153634D01*
X0247328Y0153593D01*
X0247178Y0153555D01*
X0247027Y0153522D01*
X0246876Y0153492D01*
X0246723Y0153466D01*
X0246570Y0153445D01*
X0246417Y0153427D01*
X0246263Y0153413D01*
X0246109Y0153403D01*
X0245954Y0153397D01*
X0245800Y0153395D01*
X0245646Y0153397D01*
X0245491Y0153403D01*
X0245337Y0153413D01*
X0245183Y0153427D01*
X0245030Y0153445D01*
X0244877Y0153466D01*
X0244724Y0153492D01*
X0244573Y0153522D01*
X0244422Y0153555D01*
X0244272Y0153593D01*
X0244123Y0153634D01*
X0243975Y0153679D01*
X0243829Y0153728D01*
X0243683Y0153781D01*
X0243540Y0153837D01*
X0243397Y0153897D01*
X0243257Y0153961D01*
X0243117Y0154028D01*
X0242980Y0154099D01*
X0242845Y0154173D01*
X0242711Y0154251D01*
X0242580Y0154332D01*
X0242451Y0154417D01*
X0242323Y0154505D01*
X0242199Y0154596D01*
X0242076Y0154690D01*
X0241956Y0154788D01*
X0241839Y0154888D01*
X0241724Y0154992D01*
X0241612Y0155098D01*
X0241503Y0155207D01*
X0241397Y0155319D01*
X0241293Y0155434D01*
X0241193Y0155551D01*
X0241095Y0155671D01*
X0241001Y0155794D01*
X0240910Y0155918D01*
X0240822Y0156046D01*
X0240737Y0156175D01*
X0240656Y0156306D01*
X0240578Y0156440D01*
X0240504Y0156575D01*
X0240433Y0156712D01*
X0240366Y0156852D01*
X0240302Y0156992D01*
X0240242Y0157135D01*
X0240186Y0157278D01*
X0240133Y0157424D01*
X0240084Y0157570D01*
X0240039Y0157718D01*
X0239998Y0157867D01*
X0239960Y0158017D01*
X0239927Y0158168D01*
X0239897Y0158319D01*
X0239871Y0158472D01*
X0239850Y0158625D01*
X0239832Y0158778D01*
X0239818Y0158932D01*
X0239808Y0159086D01*
X0239802Y0159241D01*
X0239800Y0159395D01*
D11*
X0226800Y0074400D02*
X0226800Y0069200D01*
X0216800Y0069200D02*
X0216800Y0074400D01*
X0206800Y0074400D02*
X0206800Y0069200D01*
X0196800Y0069200D02*
X0196800Y0074400D01*
X0186800Y0074400D02*
X0186800Y0069200D01*
X0176800Y0069200D02*
X0176800Y0074400D01*
X0166800Y0074400D02*
X0166800Y0069200D01*
X0166800Y0044400D02*
X0166800Y0039200D01*
X0176800Y0039200D02*
X0176800Y0044400D01*
X0186800Y0044400D02*
X0186800Y0039200D01*
X0196800Y0039200D02*
X0196800Y0044400D01*
X0206800Y0044400D02*
X0206800Y0039200D01*
X0216800Y0039200D02*
X0216800Y0044400D01*
X0226800Y0044400D02*
X0226800Y0039200D01*
X0221800Y0019400D02*
X0221800Y0014200D01*
X0211800Y0014200D02*
X0211800Y0019400D01*
X0201800Y0019400D02*
X0201800Y0014200D01*
X0191800Y0014200D02*
X0191800Y0019400D01*
X0181800Y0019400D02*
X0181800Y0014200D01*
X0171800Y0014200D02*
X0171800Y0019400D01*
X0096800Y0039200D02*
X0096800Y0044400D01*
X0086800Y0044400D02*
X0086800Y0039200D01*
X0076800Y0039200D02*
X0076800Y0044400D01*
X0066800Y0044400D02*
X0066800Y0039200D01*
X0056800Y0039200D02*
X0056800Y0044400D01*
X0046800Y0044400D02*
X0046800Y0039200D01*
X0036800Y0039200D02*
X0036800Y0044400D01*
X0036800Y0069200D02*
X0036800Y0074400D01*
X0046800Y0074400D02*
X0046800Y0069200D01*
X0056800Y0069200D02*
X0056800Y0074400D01*
X0066800Y0074400D02*
X0066800Y0069200D01*
X0076800Y0069200D02*
X0076800Y0074400D01*
X0086800Y0074400D02*
X0086800Y0069200D01*
X0096800Y0069200D02*
X0096800Y0074400D01*
X0091800Y0019400D02*
X0091800Y0014200D01*
X0081800Y0014200D02*
X0081800Y0019400D01*
X0071800Y0019400D02*
X0071800Y0014200D01*
X0061800Y0014200D02*
X0061800Y0019400D01*
X0051800Y0019400D02*
X0051800Y0014200D01*
X0041800Y0014200D02*
X0041800Y0019400D01*
D12*
X0041800Y0091800D03*
X0031800Y0091800D03*
X0051800Y0091800D03*
X0061800Y0091800D03*
X0071800Y0091800D03*
X0081800Y0091800D03*
X0091800Y0091800D03*
X0101800Y0091800D03*
X0101800Y0131800D03*
X0091800Y0131800D03*
X0081800Y0131800D03*
X0071800Y0131800D03*
X0061800Y0131800D03*
X0051800Y0131800D03*
X0041800Y0131800D03*
X0031800Y0131800D03*
X0161800Y0131800D03*
X0171800Y0131800D03*
X0181800Y0131800D03*
X0191800Y0131800D03*
X0201800Y0131800D03*
X0211800Y0131800D03*
X0221800Y0131800D03*
X0231800Y0131800D03*
X0231800Y0091800D03*
X0221800Y0091800D03*
X0211800Y0091800D03*
X0201800Y0091800D03*
X0191800Y0091800D03*
X0181800Y0091800D03*
X0171800Y0091800D03*
X0161800Y0091800D03*
D13*
X0175000Y0153795D03*
X0185900Y0153795D03*
X0196800Y0153795D03*
X0207700Y0153795D03*
X0218600Y0153795D03*
X0213150Y0164990D03*
X0202250Y0164990D03*
X0191350Y0164990D03*
X0180450Y0164990D03*
X0088600Y0153795D03*
X0077700Y0153795D03*
X0066800Y0153795D03*
X0055900Y0153795D03*
X0045000Y0153795D03*
X0050450Y0164990D03*
X0061350Y0164990D03*
X0072250Y0164990D03*
X0083150Y0164990D03*
D14*
X0114000Y0136800D02*
X0119600Y0136800D01*
X0119600Y0126800D02*
X0114000Y0126800D01*
X0244000Y0126800D02*
X0249600Y0126800D01*
X0249600Y0136800D02*
X0244000Y0136800D01*
D15*
X0008560Y0008054D02*
X0007392Y0009471D01*
X0006719Y0011180D01*
X0006600Y0012029D01*
X0006600Y0191559D01*
X0006721Y0192395D01*
X0007396Y0194090D01*
X0008562Y0195494D01*
X0010105Y0196469D01*
X0011873Y0196919D01*
X0012141Y0196922D01*
X0012144Y0196921D01*
X0012944Y0196921D01*
X0013741Y0196869D01*
X0013893Y0196921D01*
X0251800Y0196921D01*
X0252479Y0196877D01*
X0253790Y0196525D01*
X0254966Y0195847D01*
X0255925Y0194887D01*
X0256604Y0193711D01*
X0256956Y0192400D01*
X0257000Y0191721D01*
X0257000Y0011800D01*
X0256956Y0011121D01*
X0256604Y0009810D01*
X0255925Y0008634D01*
X0254966Y0007675D01*
X0253790Y0006996D01*
X0252479Y0006644D01*
X0251800Y0006600D01*
X0013903Y0006600D01*
X0013760Y0006649D01*
X0012953Y0006600D01*
X0012302Y0006600D01*
X0011886Y0006607D01*
X0010108Y0007067D01*
X0008560Y0008054D01*
X0008445Y0008194D02*
X0255485Y0008194D01*
X0256594Y0009793D02*
X0225595Y0009793D01*
X0225085Y0009283D02*
X0226717Y0010915D01*
X0227600Y0013046D01*
X0227600Y0020554D01*
X0226717Y0022685D01*
X0225085Y0024317D01*
X0222954Y0025200D01*
X0220646Y0025200D01*
X0218515Y0024317D01*
X0216883Y0022685D01*
X0216800Y0022485D01*
X0216717Y0022685D01*
X0215085Y0024317D01*
X0212954Y0025200D01*
X0210646Y0025200D01*
X0208515Y0024317D01*
X0206883Y0022685D01*
X0206800Y0022485D01*
X0206717Y0022685D01*
X0205085Y0024317D01*
X0202954Y0025200D01*
X0200646Y0025200D01*
X0198515Y0024317D01*
X0196883Y0022685D01*
X0196800Y0022485D01*
X0196717Y0022685D01*
X0195085Y0024317D01*
X0192954Y0025200D01*
X0190646Y0025200D01*
X0188515Y0024317D01*
X0186883Y0022685D01*
X0186029Y0020623D01*
X0185878Y0021089D01*
X0185563Y0021706D01*
X0185156Y0022266D01*
X0184666Y0022756D01*
X0184106Y0023163D01*
X0183489Y0023478D01*
X0182830Y0023692D01*
X0182146Y0023800D01*
X0181800Y0023800D01*
X0181800Y0016800D01*
X0181800Y0016800D01*
X0181800Y0023800D01*
X0181454Y0023800D01*
X0180770Y0023692D01*
X0180111Y0023478D01*
X0179494Y0023163D01*
X0178934Y0022756D01*
X0178444Y0022266D01*
X0178037Y0021706D01*
X0177722Y0021089D01*
X0177571Y0020623D01*
X0176717Y0022685D01*
X0175085Y0024317D01*
X0172954Y0025200D01*
X0170646Y0025200D01*
X0168515Y0024317D01*
X0166883Y0022685D01*
X0166000Y0020554D01*
X0166000Y0013046D01*
X0166883Y0010915D01*
X0168515Y0009283D01*
X0170646Y0008400D01*
X0172954Y0008400D01*
X0175085Y0009283D01*
X0176717Y0010915D01*
X0177571Y0012977D01*
X0177722Y0012511D01*
X0178037Y0011894D01*
X0178444Y0011334D01*
X0178934Y0010844D01*
X0179494Y0010437D01*
X0180111Y0010122D01*
X0180770Y0009908D01*
X0181454Y0009800D01*
X0181800Y0009800D01*
X0182146Y0009800D01*
X0182830Y0009908D01*
X0183489Y0010122D01*
X0184106Y0010437D01*
X0184666Y0010844D01*
X0185156Y0011334D01*
X0185563Y0011894D01*
X0185878Y0012511D01*
X0186029Y0012977D01*
X0186883Y0010915D01*
X0188515Y0009283D01*
X0190646Y0008400D01*
X0192954Y0008400D01*
X0195085Y0009283D01*
X0196717Y0010915D01*
X0196800Y0011115D01*
X0196883Y0010915D01*
X0198515Y0009283D01*
X0200646Y0008400D01*
X0202954Y0008400D01*
X0205085Y0009283D01*
X0206717Y0010915D01*
X0206800Y0011115D01*
X0206883Y0010915D01*
X0208515Y0009283D01*
X0210646Y0008400D01*
X0212954Y0008400D01*
X0215085Y0009283D01*
X0216717Y0010915D01*
X0216800Y0011115D01*
X0216883Y0010915D01*
X0218515Y0009283D01*
X0220646Y0008400D01*
X0222954Y0008400D01*
X0225085Y0009283D01*
X0226914Y0011391D02*
X0256973Y0011391D01*
X0257000Y0012990D02*
X0227576Y0012990D01*
X0227600Y0014588D02*
X0257000Y0014588D01*
X0257000Y0016187D02*
X0227600Y0016187D01*
X0227600Y0017785D02*
X0257000Y0017785D01*
X0257000Y0019384D02*
X0227600Y0019384D01*
X0227423Y0020982D02*
X0257000Y0020982D01*
X0257000Y0022581D02*
X0226760Y0022581D01*
X0225223Y0024179D02*
X0257000Y0024179D01*
X0257000Y0025778D02*
X0006600Y0025778D01*
X0006600Y0027376D02*
X0257000Y0027376D01*
X0257000Y0028975D02*
X0006600Y0028975D01*
X0006600Y0030573D02*
X0257000Y0030573D01*
X0257000Y0032172D02*
X0006600Y0032172D01*
X0006600Y0033770D02*
X0034752Y0033770D01*
X0035646Y0033400D02*
X0037954Y0033400D01*
X0040085Y0034283D01*
X0041717Y0035915D01*
X0041800Y0036115D01*
X0041883Y0035915D01*
X0043515Y0034283D01*
X0045646Y0033400D01*
X0047954Y0033400D01*
X0050085Y0034283D01*
X0051717Y0035915D01*
X0051800Y0036115D01*
X0051883Y0035915D01*
X0053515Y0034283D01*
X0055646Y0033400D01*
X0057954Y0033400D01*
X0060085Y0034283D01*
X0061717Y0035915D01*
X0061800Y0036115D01*
X0061883Y0035915D01*
X0063515Y0034283D01*
X0065646Y0033400D01*
X0067954Y0033400D01*
X0070085Y0034283D01*
X0071717Y0035915D01*
X0071800Y0036115D01*
X0071883Y0035915D01*
X0073515Y0034283D01*
X0075646Y0033400D01*
X0077954Y0033400D01*
X0080085Y0034283D01*
X0081717Y0035915D01*
X0081800Y0036115D01*
X0081883Y0035915D01*
X0083515Y0034283D01*
X0085646Y0033400D01*
X0087954Y0033400D01*
X0090085Y0034283D01*
X0091717Y0035915D01*
X0091800Y0036115D01*
X0091883Y0035915D01*
X0093515Y0034283D01*
X0095646Y0033400D01*
X0097954Y0033400D01*
X0100085Y0034283D01*
X0101717Y0035915D01*
X0102600Y0038046D01*
X0102600Y0045554D01*
X0101717Y0047685D01*
X0100800Y0048602D01*
X0100800Y0050143D01*
X0120191Y0069534D01*
X0120800Y0071004D01*
X0120800Y0120803D01*
X0122999Y0121713D01*
X0124687Y0123401D01*
X0125600Y0125607D01*
X0125600Y0127993D01*
X0124687Y0130199D01*
X0123085Y0131800D01*
X0124687Y0133401D01*
X0125600Y0135607D01*
X0125600Y0137993D01*
X0124687Y0140199D01*
X0122999Y0141887D01*
X0120793Y0142800D01*
X0112807Y0142800D01*
X0111852Y0142405D01*
X0105800Y0148457D01*
X0105800Y0155115D01*
X0107158Y0152764D01*
X0109169Y0150753D01*
X0111631Y0149331D01*
X0114378Y0148595D01*
X0117222Y0148595D01*
X0119969Y0149331D01*
X0122431Y0150753D01*
X0124442Y0152764D01*
X0125864Y0155226D01*
X0126600Y0157973D01*
X0126600Y0160817D01*
X0125864Y0163564D01*
X0124442Y0166026D01*
X0122431Y0168037D01*
X0119969Y0169459D01*
X0117222Y0170195D01*
X0114378Y0170195D01*
X0111631Y0169459D01*
X0109169Y0168037D01*
X0107158Y0166026D01*
X0105800Y0163674D01*
X0105800Y0167596D01*
X0105191Y0169066D01*
X0104066Y0170191D01*
X0094066Y0180191D01*
X0092596Y0180800D01*
X0076004Y0180800D01*
X0074534Y0180191D01*
X0073409Y0179066D01*
X0068409Y0174066D01*
X0067800Y0172596D01*
X0067800Y0171004D01*
X0068079Y0170330D01*
X0065810Y0168061D01*
X0063556Y0170315D01*
X0061725Y0170315D01*
X0061725Y0165365D01*
X0060975Y0165365D01*
X0060975Y0170315D01*
X0059144Y0170315D01*
X0056890Y0168061D01*
X0053236Y0171715D01*
X0047664Y0171715D01*
X0043725Y0167776D01*
X0043725Y0162205D01*
X0045410Y0160520D01*
X0042214Y0160520D01*
X0038275Y0156580D01*
X0038275Y0151009D01*
X0042214Y0147070D01*
X0047786Y0147070D01*
X0050450Y0149734D01*
X0053114Y0147070D01*
X0058686Y0147070D01*
X0061350Y0149734D01*
X0062800Y0148284D01*
X0062800Y0137600D01*
X0059398Y0137600D01*
X0057598Y0135800D01*
X0056002Y0135800D01*
X0054202Y0137600D01*
X0049398Y0137600D01*
X0046000Y0134202D01*
X0046000Y0133823D01*
X0043623Y0136200D01*
X0041800Y0136200D01*
X0041800Y0131800D01*
X0041800Y0131800D01*
X0041800Y0127400D01*
X0043623Y0127400D01*
X0046000Y0129777D01*
X0046000Y0129398D01*
X0049398Y0126000D01*
X0054202Y0126000D01*
X0056002Y0127800D01*
X0057598Y0127800D01*
X0059398Y0126000D01*
X0062802Y0126000D01*
X0063409Y0124534D01*
X0087800Y0100143D01*
X0087800Y0096002D01*
X0086800Y0095002D01*
X0084202Y0097600D01*
X0079398Y0097600D01*
X0076800Y0095002D01*
X0074202Y0097600D01*
X0069398Y0097600D01*
X0066800Y0095002D01*
X0064202Y0097600D01*
X0059398Y0097600D01*
X0056800Y0095002D01*
X0054202Y0097600D01*
X0049398Y0097600D01*
X0046800Y0095002D01*
X0044202Y0097600D01*
X0039398Y0097600D01*
X0036800Y0095002D01*
X0034202Y0097600D01*
X0029398Y0097600D01*
X0026000Y0094202D01*
X0026000Y0089398D01*
X0029398Y0086000D01*
X0034202Y0086000D01*
X0036800Y0088598D01*
X0039398Y0086000D01*
X0044202Y0086000D01*
X0046800Y0088598D01*
X0047800Y0087598D01*
X0047800Y0083457D01*
X0044534Y0080191D01*
X0043763Y0079420D01*
X0043515Y0079317D01*
X0041883Y0077685D01*
X0041029Y0075623D01*
X0040878Y0076089D01*
X0040563Y0076706D01*
X0040156Y0077266D01*
X0039666Y0077756D01*
X0039106Y0078163D01*
X0038489Y0078478D01*
X0037830Y0078692D01*
X0037146Y0078800D01*
X0036800Y0078800D01*
X0036800Y0071800D01*
X0036800Y0071800D01*
X0036800Y0071800D01*
X0032400Y0071800D01*
X0032400Y0074746D01*
X0032508Y0075430D01*
X0032722Y0076089D01*
X0033037Y0076706D01*
X0033444Y0077266D01*
X0033934Y0077756D01*
X0034494Y0078163D01*
X0035111Y0078478D01*
X0035770Y0078692D01*
X0036454Y0078800D01*
X0036800Y0078800D01*
X0036800Y0071800D01*
X0036800Y0064800D01*
X0037146Y0064800D01*
X0037830Y0064908D01*
X0038489Y0065122D01*
X0039106Y0065437D01*
X0039666Y0065844D01*
X0040156Y0066334D01*
X0040563Y0066894D01*
X0040878Y0067511D01*
X0041029Y0067977D01*
X0041883Y0065915D01*
X0043515Y0064283D01*
X0045646Y0063400D01*
X0047954Y0063400D01*
X0050085Y0064283D01*
X0051717Y0065915D01*
X0051800Y0066115D01*
X0051883Y0065915D01*
X0053515Y0064283D01*
X0055646Y0063400D01*
X0057954Y0063400D01*
X0060085Y0064283D01*
X0061717Y0065915D01*
X0061800Y0066115D01*
X0061883Y0065915D01*
X0063515Y0064283D01*
X0065646Y0063400D01*
X0067954Y0063400D01*
X0070085Y0064283D01*
X0071717Y0065915D01*
X0071800Y0066115D01*
X0071883Y0065915D01*
X0073515Y0064283D01*
X0075646Y0063400D01*
X0077954Y0063400D01*
X0080085Y0064283D01*
X0081717Y0065915D01*
X0081800Y0066115D01*
X0081883Y0065915D01*
X0083515Y0064283D01*
X0085646Y0063400D01*
X0087954Y0063400D01*
X0090085Y0064283D01*
X0091717Y0065915D01*
X0091800Y0066115D01*
X0091883Y0065915D01*
X0093515Y0064283D01*
X0095646Y0063400D01*
X0097954Y0063400D01*
X0100085Y0064283D01*
X0101717Y0065915D01*
X0102600Y0068046D01*
X0102600Y0075554D01*
X0101717Y0077685D01*
X0100085Y0079317D01*
X0097954Y0080200D01*
X0095646Y0080200D01*
X0093515Y0079317D01*
X0091883Y0077685D01*
X0091800Y0077485D01*
X0091717Y0077685D01*
X0090085Y0079317D01*
X0087954Y0080200D01*
X0085646Y0080200D01*
X0083515Y0079317D01*
X0081883Y0077685D01*
X0081800Y0077485D01*
X0081717Y0077685D01*
X0080085Y0079317D01*
X0077954Y0080200D01*
X0075646Y0080200D01*
X0073515Y0079317D01*
X0071883Y0077685D01*
X0071800Y0077485D01*
X0071717Y0077685D01*
X0070085Y0079317D01*
X0067954Y0080200D01*
X0065646Y0080200D01*
X0063515Y0079317D01*
X0061883Y0077685D01*
X0061800Y0077485D01*
X0061717Y0077685D01*
X0060085Y0079317D01*
X0057954Y0080200D01*
X0055646Y0080200D01*
X0055430Y0080110D01*
X0055800Y0081004D01*
X0055800Y0087598D01*
X0056800Y0088598D01*
X0059398Y0086000D01*
X0064202Y0086000D01*
X0066800Y0088598D01*
X0069398Y0086000D01*
X0074202Y0086000D01*
X0076800Y0088598D01*
X0079398Y0086000D01*
X0084202Y0086000D01*
X0086800Y0088598D01*
X0089398Y0086000D01*
X0094202Y0086000D01*
X0096800Y0088598D01*
X0099398Y0086000D01*
X0104202Y0086000D01*
X0107600Y0089398D01*
X0107600Y0094202D01*
X0104202Y0097600D01*
X0099398Y0097600D01*
X0096800Y0095002D01*
X0095800Y0096002D01*
X0095800Y0102596D01*
X0095191Y0104066D01*
X0094066Y0105191D01*
X0073257Y0126000D01*
X0074202Y0126000D01*
X0076002Y0127800D01*
X0077598Y0127800D01*
X0079398Y0126000D01*
X0084202Y0126000D01*
X0086002Y0127800D01*
X0087598Y0127800D01*
X0089398Y0126000D01*
X0094202Y0126000D01*
X0096002Y0127800D01*
X0097598Y0127800D01*
X0099398Y0126000D01*
X0104202Y0126000D01*
X0105573Y0127370D01*
X0108409Y0124534D01*
X0108469Y0124474D01*
X0108913Y0123401D01*
X0110601Y0121713D01*
X0112800Y0120803D01*
X0112800Y0073457D01*
X0094534Y0055191D01*
X0093409Y0054066D01*
X0092800Y0052596D01*
X0092800Y0048602D01*
X0091883Y0047685D01*
X0091800Y0047485D01*
X0091717Y0047685D01*
X0090085Y0049317D01*
X0087954Y0050200D01*
X0085646Y0050200D01*
X0083515Y0049317D01*
X0081883Y0047685D01*
X0081800Y0047485D01*
X0081717Y0047685D01*
X0080085Y0049317D01*
X0077954Y0050200D01*
X0075646Y0050200D01*
X0073515Y0049317D01*
X0071883Y0047685D01*
X0071800Y0047485D01*
X0071717Y0047685D01*
X0070085Y0049317D01*
X0067954Y0050200D01*
X0065646Y0050200D01*
X0063515Y0049317D01*
X0061883Y0047685D01*
X0061800Y0047485D01*
X0061717Y0047685D01*
X0060085Y0049317D01*
X0057954Y0050200D01*
X0055646Y0050200D01*
X0053515Y0049317D01*
X0051883Y0047685D01*
X0051800Y0047485D01*
X0051717Y0047685D01*
X0050085Y0049317D01*
X0047954Y0050200D01*
X0045646Y0050200D01*
X0043515Y0049317D01*
X0041883Y0047685D01*
X0041800Y0047485D01*
X0041717Y0047685D01*
X0040085Y0049317D01*
X0037954Y0050200D01*
X0035646Y0050200D01*
X0033515Y0049317D01*
X0031883Y0047685D01*
X0031000Y0045554D01*
X0031000Y0038046D01*
X0031883Y0035915D01*
X0033515Y0034283D01*
X0035646Y0033400D01*
X0038847Y0033770D02*
X0044752Y0033770D01*
X0042429Y0035369D02*
X0041171Y0035369D01*
X0048847Y0033770D02*
X0054752Y0033770D01*
X0052429Y0035369D02*
X0051171Y0035369D01*
X0058847Y0033770D02*
X0064752Y0033770D01*
X0062429Y0035369D02*
X0061171Y0035369D01*
X0068847Y0033770D02*
X0074752Y0033770D01*
X0072429Y0035369D02*
X0071171Y0035369D01*
X0078847Y0033770D02*
X0084752Y0033770D01*
X0082429Y0035369D02*
X0081171Y0035369D01*
X0088847Y0033770D02*
X0094752Y0033770D01*
X0092429Y0035369D02*
X0091171Y0035369D01*
X0096800Y0041800D02*
X0096800Y0051800D01*
X0116800Y0071800D01*
X0116800Y0126800D01*
X0111800Y0126800D01*
X0106800Y0131800D01*
X0101800Y0131800D01*
X0091800Y0131800D01*
X0081800Y0131800D01*
X0071800Y0131800D01*
X0076002Y0135800D02*
X0074202Y0137600D01*
X0070800Y0137600D01*
X0070800Y0148284D01*
X0072250Y0149734D01*
X0074914Y0147070D01*
X0080486Y0147070D01*
X0083150Y0149734D01*
X0085814Y0147070D01*
X0091386Y0147070D01*
X0095325Y0151009D01*
X0095325Y0156580D01*
X0091386Y0160520D01*
X0088190Y0160520D01*
X0089875Y0162205D01*
X0089875Y0167776D01*
X0085936Y0171715D01*
X0080364Y0171715D01*
X0077700Y0169051D01*
X0076250Y0170501D01*
X0076250Y0170593D01*
X0078457Y0172800D01*
X0090143Y0172800D01*
X0097800Y0165143D01*
X0097800Y0146004D01*
X0098409Y0144534D01*
X0107143Y0135800D01*
X0106002Y0135800D01*
X0104202Y0137600D01*
X0099398Y0137600D01*
X0097598Y0135800D01*
X0096002Y0135800D01*
X0094202Y0137600D01*
X0089398Y0137600D01*
X0087598Y0135800D01*
X0086002Y0135800D01*
X0084202Y0137600D01*
X0079398Y0137600D01*
X0077598Y0135800D01*
X0076002Y0135800D01*
X0075727Y0136075D02*
X0077873Y0136075D01*
X0070800Y0137673D02*
X0105270Y0137673D01*
X0105727Y0136075D02*
X0106868Y0136075D01*
X0103671Y0139272D02*
X0070800Y0139272D01*
X0070800Y0140870D02*
X0102073Y0140870D01*
X0100474Y0142469D02*
X0070800Y0142469D01*
X0070800Y0144068D02*
X0098876Y0144068D01*
X0097940Y0145666D02*
X0070800Y0145666D01*
X0070800Y0147265D02*
X0074720Y0147265D01*
X0073121Y0148863D02*
X0071379Y0148863D01*
X0066800Y0153795D02*
X0066800Y0126800D01*
X0091800Y0101800D01*
X0091800Y0091800D01*
X0096322Y0088120D02*
X0097278Y0088120D01*
X0098876Y0086521D02*
X0094724Y0086521D01*
X0088876Y0086521D02*
X0084724Y0086521D01*
X0086322Y0088120D02*
X0087278Y0088120D01*
X0088130Y0080127D02*
X0095470Y0080127D01*
X0098130Y0080127D02*
X0112800Y0080127D01*
X0112800Y0078529D02*
X0100874Y0078529D01*
X0102030Y0076930D02*
X0112800Y0076930D01*
X0112800Y0075332D02*
X0102600Y0075332D01*
X0102600Y0073733D02*
X0112800Y0073733D01*
X0111478Y0072134D02*
X0102600Y0072134D01*
X0102600Y0070536D02*
X0109879Y0070536D01*
X0108281Y0068937D02*
X0102600Y0068937D01*
X0102307Y0067339D02*
X0106682Y0067339D01*
X0105084Y0065740D02*
X0101543Y0065740D01*
X0099745Y0064142D02*
X0103485Y0064142D01*
X0101887Y0062543D02*
X0006600Y0062543D01*
X0006600Y0060945D02*
X0100288Y0060945D01*
X0098690Y0059346D02*
X0006600Y0059346D01*
X0006600Y0057748D02*
X0097091Y0057748D01*
X0095493Y0056149D02*
X0006600Y0056149D01*
X0006600Y0054551D02*
X0093894Y0054551D01*
X0092948Y0052952D02*
X0006600Y0052952D01*
X0006600Y0051354D02*
X0092800Y0051354D01*
X0092800Y0049755D02*
X0089027Y0049755D01*
X0091246Y0048157D02*
X0092354Y0048157D01*
X0084573Y0049755D02*
X0079027Y0049755D01*
X0081246Y0048157D02*
X0082354Y0048157D01*
X0074573Y0049755D02*
X0069027Y0049755D01*
X0071246Y0048157D02*
X0072354Y0048157D01*
X0064573Y0049755D02*
X0059027Y0049755D01*
X0061246Y0048157D02*
X0062354Y0048157D01*
X0054573Y0049755D02*
X0049027Y0049755D01*
X0051246Y0048157D02*
X0052354Y0048157D01*
X0044573Y0049755D02*
X0039027Y0049755D01*
X0041246Y0048157D02*
X0042354Y0048157D01*
X0034573Y0049755D02*
X0006600Y0049755D01*
X0006600Y0048157D02*
X0032354Y0048157D01*
X0031416Y0046558D02*
X0006600Y0046558D01*
X0006600Y0044960D02*
X0031000Y0044960D01*
X0031000Y0043361D02*
X0006600Y0043361D01*
X0006600Y0041763D02*
X0031000Y0041763D01*
X0031000Y0040164D02*
X0006600Y0040164D01*
X0006600Y0038566D02*
X0031000Y0038566D01*
X0031447Y0036967D02*
X0006600Y0036967D01*
X0006600Y0035369D02*
X0032429Y0035369D01*
X0038515Y0024317D02*
X0036883Y0022685D01*
X0036000Y0020554D01*
X0036000Y0013046D01*
X0036883Y0010915D01*
X0038515Y0009283D01*
X0040646Y0008400D01*
X0042954Y0008400D01*
X0045085Y0009283D01*
X0046717Y0010915D01*
X0047571Y0012977D01*
X0047722Y0012511D01*
X0048037Y0011894D01*
X0048444Y0011334D01*
X0048934Y0010844D01*
X0049494Y0010437D01*
X0050111Y0010122D01*
X0050770Y0009908D01*
X0051454Y0009800D01*
X0051800Y0009800D01*
X0052146Y0009800D01*
X0052830Y0009908D01*
X0053489Y0010122D01*
X0054106Y0010437D01*
X0054666Y0010844D01*
X0055156Y0011334D01*
X0055563Y0011894D01*
X0055878Y0012511D01*
X0056029Y0012977D01*
X0056883Y0010915D01*
X0058515Y0009283D01*
X0060646Y0008400D01*
X0062954Y0008400D01*
X0065085Y0009283D01*
X0066717Y0010915D01*
X0066800Y0011115D01*
X0066883Y0010915D01*
X0068515Y0009283D01*
X0070646Y0008400D01*
X0072954Y0008400D01*
X0075085Y0009283D01*
X0076717Y0010915D01*
X0076800Y0011115D01*
X0076883Y0010915D01*
X0078515Y0009283D01*
X0080646Y0008400D01*
X0082954Y0008400D01*
X0085085Y0009283D01*
X0086717Y0010915D01*
X0086800Y0011115D01*
X0086883Y0010915D01*
X0088515Y0009283D01*
X0090646Y0008400D01*
X0092954Y0008400D01*
X0095085Y0009283D01*
X0096717Y0010915D01*
X0097600Y0013046D01*
X0097600Y0020554D01*
X0096717Y0022685D01*
X0095085Y0024317D01*
X0092954Y0025200D01*
X0090646Y0025200D01*
X0088515Y0024317D01*
X0086883Y0022685D01*
X0086800Y0022485D01*
X0086717Y0022685D01*
X0085085Y0024317D01*
X0082954Y0025200D01*
X0080646Y0025200D01*
X0078515Y0024317D01*
X0076883Y0022685D01*
X0076800Y0022485D01*
X0076717Y0022685D01*
X0075085Y0024317D01*
X0072954Y0025200D01*
X0070646Y0025200D01*
X0068515Y0024317D01*
X0066883Y0022685D01*
X0066800Y0022485D01*
X0066717Y0022685D01*
X0065085Y0024317D01*
X0062954Y0025200D01*
X0060646Y0025200D01*
X0058515Y0024317D01*
X0056883Y0022685D01*
X0056029Y0020623D01*
X0055878Y0021089D01*
X0055563Y0021706D01*
X0055156Y0022266D01*
X0054666Y0022756D01*
X0054106Y0023163D01*
X0053489Y0023478D01*
X0052830Y0023692D01*
X0052146Y0023800D01*
X0051800Y0023800D01*
X0051800Y0016800D01*
X0051800Y0016800D01*
X0051800Y0023800D01*
X0051454Y0023800D01*
X0050770Y0023692D01*
X0050111Y0023478D01*
X0049494Y0023163D01*
X0048934Y0022756D01*
X0048444Y0022266D01*
X0048037Y0021706D01*
X0047722Y0021089D01*
X0047571Y0020623D01*
X0046717Y0022685D01*
X0045085Y0024317D01*
X0042954Y0025200D01*
X0040646Y0025200D01*
X0038515Y0024317D01*
X0038377Y0024179D02*
X0006600Y0024179D01*
X0006600Y0022581D02*
X0036840Y0022581D01*
X0036177Y0020982D02*
X0006600Y0020982D01*
X0006600Y0019384D02*
X0036000Y0019384D01*
X0036000Y0017785D02*
X0006600Y0017785D01*
X0006600Y0016187D02*
X0036000Y0016187D01*
X0036000Y0014588D02*
X0006600Y0014588D01*
X0006600Y0012990D02*
X0036023Y0012990D01*
X0036686Y0011391D02*
X0006690Y0011391D01*
X0007265Y0009793D02*
X0038005Y0009793D01*
X0045595Y0009793D02*
X0058005Y0009793D01*
X0056686Y0011391D02*
X0055198Y0011391D01*
X0051800Y0011391D02*
X0051800Y0011391D01*
X0051800Y0009800D02*
X0051800Y0016800D01*
X0051800Y0016800D01*
X0051800Y0009800D01*
X0051800Y0012990D02*
X0051800Y0012990D01*
X0051800Y0014588D02*
X0051800Y0014588D01*
X0051800Y0016187D02*
X0051800Y0016187D01*
X0051800Y0017785D02*
X0051800Y0017785D01*
X0051800Y0019384D02*
X0051800Y0019384D01*
X0051800Y0020982D02*
X0051800Y0020982D01*
X0051800Y0022581D02*
X0051800Y0022581D01*
X0054842Y0022581D02*
X0056840Y0022581D01*
X0056177Y0020982D02*
X0055912Y0020982D01*
X0058377Y0024179D02*
X0045223Y0024179D01*
X0046760Y0022581D02*
X0048758Y0022581D01*
X0047688Y0020982D02*
X0047423Y0020982D01*
X0046914Y0011391D02*
X0048402Y0011391D01*
X0065595Y0009793D02*
X0068005Y0009793D01*
X0075595Y0009793D02*
X0078005Y0009793D01*
X0085595Y0009793D02*
X0088005Y0009793D01*
X0095595Y0009793D02*
X0168005Y0009793D01*
X0166686Y0011391D02*
X0096914Y0011391D01*
X0097576Y0012990D02*
X0166023Y0012990D01*
X0166000Y0014588D02*
X0097600Y0014588D01*
X0097600Y0016187D02*
X0166000Y0016187D01*
X0166000Y0017785D02*
X0097600Y0017785D01*
X0097600Y0019384D02*
X0166000Y0019384D01*
X0166177Y0020982D02*
X0097423Y0020982D01*
X0096760Y0022581D02*
X0166840Y0022581D01*
X0168377Y0024179D02*
X0095223Y0024179D01*
X0088377Y0024179D02*
X0085223Y0024179D01*
X0086760Y0022581D02*
X0086840Y0022581D01*
X0078377Y0024179D02*
X0075223Y0024179D01*
X0076760Y0022581D02*
X0076840Y0022581D01*
X0068377Y0024179D02*
X0065223Y0024179D01*
X0066760Y0022581D02*
X0066840Y0022581D01*
X0098847Y0033770D02*
X0164752Y0033770D01*
X0165646Y0033400D02*
X0167954Y0033400D01*
X0170085Y0034283D01*
X0171717Y0035915D01*
X0171800Y0036115D01*
X0171883Y0035915D01*
X0173515Y0034283D01*
X0175646Y0033400D01*
X0177954Y0033400D01*
X0180085Y0034283D01*
X0181717Y0035915D01*
X0181800Y0036115D01*
X0181883Y0035915D01*
X0183515Y0034283D01*
X0185646Y0033400D01*
X0187954Y0033400D01*
X0190085Y0034283D01*
X0191717Y0035915D01*
X0191800Y0036115D01*
X0191883Y0035915D01*
X0193515Y0034283D01*
X0195646Y0033400D01*
X0197954Y0033400D01*
X0200085Y0034283D01*
X0201717Y0035915D01*
X0201800Y0036115D01*
X0201883Y0035915D01*
X0203515Y0034283D01*
X0205646Y0033400D01*
X0207954Y0033400D01*
X0210085Y0034283D01*
X0211717Y0035915D01*
X0211800Y0036115D01*
X0211883Y0035915D01*
X0213515Y0034283D01*
X0215646Y0033400D01*
X0217954Y0033400D01*
X0220085Y0034283D01*
X0221717Y0035915D01*
X0221800Y0036115D01*
X0221883Y0035915D01*
X0223515Y0034283D01*
X0225646Y0033400D01*
X0227954Y0033400D01*
X0230085Y0034283D01*
X0231717Y0035915D01*
X0232600Y0038046D01*
X0232600Y0045554D01*
X0231717Y0047685D01*
X0230800Y0048602D01*
X0230800Y0050143D01*
X0249066Y0068409D01*
X0250191Y0069534D01*
X0250800Y0071004D01*
X0250800Y0120803D01*
X0252999Y0121713D01*
X0254687Y0123401D01*
X0255600Y0125607D01*
X0255600Y0127993D01*
X0254687Y0130199D01*
X0253085Y0131800D01*
X0254687Y0133401D01*
X0255600Y0135607D01*
X0255600Y0137993D01*
X0254687Y0140199D01*
X0252999Y0141887D01*
X0250793Y0142800D01*
X0242807Y0142800D01*
X0241852Y0142405D01*
X0235800Y0148457D01*
X0235800Y0155115D01*
X0237158Y0152764D01*
X0239169Y0150753D01*
X0241631Y0149331D01*
X0244378Y0148595D01*
X0247222Y0148595D01*
X0249969Y0149331D01*
X0252431Y0150753D01*
X0254442Y0152764D01*
X0255864Y0155226D01*
X0256600Y0157973D01*
X0256600Y0160817D01*
X0255864Y0163564D01*
X0254442Y0166026D01*
X0252431Y0168037D01*
X0249969Y0169459D01*
X0247222Y0170195D01*
X0244378Y0170195D01*
X0241631Y0169459D01*
X0239169Y0168037D01*
X0237158Y0166026D01*
X0235800Y0163674D01*
X0235800Y0167596D01*
X0235191Y0169066D01*
X0225191Y0179066D01*
X0224066Y0180191D01*
X0222596Y0180800D01*
X0206004Y0180800D01*
X0204534Y0180191D01*
X0199534Y0175191D01*
X0198409Y0174066D01*
X0197800Y0172596D01*
X0197800Y0170051D01*
X0195810Y0168061D01*
X0193556Y0170315D01*
X0191725Y0170315D01*
X0191725Y0165365D01*
X0190975Y0165365D01*
X0190975Y0170315D01*
X0189144Y0170315D01*
X0186890Y0168061D01*
X0183236Y0171715D01*
X0177664Y0171715D01*
X0173725Y0167776D01*
X0173725Y0162205D01*
X0175410Y0160520D01*
X0172214Y0160520D01*
X0168275Y0156580D01*
X0168275Y0151009D01*
X0172214Y0147070D01*
X0177786Y0147070D01*
X0180450Y0149734D01*
X0183114Y0147070D01*
X0188686Y0147070D01*
X0191350Y0149734D01*
X0192800Y0148284D01*
X0192800Y0137600D01*
X0189398Y0137600D01*
X0187598Y0135800D01*
X0186002Y0135800D01*
X0184202Y0137600D01*
X0179398Y0137600D01*
X0176000Y0134202D01*
X0176000Y0133823D01*
X0173623Y0136200D01*
X0171800Y0136200D01*
X0171800Y0131800D01*
X0171800Y0131800D01*
X0171800Y0127400D01*
X0173623Y0127400D01*
X0176000Y0129777D01*
X0176000Y0129398D01*
X0179398Y0126000D01*
X0184202Y0126000D01*
X0186002Y0127800D01*
X0187598Y0127800D01*
X0189398Y0126000D01*
X0192800Y0126000D01*
X0192800Y0121004D01*
X0193409Y0119534D01*
X0194534Y0118409D01*
X0194534Y0118409D01*
X0217370Y0095573D01*
X0216800Y0095002D01*
X0214202Y0097600D01*
X0209398Y0097600D01*
X0206800Y0095002D01*
X0204202Y0097600D01*
X0199398Y0097600D01*
X0196800Y0095002D01*
X0194202Y0097600D01*
X0189398Y0097600D01*
X0186800Y0095002D01*
X0184202Y0097600D01*
X0179398Y0097600D01*
X0176800Y0095002D01*
X0174202Y0097600D01*
X0169398Y0097600D01*
X0166800Y0095002D01*
X0164202Y0097600D01*
X0159398Y0097600D01*
X0156000Y0094202D01*
X0156000Y0089398D01*
X0159398Y0086000D01*
X0164202Y0086000D01*
X0166800Y0088598D01*
X0169398Y0086000D01*
X0174202Y0086000D01*
X0176800Y0088598D01*
X0177800Y0087598D01*
X0177800Y0083457D01*
X0173763Y0079420D01*
X0173515Y0079317D01*
X0171883Y0077685D01*
X0171029Y0075623D01*
X0170878Y0076089D01*
X0170563Y0076706D01*
X0170156Y0077266D01*
X0169666Y0077756D01*
X0169106Y0078163D01*
X0168489Y0078478D01*
X0167830Y0078692D01*
X0167146Y0078800D01*
X0166800Y0078800D01*
X0166800Y0071800D01*
X0166800Y0071800D01*
X0166800Y0064800D01*
X0167146Y0064800D01*
X0167830Y0064908D01*
X0168489Y0065122D01*
X0169106Y0065437D01*
X0169666Y0065844D01*
X0170156Y0066334D01*
X0170563Y0066894D01*
X0170878Y0067511D01*
X0171029Y0067977D01*
X0171883Y0065915D01*
X0173515Y0064283D01*
X0175646Y0063400D01*
X0177954Y0063400D01*
X0180085Y0064283D01*
X0181717Y0065915D01*
X0181800Y0066115D01*
X0181883Y0065915D01*
X0183515Y0064283D01*
X0185646Y0063400D01*
X0187954Y0063400D01*
X0190085Y0064283D01*
X0191717Y0065915D01*
X0191800Y0066115D01*
X0191883Y0065915D01*
X0193515Y0064283D01*
X0195646Y0063400D01*
X0197954Y0063400D01*
X0200085Y0064283D01*
X0201717Y0065915D01*
X0201800Y0066115D01*
X0201883Y0065915D01*
X0203515Y0064283D01*
X0205646Y0063400D01*
X0207954Y0063400D01*
X0210085Y0064283D01*
X0211717Y0065915D01*
X0211800Y0066115D01*
X0211883Y0065915D01*
X0213515Y0064283D01*
X0215646Y0063400D01*
X0217954Y0063400D01*
X0220085Y0064283D01*
X0221717Y0065915D01*
X0221800Y0066115D01*
X0221883Y0065915D01*
X0223515Y0064283D01*
X0225646Y0063400D01*
X0227954Y0063400D01*
X0230085Y0064283D01*
X0231717Y0065915D01*
X0232600Y0068046D01*
X0232600Y0075554D01*
X0231717Y0077685D01*
X0230085Y0079317D01*
X0227954Y0080200D01*
X0225646Y0080200D01*
X0223515Y0079317D01*
X0221883Y0077685D01*
X0221800Y0077485D01*
X0221717Y0077685D01*
X0220085Y0079317D01*
X0217954Y0080200D01*
X0215646Y0080200D01*
X0213515Y0079317D01*
X0211883Y0077685D01*
X0211800Y0077485D01*
X0211717Y0077685D01*
X0210085Y0079317D01*
X0207954Y0080200D01*
X0205646Y0080200D01*
X0203515Y0079317D01*
X0201883Y0077685D01*
X0201800Y0077485D01*
X0201717Y0077685D01*
X0200085Y0079317D01*
X0197954Y0080200D01*
X0195646Y0080200D01*
X0193515Y0079317D01*
X0191883Y0077685D01*
X0191800Y0077485D01*
X0191717Y0077685D01*
X0190085Y0079317D01*
X0187954Y0080200D01*
X0185646Y0080200D01*
X0185430Y0080110D01*
X0185800Y0081004D01*
X0185800Y0087598D01*
X0186800Y0088598D01*
X0189398Y0086000D01*
X0194202Y0086000D01*
X0196800Y0088598D01*
X0199398Y0086000D01*
X0204202Y0086000D01*
X0206800Y0088598D01*
X0209398Y0086000D01*
X0214202Y0086000D01*
X0216800Y0088598D01*
X0219398Y0086000D01*
X0224202Y0086000D01*
X0226800Y0088598D01*
X0229398Y0086000D01*
X0234202Y0086000D01*
X0237600Y0089398D01*
X0237600Y0094202D01*
X0234202Y0097600D01*
X0229398Y0097600D01*
X0226800Y0095002D01*
X0225800Y0096002D01*
X0225800Y0097596D01*
X0225191Y0099066D01*
X0224066Y0100191D01*
X0224066Y0100191D01*
X0200800Y0123457D01*
X0200800Y0126000D01*
X0204202Y0126000D01*
X0206002Y0127800D01*
X0207598Y0127800D01*
X0209398Y0126000D01*
X0214202Y0126000D01*
X0216002Y0127800D01*
X0217598Y0127800D01*
X0219398Y0126000D01*
X0224202Y0126000D01*
X0226002Y0127800D01*
X0227598Y0127800D01*
X0229398Y0126000D01*
X0234202Y0126000D01*
X0235573Y0127370D01*
X0238409Y0124534D01*
X0238469Y0124474D01*
X0238913Y0123401D01*
X0240601Y0121713D01*
X0242800Y0120803D01*
X0242800Y0073457D01*
X0223409Y0054066D01*
X0222800Y0052596D01*
X0222800Y0048602D01*
X0221883Y0047685D01*
X0221800Y0047485D01*
X0221717Y0047685D01*
X0220085Y0049317D01*
X0217954Y0050200D01*
X0215646Y0050200D01*
X0213515Y0049317D01*
X0211883Y0047685D01*
X0211800Y0047485D01*
X0211717Y0047685D01*
X0210085Y0049317D01*
X0207954Y0050200D01*
X0205646Y0050200D01*
X0203515Y0049317D01*
X0201883Y0047685D01*
X0201800Y0047485D01*
X0201717Y0047685D01*
X0200085Y0049317D01*
X0197954Y0050200D01*
X0195646Y0050200D01*
X0193515Y0049317D01*
X0191883Y0047685D01*
X0191800Y0047485D01*
X0191717Y0047685D01*
X0190085Y0049317D01*
X0187954Y0050200D01*
X0185646Y0050200D01*
X0183515Y0049317D01*
X0181883Y0047685D01*
X0181800Y0047485D01*
X0181717Y0047685D01*
X0180085Y0049317D01*
X0177954Y0050200D01*
X0175646Y0050200D01*
X0173515Y0049317D01*
X0171883Y0047685D01*
X0171800Y0047485D01*
X0171717Y0047685D01*
X0170085Y0049317D01*
X0167954Y0050200D01*
X0165646Y0050200D01*
X0163515Y0049317D01*
X0161883Y0047685D01*
X0161000Y0045554D01*
X0161000Y0038046D01*
X0161883Y0035915D01*
X0163515Y0034283D01*
X0165646Y0033400D01*
X0162429Y0035369D02*
X0101171Y0035369D01*
X0102153Y0036967D02*
X0161447Y0036967D01*
X0161000Y0038566D02*
X0102600Y0038566D01*
X0102600Y0040164D02*
X0161000Y0040164D01*
X0161000Y0041763D02*
X0102600Y0041763D01*
X0102600Y0043361D02*
X0161000Y0043361D01*
X0161000Y0044960D02*
X0102600Y0044960D01*
X0102184Y0046558D02*
X0161416Y0046558D01*
X0162354Y0048157D02*
X0101246Y0048157D01*
X0100800Y0049755D02*
X0164573Y0049755D01*
X0169027Y0049755D02*
X0174573Y0049755D01*
X0172354Y0048157D02*
X0171246Y0048157D01*
X0179027Y0049755D02*
X0184573Y0049755D01*
X0182354Y0048157D02*
X0181246Y0048157D01*
X0189027Y0049755D02*
X0194573Y0049755D01*
X0192354Y0048157D02*
X0191246Y0048157D01*
X0199027Y0049755D02*
X0204573Y0049755D01*
X0202354Y0048157D02*
X0201246Y0048157D01*
X0209027Y0049755D02*
X0214573Y0049755D01*
X0212354Y0048157D02*
X0211246Y0048157D01*
X0219027Y0049755D02*
X0222800Y0049755D01*
X0222800Y0051354D02*
X0102011Y0051354D01*
X0103609Y0052952D02*
X0222948Y0052952D01*
X0223894Y0054551D02*
X0105208Y0054551D01*
X0106806Y0056149D02*
X0225493Y0056149D01*
X0227091Y0057748D02*
X0108405Y0057748D01*
X0110003Y0059346D02*
X0228690Y0059346D01*
X0230288Y0060945D02*
X0111602Y0060945D01*
X0113200Y0062543D02*
X0231887Y0062543D01*
X0233485Y0064142D02*
X0229745Y0064142D01*
X0231543Y0065740D02*
X0235084Y0065740D01*
X0236682Y0067339D02*
X0232307Y0067339D01*
X0232600Y0068937D02*
X0238281Y0068937D01*
X0239879Y0070536D02*
X0232600Y0070536D01*
X0232600Y0072134D02*
X0241478Y0072134D01*
X0242800Y0073733D02*
X0232600Y0073733D01*
X0232600Y0075332D02*
X0242800Y0075332D01*
X0242800Y0076930D02*
X0232030Y0076930D01*
X0230874Y0078529D02*
X0242800Y0078529D01*
X0242800Y0080127D02*
X0228130Y0080127D01*
X0225470Y0080127D02*
X0218130Y0080127D01*
X0215470Y0080127D02*
X0208130Y0080127D01*
X0205470Y0080127D02*
X0198130Y0080127D01*
X0195470Y0080127D02*
X0188130Y0080127D01*
X0185470Y0080127D02*
X0185437Y0080127D01*
X0185800Y0081726D02*
X0242800Y0081726D01*
X0242800Y0083324D02*
X0185800Y0083324D01*
X0185800Y0084923D02*
X0242800Y0084923D01*
X0242800Y0086521D02*
X0234724Y0086521D01*
X0236322Y0088120D02*
X0242800Y0088120D01*
X0242800Y0089718D02*
X0237600Y0089718D01*
X0237600Y0091317D02*
X0242800Y0091317D01*
X0242800Y0092915D02*
X0237600Y0092915D01*
X0237289Y0094514D02*
X0242800Y0094514D01*
X0242800Y0096112D02*
X0235690Y0096112D01*
X0242800Y0097711D02*
X0225752Y0097711D01*
X0225800Y0096112D02*
X0227910Y0096112D01*
X0224948Y0099309D02*
X0242800Y0099309D01*
X0242800Y0100908D02*
X0223349Y0100908D01*
X0221751Y0102506D02*
X0242800Y0102506D01*
X0242800Y0104105D02*
X0220152Y0104105D01*
X0218554Y0105703D02*
X0242800Y0105703D01*
X0242800Y0107302D02*
X0216955Y0107302D01*
X0215357Y0108900D02*
X0242800Y0108900D01*
X0242800Y0110499D02*
X0213758Y0110499D01*
X0212160Y0112097D02*
X0242800Y0112097D01*
X0242800Y0113696D02*
X0210561Y0113696D01*
X0208963Y0115294D02*
X0242800Y0115294D01*
X0242800Y0116893D02*
X0207364Y0116893D01*
X0205766Y0118491D02*
X0242800Y0118491D01*
X0242800Y0120090D02*
X0204167Y0120090D01*
X0202568Y0121688D02*
X0240662Y0121688D01*
X0239028Y0123287D02*
X0200970Y0123287D01*
X0200800Y0124885D02*
X0238058Y0124885D01*
X0236459Y0126484D02*
X0234686Y0126484D01*
X0236800Y0131800D02*
X0231800Y0131800D01*
X0221800Y0131800D01*
X0211800Y0131800D01*
X0201800Y0131800D01*
X0206002Y0135800D02*
X0204202Y0137600D01*
X0200800Y0137600D01*
X0200800Y0148284D01*
X0202250Y0149734D01*
X0204914Y0147070D01*
X0210486Y0147070D01*
X0213150Y0149734D01*
X0215814Y0147070D01*
X0221386Y0147070D01*
X0225325Y0151009D01*
X0225325Y0156580D01*
X0221386Y0160520D01*
X0218190Y0160520D01*
X0219875Y0162205D01*
X0219875Y0167776D01*
X0215936Y0171715D01*
X0210364Y0171715D01*
X0207700Y0169051D01*
X0206204Y0170547D01*
X0208457Y0172800D01*
X0220143Y0172800D01*
X0227800Y0165143D01*
X0227800Y0146004D01*
X0228409Y0144534D01*
X0229534Y0143409D01*
X0237143Y0135800D01*
X0236002Y0135800D01*
X0234202Y0137600D01*
X0229398Y0137600D01*
X0227598Y0135800D01*
X0226002Y0135800D01*
X0224202Y0137600D01*
X0219398Y0137600D01*
X0217598Y0135800D01*
X0216002Y0135800D01*
X0214202Y0137600D01*
X0209398Y0137600D01*
X0207598Y0135800D01*
X0206002Y0135800D01*
X0205727Y0136075D02*
X0207873Y0136075D01*
X0200800Y0137673D02*
X0235270Y0137673D01*
X0235727Y0136075D02*
X0236868Y0136075D01*
X0236800Y0131800D02*
X0241800Y0126800D01*
X0246800Y0126800D01*
X0246800Y0071800D01*
X0226800Y0051800D01*
X0226800Y0041800D01*
X0232600Y0041763D02*
X0257000Y0041763D01*
X0257000Y0043361D02*
X0232600Y0043361D01*
X0232600Y0044960D02*
X0257000Y0044960D01*
X0257000Y0046558D02*
X0232184Y0046558D01*
X0231246Y0048157D02*
X0257000Y0048157D01*
X0257000Y0049755D02*
X0230800Y0049755D01*
X0232011Y0051354D02*
X0257000Y0051354D01*
X0257000Y0052952D02*
X0233609Y0052952D01*
X0235208Y0054551D02*
X0257000Y0054551D01*
X0257000Y0056149D02*
X0236806Y0056149D01*
X0238405Y0057748D02*
X0257000Y0057748D01*
X0257000Y0059346D02*
X0240003Y0059346D01*
X0241602Y0060945D02*
X0257000Y0060945D01*
X0257000Y0062543D02*
X0243200Y0062543D01*
X0244799Y0064142D02*
X0257000Y0064142D01*
X0257000Y0065740D02*
X0246397Y0065740D01*
X0247996Y0067339D02*
X0257000Y0067339D01*
X0257000Y0068937D02*
X0249594Y0068937D01*
X0250606Y0070536D02*
X0257000Y0070536D01*
X0257000Y0072134D02*
X0250800Y0072134D01*
X0250800Y0073733D02*
X0257000Y0073733D01*
X0257000Y0075332D02*
X0250800Y0075332D01*
X0250800Y0076930D02*
X0257000Y0076930D01*
X0257000Y0078529D02*
X0250800Y0078529D01*
X0250800Y0080127D02*
X0257000Y0080127D01*
X0257000Y0081726D02*
X0250800Y0081726D01*
X0250800Y0083324D02*
X0257000Y0083324D01*
X0257000Y0084923D02*
X0250800Y0084923D01*
X0250800Y0086521D02*
X0257000Y0086521D01*
X0257000Y0088120D02*
X0250800Y0088120D01*
X0250800Y0089718D02*
X0257000Y0089718D01*
X0257000Y0091317D02*
X0250800Y0091317D01*
X0250800Y0092915D02*
X0257000Y0092915D01*
X0257000Y0094514D02*
X0250800Y0094514D01*
X0250800Y0096112D02*
X0257000Y0096112D01*
X0257000Y0097711D02*
X0250800Y0097711D01*
X0250800Y0099309D02*
X0257000Y0099309D01*
X0257000Y0100908D02*
X0250800Y0100908D01*
X0250800Y0102506D02*
X0257000Y0102506D01*
X0257000Y0104105D02*
X0250800Y0104105D01*
X0250800Y0105703D02*
X0257000Y0105703D01*
X0257000Y0107302D02*
X0250800Y0107302D01*
X0250800Y0108900D02*
X0257000Y0108900D01*
X0257000Y0110499D02*
X0250800Y0110499D01*
X0250800Y0112097D02*
X0257000Y0112097D01*
X0257000Y0113696D02*
X0250800Y0113696D01*
X0250800Y0115294D02*
X0257000Y0115294D01*
X0257000Y0116893D02*
X0250800Y0116893D01*
X0250800Y0118491D02*
X0257000Y0118491D01*
X0257000Y0120090D02*
X0250800Y0120090D01*
X0252938Y0121688D02*
X0257000Y0121688D01*
X0257000Y0123287D02*
X0254572Y0123287D01*
X0255301Y0124885D02*
X0257000Y0124885D01*
X0257000Y0126484D02*
X0255600Y0126484D01*
X0255563Y0128082D02*
X0257000Y0128082D01*
X0257000Y0129681D02*
X0254901Y0129681D01*
X0253606Y0131279D02*
X0257000Y0131279D01*
X0257000Y0132878D02*
X0254163Y0132878D01*
X0255132Y0134476D02*
X0257000Y0134476D01*
X0257000Y0136075D02*
X0255600Y0136075D01*
X0255600Y0137673D02*
X0257000Y0137673D01*
X0257000Y0139272D02*
X0255070Y0139272D01*
X0254015Y0140870D02*
X0257000Y0140870D01*
X0257000Y0142469D02*
X0251593Y0142469D01*
X0257000Y0144068D02*
X0240189Y0144068D01*
X0238591Y0145666D02*
X0257000Y0145666D01*
X0257000Y0147265D02*
X0236992Y0147265D01*
X0235800Y0148863D02*
X0243377Y0148863D01*
X0239673Y0150462D02*
X0235800Y0150462D01*
X0235800Y0152060D02*
X0237861Y0152060D01*
X0236641Y0153659D02*
X0235800Y0153659D01*
X0231800Y0146800D02*
X0231800Y0166800D01*
X0221800Y0176800D01*
X0206800Y0176800D01*
X0201800Y0171800D01*
X0201800Y0165440D01*
X0202250Y0164990D01*
X0197393Y0169644D02*
X0194227Y0169644D01*
X0191725Y0169644D02*
X0190975Y0169644D01*
X0190975Y0168045D02*
X0191725Y0168045D01*
X0191725Y0166447D02*
X0190975Y0166447D01*
X0190975Y0164615D02*
X0191725Y0164615D01*
X0191725Y0159665D01*
X0193160Y0159665D01*
X0191350Y0157855D01*
X0189540Y0159665D01*
X0190975Y0159665D01*
X0190975Y0164615D01*
X0190975Y0163250D02*
X0191725Y0163250D01*
X0191725Y0161651D02*
X0190975Y0161651D01*
X0190975Y0160053D02*
X0191725Y0160053D01*
X0191949Y0158454D02*
X0190751Y0158454D01*
X0188290Y0160520D02*
X0186890Y0161920D01*
X0185490Y0160520D01*
X0188290Y0160520D01*
X0187158Y0161651D02*
X0186622Y0161651D01*
X0180860Y0158265D02*
X0180450Y0157855D01*
X0180040Y0158265D01*
X0180860Y0158265D01*
X0174278Y0161651D02*
X0158376Y0161651D01*
X0158600Y0160817D02*
X0157864Y0163564D01*
X0156442Y0166026D01*
X0154431Y0168037D01*
X0151969Y0169459D01*
X0149222Y0170195D01*
X0146378Y0170195D01*
X0143631Y0169459D01*
X0141169Y0168037D01*
X0139158Y0166026D01*
X0137736Y0163564D01*
X0137000Y0160817D01*
X0137000Y0157973D01*
X0137736Y0155226D01*
X0139158Y0152764D01*
X0141169Y0150753D01*
X0143631Y0149331D01*
X0146378Y0148595D01*
X0149222Y0148595D01*
X0151969Y0149331D01*
X0154431Y0150753D01*
X0156442Y0152764D01*
X0157864Y0155226D01*
X0158600Y0157973D01*
X0158600Y0160817D01*
X0158600Y0160053D02*
X0171747Y0160053D01*
X0170149Y0158454D02*
X0158600Y0158454D01*
X0158301Y0156856D02*
X0168550Y0156856D01*
X0168275Y0155257D02*
X0157872Y0155257D01*
X0156959Y0153659D02*
X0168275Y0153659D01*
X0168275Y0152060D02*
X0155739Y0152060D01*
X0153927Y0150462D02*
X0168823Y0150462D01*
X0170421Y0148863D02*
X0150223Y0148863D01*
X0145377Y0148863D02*
X0118223Y0148863D01*
X0113377Y0148863D02*
X0105800Y0148863D01*
X0105800Y0150462D02*
X0109673Y0150462D01*
X0107861Y0152060D02*
X0105800Y0152060D01*
X0105800Y0153659D02*
X0106641Y0153659D01*
X0106992Y0147265D02*
X0172020Y0147265D01*
X0177980Y0147265D02*
X0182920Y0147265D01*
X0181321Y0148863D02*
X0179579Y0148863D01*
X0188880Y0147265D02*
X0192800Y0147265D01*
X0192800Y0145666D02*
X0108591Y0145666D01*
X0110189Y0144068D02*
X0192800Y0144068D01*
X0192800Y0142469D02*
X0121593Y0142469D01*
X0124015Y0140870D02*
X0192800Y0140870D01*
X0192800Y0139272D02*
X0125070Y0139272D01*
X0125600Y0137673D02*
X0192800Y0137673D01*
X0187873Y0136075D02*
X0185727Y0136075D01*
X0181800Y0131800D02*
X0191800Y0131800D01*
X0188914Y0126484D02*
X0184686Y0126484D01*
X0178914Y0126484D02*
X0125600Y0126484D01*
X0125563Y0128082D02*
X0159295Y0128082D01*
X0159977Y0127400D02*
X0157400Y0129977D01*
X0157400Y0131800D01*
X0161800Y0131800D01*
X0161800Y0131800D01*
X0161800Y0136200D01*
X0163623Y0136200D01*
X0166200Y0133623D01*
X0166200Y0131800D01*
X0161800Y0131800D01*
X0161800Y0131800D01*
X0161800Y0131800D01*
X0161800Y0136200D01*
X0159977Y0136200D01*
X0157400Y0133623D01*
X0157400Y0131800D01*
X0161800Y0131800D01*
X0166200Y0131800D01*
X0166200Y0129977D01*
X0163623Y0127400D01*
X0161800Y0127400D01*
X0161800Y0131800D01*
X0161800Y0131800D01*
X0161800Y0127400D01*
X0159977Y0127400D01*
X0161800Y0128082D02*
X0161800Y0128082D01*
X0161800Y0129681D02*
X0161800Y0129681D01*
X0161800Y0131279D02*
X0161800Y0131279D01*
X0161800Y0132878D02*
X0161800Y0132878D01*
X0161800Y0134476D02*
X0161800Y0134476D01*
X0161800Y0136075D02*
X0161800Y0136075D01*
X0163748Y0136075D02*
X0169852Y0136075D01*
X0169977Y0136200D02*
X0167400Y0133623D01*
X0167400Y0131800D01*
X0171800Y0131800D01*
X0171800Y0131800D01*
X0171800Y0131800D01*
X0171800Y0136200D01*
X0169977Y0136200D01*
X0171800Y0136075D02*
X0171800Y0136075D01*
X0171800Y0134476D02*
X0171800Y0134476D01*
X0171800Y0132878D02*
X0171800Y0132878D01*
X0171800Y0131800D02*
X0167400Y0131800D01*
X0167400Y0129977D01*
X0169977Y0127400D01*
X0171800Y0127400D01*
X0171800Y0131800D01*
X0171800Y0131279D02*
X0171800Y0131279D01*
X0171800Y0129681D02*
X0171800Y0129681D01*
X0171800Y0128082D02*
X0171800Y0128082D01*
X0174305Y0128082D02*
X0177315Y0128082D01*
X0176000Y0129681D02*
X0175903Y0129681D01*
X0176274Y0134476D02*
X0175346Y0134476D01*
X0173748Y0136075D02*
X0177873Y0136075D01*
X0169295Y0128082D02*
X0164305Y0128082D01*
X0165903Y0129681D02*
X0167697Y0129681D01*
X0167400Y0131279D02*
X0166200Y0131279D01*
X0166200Y0132878D02*
X0167400Y0132878D01*
X0168254Y0134476D02*
X0165346Y0134476D01*
X0159852Y0136075D02*
X0125600Y0136075D01*
X0125132Y0134476D02*
X0158254Y0134476D01*
X0157400Y0132878D02*
X0124163Y0132878D01*
X0123606Y0131279D02*
X0157400Y0131279D01*
X0157697Y0129681D02*
X0124901Y0129681D01*
X0125301Y0124885D02*
X0192800Y0124885D01*
X0192800Y0123287D02*
X0124572Y0123287D01*
X0122938Y0121688D02*
X0192800Y0121688D01*
X0193179Y0120090D02*
X0120800Y0120090D01*
X0120800Y0118491D02*
X0194452Y0118491D01*
X0196050Y0116893D02*
X0120800Y0116893D01*
X0120800Y0115294D02*
X0197649Y0115294D01*
X0199247Y0113696D02*
X0120800Y0113696D01*
X0120800Y0112097D02*
X0200846Y0112097D01*
X0202444Y0110499D02*
X0120800Y0110499D01*
X0120800Y0108900D02*
X0204043Y0108900D01*
X0205641Y0107302D02*
X0120800Y0107302D01*
X0120800Y0105703D02*
X0207240Y0105703D01*
X0208838Y0104105D02*
X0120800Y0104105D01*
X0120800Y0102506D02*
X0210437Y0102506D01*
X0212035Y0100908D02*
X0120800Y0100908D01*
X0120800Y0099309D02*
X0213634Y0099309D01*
X0215232Y0097711D02*
X0120800Y0097711D01*
X0120800Y0096112D02*
X0157910Y0096112D01*
X0156311Y0094514D02*
X0120800Y0094514D01*
X0120800Y0092915D02*
X0156000Y0092915D01*
X0156000Y0091317D02*
X0120800Y0091317D01*
X0120800Y0089718D02*
X0156000Y0089718D01*
X0157278Y0088120D02*
X0120800Y0088120D01*
X0120800Y0086521D02*
X0158876Y0086521D01*
X0164724Y0086521D02*
X0168876Y0086521D01*
X0167278Y0088120D02*
X0166322Y0088120D01*
X0174724Y0086521D02*
X0177800Y0086521D01*
X0177800Y0084923D02*
X0120800Y0084923D01*
X0120800Y0083324D02*
X0177667Y0083324D01*
X0176069Y0081726D02*
X0120800Y0081726D01*
X0120800Y0080127D02*
X0174470Y0080127D01*
X0172726Y0078529D02*
X0168332Y0078529D01*
X0166800Y0078529D02*
X0166800Y0078529D01*
X0166800Y0078800D02*
X0166454Y0078800D01*
X0165770Y0078692D01*
X0165111Y0078478D01*
X0164494Y0078163D01*
X0163934Y0077756D01*
X0163444Y0077266D01*
X0163037Y0076706D01*
X0162722Y0076089D01*
X0162508Y0075430D01*
X0162400Y0074746D01*
X0162400Y0071800D01*
X0166800Y0071800D01*
X0166800Y0071800D01*
X0166800Y0071800D01*
X0166800Y0078800D01*
X0165268Y0078529D02*
X0120800Y0078529D01*
X0120800Y0076930D02*
X0163199Y0076930D01*
X0162493Y0075332D02*
X0120800Y0075332D01*
X0120800Y0073733D02*
X0162400Y0073733D01*
X0162400Y0072134D02*
X0120800Y0072134D01*
X0120606Y0070536D02*
X0162400Y0070536D01*
X0162400Y0071800D02*
X0162400Y0068854D01*
X0162508Y0068170D01*
X0162722Y0067511D01*
X0163037Y0066894D01*
X0163444Y0066334D01*
X0163934Y0065844D01*
X0164494Y0065437D01*
X0165111Y0065122D01*
X0165770Y0064908D01*
X0166454Y0064800D01*
X0166800Y0064800D01*
X0166800Y0071800D01*
X0162400Y0071800D01*
X0162400Y0068937D02*
X0119594Y0068937D01*
X0117996Y0067339D02*
X0162810Y0067339D01*
X0164076Y0065740D02*
X0116397Y0065740D01*
X0114799Y0064142D02*
X0173855Y0064142D01*
X0172057Y0065740D02*
X0169524Y0065740D01*
X0170790Y0067339D02*
X0171293Y0067339D01*
X0166800Y0067339D02*
X0166800Y0067339D01*
X0166800Y0068937D02*
X0166800Y0068937D01*
X0166800Y0070536D02*
X0166800Y0070536D01*
X0166800Y0072134D02*
X0166800Y0072134D01*
X0166800Y0073733D02*
X0166800Y0073733D01*
X0166800Y0075332D02*
X0166800Y0075332D01*
X0166800Y0076930D02*
X0166800Y0076930D01*
X0170401Y0076930D02*
X0171570Y0076930D01*
X0176800Y0076800D02*
X0176800Y0071800D01*
X0176800Y0076800D02*
X0181800Y0081800D01*
X0181800Y0091800D01*
X0177910Y0096112D02*
X0175690Y0096112D01*
X0167910Y0096112D02*
X0165690Y0096112D01*
X0176322Y0088120D02*
X0177278Y0088120D01*
X0185800Y0086521D02*
X0188876Y0086521D01*
X0187278Y0088120D02*
X0186322Y0088120D01*
X0194724Y0086521D02*
X0198876Y0086521D01*
X0197278Y0088120D02*
X0196322Y0088120D01*
X0204724Y0086521D02*
X0208876Y0086521D01*
X0207278Y0088120D02*
X0206322Y0088120D01*
X0214724Y0086521D02*
X0218876Y0086521D01*
X0217278Y0088120D02*
X0216322Y0088120D01*
X0221800Y0091800D02*
X0221800Y0096800D01*
X0196800Y0121800D01*
X0196800Y0153795D01*
X0201379Y0148863D02*
X0203121Y0148863D01*
X0204720Y0147265D02*
X0200800Y0147265D01*
X0200800Y0145666D02*
X0227940Y0145666D01*
X0227800Y0147265D02*
X0221580Y0147265D01*
X0223179Y0148863D02*
X0227800Y0148863D01*
X0227800Y0150462D02*
X0224777Y0150462D01*
X0225325Y0152060D02*
X0227800Y0152060D01*
X0227800Y0153659D02*
X0225325Y0153659D01*
X0225325Y0155257D02*
X0227800Y0155257D01*
X0227800Y0156856D02*
X0225050Y0156856D01*
X0223451Y0158454D02*
X0227800Y0158454D01*
X0227800Y0160053D02*
X0221853Y0160053D01*
X0219322Y0161651D02*
X0227800Y0161651D01*
X0227800Y0163250D02*
X0219875Y0163250D01*
X0219875Y0164848D02*
X0227800Y0164848D01*
X0226496Y0166447D02*
X0219875Y0166447D01*
X0219606Y0168045D02*
X0224898Y0168045D01*
X0223299Y0169644D02*
X0218007Y0169644D01*
X0216409Y0171242D02*
X0221701Y0171242D01*
X0228219Y0176038D02*
X0257000Y0176038D01*
X0257000Y0177636D02*
X0226621Y0177636D01*
X0225022Y0179235D02*
X0257000Y0179235D01*
X0257000Y0180833D02*
X0006600Y0180833D01*
X0006600Y0179235D02*
X0073578Y0179235D01*
X0071979Y0177636D02*
X0006600Y0177636D01*
X0006600Y0176038D02*
X0070381Y0176038D01*
X0068782Y0174439D02*
X0006600Y0174439D01*
X0006600Y0172841D02*
X0067902Y0172841D01*
X0067800Y0171242D02*
X0053709Y0171242D01*
X0055307Y0169644D02*
X0058473Y0169644D01*
X0060975Y0169644D02*
X0061725Y0169644D01*
X0061725Y0168045D02*
X0060975Y0168045D01*
X0060975Y0166447D02*
X0061725Y0166447D01*
X0061725Y0164615D02*
X0061725Y0159665D01*
X0063160Y0159665D01*
X0061350Y0157855D01*
X0059540Y0159665D01*
X0060975Y0159665D01*
X0060975Y0164615D01*
X0061725Y0164615D01*
X0061725Y0163250D02*
X0060975Y0163250D01*
X0060975Y0161651D02*
X0061725Y0161651D01*
X0061725Y0160053D02*
X0060975Y0160053D01*
X0060751Y0158454D02*
X0061949Y0158454D01*
X0064410Y0160520D02*
X0065810Y0161920D01*
X0067210Y0160520D01*
X0064410Y0160520D01*
X0065542Y0161651D02*
X0066078Y0161651D01*
X0071840Y0158265D02*
X0072660Y0158265D01*
X0072250Y0157855D01*
X0071840Y0158265D01*
X0077290Y0160520D02*
X0077700Y0160930D01*
X0078110Y0160520D01*
X0077290Y0160520D01*
X0082740Y0158265D02*
X0083560Y0158265D01*
X0083150Y0157855D01*
X0082740Y0158265D01*
X0089322Y0161651D02*
X0097800Y0161651D01*
X0097800Y0160053D02*
X0091853Y0160053D01*
X0093451Y0158454D02*
X0097800Y0158454D01*
X0097800Y0156856D02*
X0095050Y0156856D01*
X0095325Y0155257D02*
X0097800Y0155257D01*
X0097800Y0153659D02*
X0095325Y0153659D01*
X0095325Y0152060D02*
X0097800Y0152060D01*
X0097800Y0150462D02*
X0094777Y0150462D01*
X0093179Y0148863D02*
X0097800Y0148863D01*
X0097800Y0147265D02*
X0091580Y0147265D01*
X0085620Y0147265D02*
X0080680Y0147265D01*
X0082279Y0148863D02*
X0084021Y0148863D01*
X0085727Y0136075D02*
X0087873Y0136075D01*
X0095727Y0136075D02*
X0097873Y0136075D01*
X0098914Y0126484D02*
X0094686Y0126484D01*
X0088914Y0126484D02*
X0084686Y0126484D01*
X0078914Y0126484D02*
X0074686Y0126484D01*
X0074371Y0124885D02*
X0108058Y0124885D01*
X0109028Y0123287D02*
X0075970Y0123287D01*
X0077568Y0121688D02*
X0110662Y0121688D01*
X0112800Y0120090D02*
X0079167Y0120090D01*
X0080766Y0118491D02*
X0112800Y0118491D01*
X0112800Y0116893D02*
X0082364Y0116893D01*
X0083963Y0115294D02*
X0112800Y0115294D01*
X0112800Y0113696D02*
X0085561Y0113696D01*
X0087160Y0112097D02*
X0112800Y0112097D01*
X0112800Y0110499D02*
X0088758Y0110499D01*
X0090357Y0108900D02*
X0112800Y0108900D01*
X0112800Y0107302D02*
X0091955Y0107302D01*
X0093554Y0105703D02*
X0112800Y0105703D01*
X0112800Y0104105D02*
X0095152Y0104105D01*
X0095800Y0102506D02*
X0112800Y0102506D01*
X0112800Y0100908D02*
X0095800Y0100908D01*
X0095800Y0099309D02*
X0112800Y0099309D01*
X0112800Y0097711D02*
X0095800Y0097711D01*
X0095800Y0096112D02*
X0097910Y0096112D01*
X0105690Y0096112D02*
X0112800Y0096112D01*
X0112800Y0094514D02*
X0107289Y0094514D01*
X0107600Y0092915D02*
X0112800Y0092915D01*
X0112800Y0091317D02*
X0107600Y0091317D01*
X0107600Y0089718D02*
X0112800Y0089718D01*
X0112800Y0088120D02*
X0106322Y0088120D01*
X0104724Y0086521D02*
X0112800Y0086521D01*
X0112800Y0084923D02*
X0055800Y0084923D01*
X0055800Y0086521D02*
X0058876Y0086521D01*
X0057278Y0088120D02*
X0056322Y0088120D01*
X0055800Y0083324D02*
X0112800Y0083324D01*
X0112800Y0081726D02*
X0055800Y0081726D01*
X0055470Y0080127D02*
X0055437Y0080127D01*
X0058130Y0080127D02*
X0065470Y0080127D01*
X0068130Y0080127D02*
X0075470Y0080127D01*
X0078130Y0080127D02*
X0085470Y0080127D01*
X0082726Y0078529D02*
X0080874Y0078529D01*
X0076800Y0071800D02*
X0086800Y0071800D01*
X0082057Y0065740D02*
X0081543Y0065740D01*
X0079745Y0064142D02*
X0083855Y0064142D01*
X0089745Y0064142D02*
X0093855Y0064142D01*
X0092057Y0065740D02*
X0091543Y0065740D01*
X0090874Y0078529D02*
X0092726Y0078529D01*
X0078876Y0086521D02*
X0074724Y0086521D01*
X0076322Y0088120D02*
X0077278Y0088120D01*
X0068876Y0086521D02*
X0064724Y0086521D01*
X0066322Y0088120D02*
X0067278Y0088120D01*
X0067910Y0096112D02*
X0065690Y0096112D01*
X0057910Y0096112D02*
X0055690Y0096112D01*
X0051800Y0091800D02*
X0051800Y0081800D01*
X0046800Y0076800D01*
X0046800Y0071800D01*
X0041293Y0067339D02*
X0040790Y0067339D01*
X0039524Y0065740D02*
X0042057Y0065740D01*
X0043855Y0064142D02*
X0006600Y0064142D01*
X0006600Y0065740D02*
X0034076Y0065740D01*
X0033934Y0065844D02*
X0034494Y0065437D01*
X0035111Y0065122D01*
X0035770Y0064908D01*
X0036454Y0064800D01*
X0036800Y0064800D01*
X0036800Y0071800D01*
X0036800Y0071800D01*
X0032400Y0071800D01*
X0032400Y0068854D01*
X0032508Y0068170D01*
X0032722Y0067511D01*
X0033037Y0066894D01*
X0033444Y0066334D01*
X0033934Y0065844D01*
X0032810Y0067339D02*
X0006600Y0067339D01*
X0006600Y0068937D02*
X0032400Y0068937D01*
X0032400Y0070536D02*
X0006600Y0070536D01*
X0006600Y0072134D02*
X0032400Y0072134D01*
X0032400Y0073733D02*
X0006600Y0073733D01*
X0006600Y0075332D02*
X0032493Y0075332D01*
X0033199Y0076930D02*
X0006600Y0076930D01*
X0006600Y0078529D02*
X0035268Y0078529D01*
X0036800Y0078529D02*
X0036800Y0078529D01*
X0038332Y0078529D02*
X0042726Y0078529D01*
X0041570Y0076930D02*
X0040401Y0076930D01*
X0036800Y0076930D02*
X0036800Y0076930D01*
X0036800Y0075332D02*
X0036800Y0075332D01*
X0036800Y0073733D02*
X0036800Y0073733D01*
X0036800Y0072134D02*
X0036800Y0072134D01*
X0036800Y0070536D02*
X0036800Y0070536D01*
X0036800Y0068937D02*
X0036800Y0068937D01*
X0036800Y0067339D02*
X0036800Y0067339D01*
X0036800Y0065740D02*
X0036800Y0065740D01*
X0049745Y0064142D02*
X0053855Y0064142D01*
X0052057Y0065740D02*
X0051543Y0065740D01*
X0059745Y0064142D02*
X0063855Y0064142D01*
X0062057Y0065740D02*
X0061543Y0065740D01*
X0069745Y0064142D02*
X0073855Y0064142D01*
X0072057Y0065740D02*
X0071543Y0065740D01*
X0070874Y0078529D02*
X0072726Y0078529D01*
X0062726Y0078529D02*
X0060874Y0078529D01*
X0047667Y0083324D02*
X0006600Y0083324D01*
X0006600Y0081726D02*
X0046069Y0081726D01*
X0044470Y0080127D02*
X0006600Y0080127D01*
X0006600Y0084923D02*
X0047800Y0084923D01*
X0047800Y0086521D02*
X0044724Y0086521D01*
X0046322Y0088120D02*
X0047278Y0088120D01*
X0038876Y0086521D02*
X0034724Y0086521D01*
X0036322Y0088120D02*
X0037278Y0088120D01*
X0037910Y0096112D02*
X0035690Y0096112D01*
X0027910Y0096112D02*
X0006600Y0096112D01*
X0006600Y0094514D02*
X0026311Y0094514D01*
X0026000Y0092915D02*
X0006600Y0092915D01*
X0006600Y0091317D02*
X0026000Y0091317D01*
X0026000Y0089718D02*
X0006600Y0089718D01*
X0006600Y0088120D02*
X0027278Y0088120D01*
X0028876Y0086521D02*
X0006600Y0086521D01*
X0006600Y0097711D02*
X0087800Y0097711D01*
X0087800Y0099309D02*
X0006600Y0099309D01*
X0006600Y0100908D02*
X0087035Y0100908D01*
X0085437Y0102506D02*
X0006600Y0102506D01*
X0006600Y0104105D02*
X0083838Y0104105D01*
X0082240Y0105703D02*
X0006600Y0105703D01*
X0006600Y0107302D02*
X0080641Y0107302D01*
X0079043Y0108900D02*
X0006600Y0108900D01*
X0006600Y0110499D02*
X0077444Y0110499D01*
X0075846Y0112097D02*
X0006600Y0112097D01*
X0006600Y0113696D02*
X0074247Y0113696D01*
X0072649Y0115294D02*
X0006600Y0115294D01*
X0006600Y0116893D02*
X0071050Y0116893D01*
X0069452Y0118491D02*
X0006600Y0118491D01*
X0006600Y0120090D02*
X0067853Y0120090D01*
X0066255Y0121688D02*
X0006600Y0121688D01*
X0006600Y0123287D02*
X0064656Y0123287D01*
X0063263Y0124885D02*
X0006600Y0124885D01*
X0006600Y0126484D02*
X0048914Y0126484D01*
X0047315Y0128082D02*
X0044305Y0128082D01*
X0045903Y0129681D02*
X0046000Y0129681D01*
X0041800Y0129681D02*
X0041800Y0129681D01*
X0041800Y0131279D02*
X0041800Y0131279D01*
X0041800Y0131800D02*
X0041800Y0131800D01*
X0041800Y0131800D01*
X0037400Y0131800D01*
X0037400Y0133623D01*
X0039977Y0136200D01*
X0041800Y0136200D01*
X0041800Y0131800D01*
X0041800Y0127400D01*
X0039977Y0127400D01*
X0037400Y0129977D01*
X0037400Y0131800D01*
X0041800Y0131800D01*
X0041800Y0132878D02*
X0041800Y0132878D01*
X0041800Y0134476D02*
X0041800Y0134476D01*
X0041800Y0136075D02*
X0041800Y0136075D01*
X0043748Y0136075D02*
X0047873Y0136075D01*
X0046274Y0134476D02*
X0045346Y0134476D01*
X0039852Y0136075D02*
X0033748Y0136075D01*
X0033623Y0136200D02*
X0031800Y0136200D01*
X0031800Y0131800D01*
X0031800Y0131800D01*
X0036200Y0131800D01*
X0036200Y0133623D01*
X0033623Y0136200D01*
X0031800Y0136200D02*
X0029977Y0136200D01*
X0027400Y0133623D01*
X0027400Y0131800D01*
X0031800Y0131800D01*
X0031800Y0131800D01*
X0031800Y0131800D01*
X0031800Y0136200D01*
X0031800Y0136075D02*
X0031800Y0136075D01*
X0031800Y0134476D02*
X0031800Y0134476D01*
X0031800Y0132878D02*
X0031800Y0132878D01*
X0031800Y0131800D02*
X0027400Y0131800D01*
X0027400Y0129977D01*
X0029977Y0127400D01*
X0031800Y0127400D01*
X0033623Y0127400D01*
X0036200Y0129977D01*
X0036200Y0131800D01*
X0031800Y0131800D01*
X0031800Y0127400D01*
X0031800Y0131800D01*
X0031800Y0131800D01*
X0031800Y0131279D02*
X0031800Y0131279D01*
X0031800Y0129681D02*
X0031800Y0129681D01*
X0031800Y0128082D02*
X0031800Y0128082D01*
X0034305Y0128082D02*
X0039295Y0128082D01*
X0037697Y0129681D02*
X0035903Y0129681D01*
X0036200Y0131279D02*
X0037400Y0131279D01*
X0037400Y0132878D02*
X0036200Y0132878D01*
X0035346Y0134476D02*
X0038254Y0134476D01*
X0041800Y0128082D02*
X0041800Y0128082D01*
X0051800Y0131800D02*
X0061800Y0131800D01*
X0057873Y0136075D02*
X0055727Y0136075D01*
X0062800Y0137673D02*
X0006600Y0137673D01*
X0006600Y0136075D02*
X0029852Y0136075D01*
X0028254Y0134476D02*
X0006600Y0134476D01*
X0006600Y0132878D02*
X0027400Y0132878D01*
X0027400Y0131279D02*
X0006600Y0131279D01*
X0006600Y0129681D02*
X0027697Y0129681D01*
X0029295Y0128082D02*
X0006600Y0128082D01*
X0006600Y0139272D02*
X0062800Y0139272D01*
X0062800Y0140870D02*
X0006600Y0140870D01*
X0006600Y0142469D02*
X0062800Y0142469D01*
X0062800Y0144068D02*
X0006600Y0144068D01*
X0006600Y0145666D02*
X0062800Y0145666D01*
X0062800Y0147265D02*
X0058880Y0147265D01*
X0060479Y0148863D02*
X0062221Y0148863D01*
X0052920Y0147265D02*
X0047980Y0147265D01*
X0049579Y0148863D02*
X0051321Y0148863D01*
X0050450Y0157855D02*
X0050040Y0158265D01*
X0050860Y0158265D01*
X0050450Y0157855D01*
X0055490Y0160520D02*
X0056890Y0161920D01*
X0058290Y0160520D01*
X0055490Y0160520D01*
X0056622Y0161651D02*
X0057158Y0161651D01*
X0064227Y0169644D02*
X0067393Y0169644D01*
X0071800Y0171800D02*
X0076800Y0176800D01*
X0091800Y0176800D01*
X0101800Y0166800D01*
X0101800Y0146800D01*
X0111800Y0136800D01*
X0116800Y0136800D01*
X0112007Y0142469D02*
X0111788Y0142469D01*
X0121927Y0150462D02*
X0141673Y0150462D01*
X0139861Y0152060D02*
X0123739Y0152060D01*
X0124959Y0153659D02*
X0138641Y0153659D01*
X0137728Y0155257D02*
X0125872Y0155257D01*
X0126301Y0156856D02*
X0137299Y0156856D01*
X0137000Y0158454D02*
X0126600Y0158454D01*
X0126600Y0160053D02*
X0137000Y0160053D01*
X0137224Y0161651D02*
X0126376Y0161651D01*
X0125948Y0163250D02*
X0137652Y0163250D01*
X0138478Y0164848D02*
X0125122Y0164848D01*
X0124022Y0166447D02*
X0139578Y0166447D01*
X0141183Y0168045D02*
X0122417Y0168045D01*
X0119279Y0169644D02*
X0144321Y0169644D01*
X0151279Y0169644D02*
X0175593Y0169644D01*
X0177191Y0171242D02*
X0103015Y0171242D01*
X0104613Y0169644D02*
X0112321Y0169644D01*
X0109183Y0168045D02*
X0105614Y0168045D01*
X0105800Y0166447D02*
X0107578Y0166447D01*
X0106478Y0164848D02*
X0105800Y0164848D01*
X0097800Y0164848D02*
X0089875Y0164848D01*
X0089875Y0163250D02*
X0097800Y0163250D01*
X0096496Y0166447D02*
X0089875Y0166447D01*
X0089606Y0168045D02*
X0094898Y0168045D01*
X0093299Y0169644D02*
X0088007Y0169644D01*
X0086409Y0171242D02*
X0091701Y0171242D01*
X0096621Y0177636D02*
X0201979Y0177636D01*
X0200381Y0176038D02*
X0098219Y0176038D01*
X0099818Y0174439D02*
X0198782Y0174439D01*
X0197902Y0172841D02*
X0101416Y0172841D01*
X0095022Y0179235D02*
X0203578Y0179235D01*
X0206899Y0171242D02*
X0209891Y0171242D01*
X0208293Y0169644D02*
X0207107Y0169644D01*
X0197800Y0171242D02*
X0183709Y0171242D01*
X0185307Y0169644D02*
X0188473Y0169644D01*
X0195810Y0161920D02*
X0197210Y0160520D01*
X0194410Y0160520D01*
X0195810Y0161920D01*
X0195542Y0161651D02*
X0196078Y0161651D01*
X0201840Y0158265D02*
X0202660Y0158265D01*
X0202250Y0157855D01*
X0201840Y0158265D01*
X0207290Y0160520D02*
X0207700Y0160930D01*
X0208110Y0160520D01*
X0207290Y0160520D01*
X0212740Y0158265D02*
X0213560Y0158265D01*
X0213150Y0157855D01*
X0212740Y0158265D01*
X0212279Y0148863D02*
X0214021Y0148863D01*
X0215620Y0147265D02*
X0210680Y0147265D01*
X0200800Y0144068D02*
X0228876Y0144068D01*
X0230474Y0142469D02*
X0200800Y0142469D01*
X0200800Y0140870D02*
X0232073Y0140870D01*
X0233671Y0139272D02*
X0200800Y0139272D01*
X0192221Y0148863D02*
X0190479Y0148863D01*
X0173725Y0163250D02*
X0157948Y0163250D01*
X0157122Y0164848D02*
X0173725Y0164848D01*
X0173725Y0166447D02*
X0156022Y0166447D01*
X0154417Y0168045D02*
X0173994Y0168045D01*
X0215727Y0136075D02*
X0217873Y0136075D01*
X0225727Y0136075D02*
X0227873Y0136075D01*
X0228914Y0126484D02*
X0224686Y0126484D01*
X0218914Y0126484D02*
X0214686Y0126484D01*
X0208914Y0126484D02*
X0204686Y0126484D01*
X0231800Y0146800D02*
X0241800Y0136800D01*
X0246800Y0136800D01*
X0242007Y0142469D02*
X0241788Y0142469D01*
X0248223Y0148863D02*
X0257000Y0148863D01*
X0257000Y0150462D02*
X0251927Y0150462D01*
X0253739Y0152060D02*
X0257000Y0152060D01*
X0257000Y0153659D02*
X0254959Y0153659D01*
X0255872Y0155257D02*
X0257000Y0155257D01*
X0257000Y0156856D02*
X0256301Y0156856D01*
X0256600Y0158454D02*
X0257000Y0158454D01*
X0257000Y0160053D02*
X0256600Y0160053D01*
X0256376Y0161651D02*
X0257000Y0161651D01*
X0257000Y0163250D02*
X0255948Y0163250D01*
X0255122Y0164848D02*
X0257000Y0164848D01*
X0257000Y0166447D02*
X0254022Y0166447D01*
X0252417Y0168045D02*
X0257000Y0168045D01*
X0257000Y0169644D02*
X0249279Y0169644D01*
X0242321Y0169644D02*
X0234613Y0169644D01*
X0235614Y0168045D02*
X0239183Y0168045D01*
X0237578Y0166447D02*
X0235800Y0166447D01*
X0235800Y0164848D02*
X0236478Y0164848D01*
X0233015Y0171242D02*
X0257000Y0171242D01*
X0257000Y0172841D02*
X0231416Y0172841D01*
X0229818Y0174439D02*
X0257000Y0174439D01*
X0257000Y0182432D02*
X0006600Y0182432D01*
X0006600Y0184030D02*
X0257000Y0184030D01*
X0257000Y0185629D02*
X0006600Y0185629D01*
X0006600Y0187227D02*
X0257000Y0187227D01*
X0257000Y0188826D02*
X0006600Y0188826D01*
X0006600Y0190424D02*
X0257000Y0190424D01*
X0256980Y0192023D02*
X0006667Y0192023D01*
X0007209Y0193621D02*
X0256628Y0193621D01*
X0255592Y0195220D02*
X0008334Y0195220D01*
X0011479Y0196818D02*
X0252697Y0196818D01*
X0216831Y0096112D02*
X0215690Y0096112D01*
X0207910Y0096112D02*
X0205690Y0096112D01*
X0197910Y0096112D02*
X0195690Y0096112D01*
X0187910Y0096112D02*
X0185690Y0096112D01*
X0190874Y0078529D02*
X0192726Y0078529D01*
X0200874Y0078529D02*
X0202726Y0078529D01*
X0206800Y0071800D02*
X0216800Y0071800D01*
X0212057Y0065740D02*
X0211543Y0065740D01*
X0209745Y0064142D02*
X0213855Y0064142D01*
X0219745Y0064142D02*
X0223855Y0064142D01*
X0222057Y0065740D02*
X0221543Y0065740D01*
X0220874Y0078529D02*
X0222726Y0078529D01*
X0224724Y0086521D02*
X0228876Y0086521D01*
X0227278Y0088120D02*
X0226322Y0088120D01*
X0212726Y0078529D02*
X0210874Y0078529D01*
X0202057Y0065740D02*
X0201543Y0065740D01*
X0199745Y0064142D02*
X0203855Y0064142D01*
X0193855Y0064142D02*
X0189745Y0064142D01*
X0191543Y0065740D02*
X0192057Y0065740D01*
X0183855Y0064142D02*
X0179745Y0064142D01*
X0181543Y0065740D02*
X0182057Y0065740D01*
X0166800Y0065740D02*
X0166800Y0065740D01*
X0171171Y0035369D02*
X0172429Y0035369D01*
X0174752Y0033770D02*
X0168847Y0033770D01*
X0178847Y0033770D02*
X0184752Y0033770D01*
X0182429Y0035369D02*
X0181171Y0035369D01*
X0188847Y0033770D02*
X0194752Y0033770D01*
X0192429Y0035369D02*
X0191171Y0035369D01*
X0198847Y0033770D02*
X0204752Y0033770D01*
X0202429Y0035369D02*
X0201171Y0035369D01*
X0208847Y0033770D02*
X0214752Y0033770D01*
X0212429Y0035369D02*
X0211171Y0035369D01*
X0218847Y0033770D02*
X0224752Y0033770D01*
X0222429Y0035369D02*
X0221171Y0035369D01*
X0228847Y0033770D02*
X0257000Y0033770D01*
X0257000Y0035369D02*
X0231171Y0035369D01*
X0232153Y0036967D02*
X0257000Y0036967D01*
X0257000Y0038566D02*
X0232600Y0038566D01*
X0232600Y0040164D02*
X0257000Y0040164D01*
X0222354Y0048157D02*
X0221246Y0048157D01*
X0218377Y0024179D02*
X0215223Y0024179D01*
X0216760Y0022581D02*
X0216840Y0022581D01*
X0208377Y0024179D02*
X0205223Y0024179D01*
X0206760Y0022581D02*
X0206840Y0022581D01*
X0198377Y0024179D02*
X0195223Y0024179D01*
X0196760Y0022581D02*
X0196840Y0022581D01*
X0188377Y0024179D02*
X0175223Y0024179D01*
X0176760Y0022581D02*
X0178758Y0022581D01*
X0177688Y0020982D02*
X0177423Y0020982D01*
X0181800Y0020982D02*
X0181800Y0020982D01*
X0181800Y0019384D02*
X0181800Y0019384D01*
X0181800Y0017785D02*
X0181800Y0017785D01*
X0181800Y0016800D02*
X0181800Y0009800D01*
X0181800Y0016800D01*
X0181800Y0016800D01*
X0181800Y0016187D02*
X0181800Y0016187D01*
X0181800Y0014588D02*
X0181800Y0014588D01*
X0181800Y0012990D02*
X0181800Y0012990D01*
X0181800Y0011391D02*
X0181800Y0011391D01*
X0178402Y0011391D02*
X0176914Y0011391D01*
X0175595Y0009793D02*
X0188005Y0009793D01*
X0186686Y0011391D02*
X0185198Y0011391D01*
X0185912Y0020982D02*
X0186177Y0020982D01*
X0186840Y0022581D02*
X0184842Y0022581D01*
X0181800Y0022581D02*
X0181800Y0022581D01*
X0195595Y0009793D02*
X0198005Y0009793D01*
X0205595Y0009793D02*
X0208005Y0009793D01*
X0215595Y0009793D02*
X0218005Y0009793D01*
X0087800Y0096112D02*
X0085690Y0096112D01*
X0077910Y0096112D02*
X0075690Y0096112D01*
X0047910Y0096112D02*
X0045690Y0096112D01*
X0054686Y0126484D02*
X0058914Y0126484D01*
X0042020Y0147265D02*
X0006600Y0147265D01*
X0006600Y0148863D02*
X0015377Y0148863D01*
X0016378Y0148595D02*
X0013631Y0149331D01*
X0011169Y0150753D01*
X0009158Y0152764D01*
X0007736Y0155226D01*
X0007000Y0157973D01*
X0007000Y0160817D01*
X0007736Y0163564D01*
X0009158Y0166026D01*
X0011169Y0168037D01*
X0013631Y0169459D01*
X0016378Y0170195D01*
X0019222Y0170195D01*
X0021969Y0169459D01*
X0024431Y0168037D01*
X0026442Y0166026D01*
X0027864Y0163564D01*
X0028600Y0160817D01*
X0028600Y0157973D01*
X0027864Y0155226D01*
X0026442Y0152764D01*
X0024431Y0150753D01*
X0021969Y0149331D01*
X0019222Y0148595D01*
X0016378Y0148595D01*
X0020223Y0148863D02*
X0040421Y0148863D01*
X0038823Y0150462D02*
X0023927Y0150462D01*
X0025739Y0152060D02*
X0038275Y0152060D01*
X0038275Y0153659D02*
X0026959Y0153659D01*
X0027872Y0155257D02*
X0038275Y0155257D01*
X0038550Y0156856D02*
X0028301Y0156856D01*
X0028600Y0158454D02*
X0040149Y0158454D01*
X0041747Y0160053D02*
X0028600Y0160053D01*
X0028376Y0161651D02*
X0044278Y0161651D01*
X0043725Y0163250D02*
X0027948Y0163250D01*
X0027122Y0164848D02*
X0043725Y0164848D01*
X0043725Y0166447D02*
X0026022Y0166447D01*
X0024417Y0168045D02*
X0043994Y0168045D01*
X0045593Y0169644D02*
X0021279Y0169644D01*
X0014321Y0169644D02*
X0006600Y0169644D01*
X0006600Y0171242D02*
X0047191Y0171242D01*
X0071800Y0171800D02*
X0072250Y0171350D01*
X0072250Y0164990D01*
X0077107Y0169644D02*
X0078293Y0169644D01*
X0076899Y0171242D02*
X0079891Y0171242D01*
X0104686Y0126484D02*
X0106459Y0126484D01*
X0011673Y0150462D02*
X0006600Y0150462D01*
X0006600Y0152060D02*
X0009861Y0152060D01*
X0008641Y0153659D02*
X0006600Y0153659D01*
X0006600Y0155257D02*
X0007728Y0155257D01*
X0007299Y0156856D02*
X0006600Y0156856D01*
X0006600Y0158454D02*
X0007000Y0158454D01*
X0007000Y0160053D02*
X0006600Y0160053D01*
X0006600Y0161651D02*
X0007224Y0161651D01*
X0007652Y0163250D02*
X0006600Y0163250D01*
X0006600Y0164848D02*
X0008478Y0164848D01*
X0009578Y0166447D02*
X0006600Y0166447D01*
X0006600Y0168045D02*
X0011183Y0168045D01*
M02*
