%
M48
M72
T01C0.03200
T02C0.03600
T03C0.04700
T04C0.12000
%
T01
X41800Y16800
X51800Y16800
X61800Y16800
X71800Y16800
X81800Y16800
X91800Y16800
X86800Y41800
X76800Y41800
X66800Y41800
X56800Y41800
X46800Y41800
X36800Y41800
X36800Y71800
X46800Y71800
X56800Y71800
X66800Y71800
X76800Y71800
X86800Y71800
X96800Y71800
X91800Y91800
X81800Y91800
X71800Y91800
X61800Y91800
X51800Y91800
X41800Y91800
X31800Y91800
X31800Y131800
X41800Y131800
X51800Y131800
X61800Y131800
X71800Y131800
X81800Y131800
X91800Y131800
X101800Y131800
X101800Y91800
X96800Y41800
X161800Y91800
X171800Y91800
X181800Y91800
X191800Y91800
X201800Y91800
X211800Y91800
X221800Y91800
X231800Y91800
X226800Y71800
X216800Y71800
X206800Y71800
X196800Y71800
X186800Y71800
X176800Y71800
X166800Y71800
X166800Y41800
X176800Y41800
X186800Y41800
X196800Y41800
X206800Y41800
X216800Y41800
X226800Y41800
X221800Y16800
X211800Y16800
X201800Y16800
X191800Y16800
X181800Y16800
X171800Y16800
X171800Y131800
X181800Y131800
X191800Y131800
X201800Y131800
X211800Y131800
X221800Y131800
X231800Y131800
X161800Y131800
T02
X116800Y126800
X116800Y136800
X246800Y136800
X246800Y126800
T03
X218600Y153795
X207700Y153795
X196800Y153795
X185900Y153795
X175000Y153795
X180450Y164990
X191350Y164990
X202250Y164990
X213150Y164990
X88600Y153795
X77700Y153795
X66800Y153795
X55900Y153795
X45000Y153795
X50450Y164990
X61350Y164990
X72250Y164990
X83150Y164990
T04
X115800Y159395
X147800Y159395
X245800Y159395
X17800Y159395
M30
