G75*
%MOIN*%
%OFA0B0*%
%FSLAX25Y25*%
%IPPOS*%
%LPD*%
%AMOC8*
5,1,8,0,0,1.08239X$1,22.5*
%
%ADD10C,0.06000*%
%ADD11OC8,0.06000*%
%ADD12OC8,0.07850*%
%ADD13C,0.12800*%
%ADD14C,0.06400*%
D10*
X0041800Y0014200D02*
X0041800Y0019400D01*
X0051800Y0019400D02*
X0051800Y0014200D01*
X0061800Y0014200D02*
X0061800Y0019400D01*
X0071800Y0019400D02*
X0071800Y0014200D01*
X0081800Y0014200D02*
X0081800Y0019400D01*
X0091800Y0019400D02*
X0091800Y0014200D01*
X0086800Y0039200D02*
X0086800Y0044400D01*
X0076800Y0044400D02*
X0076800Y0039200D01*
X0066800Y0039200D02*
X0066800Y0044400D01*
X0056800Y0044400D02*
X0056800Y0039200D01*
X0046800Y0039200D02*
X0046800Y0044400D01*
X0036800Y0044400D02*
X0036800Y0039200D01*
X0036800Y0069200D02*
X0036800Y0074400D01*
X0046800Y0074400D02*
X0046800Y0069200D01*
X0056800Y0069200D02*
X0056800Y0074400D01*
X0066800Y0074400D02*
X0066800Y0069200D01*
X0076800Y0069200D02*
X0076800Y0074400D01*
X0086800Y0074400D02*
X0086800Y0069200D01*
X0096800Y0069200D02*
X0096800Y0074400D01*
X0096800Y0044400D02*
X0096800Y0039200D01*
X0166800Y0039200D02*
X0166800Y0044400D01*
X0176800Y0044400D02*
X0176800Y0039200D01*
X0186800Y0039200D02*
X0186800Y0044400D01*
X0196800Y0044400D02*
X0196800Y0039200D01*
X0206800Y0039200D02*
X0206800Y0044400D01*
X0216800Y0044400D02*
X0216800Y0039200D01*
X0226800Y0039200D02*
X0226800Y0044400D01*
X0226800Y0069200D02*
X0226800Y0074400D01*
X0216800Y0074400D02*
X0216800Y0069200D01*
X0206800Y0069200D02*
X0206800Y0074400D01*
X0196800Y0074400D02*
X0196800Y0069200D01*
X0186800Y0069200D02*
X0186800Y0074400D01*
X0176800Y0074400D02*
X0176800Y0069200D01*
X0166800Y0069200D02*
X0166800Y0074400D01*
X0171800Y0019400D02*
X0171800Y0014200D01*
X0181800Y0014200D02*
X0181800Y0019400D01*
X0191800Y0019400D02*
X0191800Y0014200D01*
X0201800Y0014200D02*
X0201800Y0019400D01*
X0211800Y0019400D02*
X0211800Y0014200D01*
X0221800Y0014200D02*
X0221800Y0019400D01*
D11*
X0221800Y0091800D03*
X0231800Y0091800D03*
X0211800Y0091800D03*
X0201800Y0091800D03*
X0191800Y0091800D03*
X0181800Y0091800D03*
X0171800Y0091800D03*
X0161800Y0091800D03*
X0161800Y0131800D03*
X0171800Y0131800D03*
X0181800Y0131800D03*
X0191800Y0131800D03*
X0201800Y0131800D03*
X0211800Y0131800D03*
X0221800Y0131800D03*
X0231800Y0131800D03*
X0101800Y0131800D03*
X0091800Y0131800D03*
X0081800Y0131800D03*
X0071800Y0131800D03*
X0061800Y0131800D03*
X0051800Y0131800D03*
X0041800Y0131800D03*
X0031800Y0131800D03*
X0031800Y0091800D03*
X0041800Y0091800D03*
X0051800Y0091800D03*
X0061800Y0091800D03*
X0071800Y0091800D03*
X0081800Y0091800D03*
X0091800Y0091800D03*
X0101800Y0091800D03*
D12*
X0088600Y0153795D03*
X0077700Y0153795D03*
X0066800Y0153795D03*
X0055900Y0153795D03*
X0045000Y0153795D03*
X0050450Y0164990D03*
X0061350Y0164990D03*
X0072250Y0164990D03*
X0083150Y0164990D03*
X0175000Y0153795D03*
X0185900Y0153795D03*
X0196800Y0153795D03*
X0207700Y0153795D03*
X0218600Y0153795D03*
X0213150Y0164990D03*
X0202250Y0164990D03*
X0191350Y0164990D03*
X0180450Y0164990D03*
D13*
X0147800Y0159395D03*
X0115800Y0159395D03*
X0017800Y0159395D03*
X0245800Y0159395D03*
D14*
X0244000Y0136800D02*
X0249600Y0136800D01*
X0249600Y0126800D02*
X0244000Y0126800D01*
X0119600Y0126800D02*
X0114000Y0126800D01*
X0114000Y0136800D02*
X0119600Y0136800D01*
M02*
