G75*
%MOIN*%
%OFA0B0*%
%FSLAX25Y25*%
%IPPOS*%
%LPD*%
%AMOC8*
5,1,8,0,0,1.08239X$1,22.5*
%
%ADD10C,0.01300*%
%ADD11C,0.01000*%
%ADD12C,0.00600*%
%ADD13R,0.02400X0.03400*%
%ADD14C,0.00500*%
D10*
X0121344Y0016638D02*
X0121344Y0020291D01*
X0122561Y0021509D01*
X0127432Y0021509D01*
X0128650Y0020291D01*
X0128650Y0016638D01*
X0121344Y0016638D01*
X0123779Y0024557D02*
X0128650Y0024557D01*
X0126215Y0024557D02*
X0123779Y0026992D01*
X0123779Y0028210D01*
X0123779Y0032373D02*
X0123779Y0034809D01*
X0124997Y0036026D01*
X0128650Y0036026D01*
X0128650Y0032373D01*
X0127432Y0031156D01*
X0126215Y0032373D01*
X0126215Y0036026D01*
X0127432Y0039074D02*
X0124997Y0039074D01*
X0123779Y0040292D01*
X0123779Y0043945D01*
X0129868Y0043945D01*
X0131085Y0042728D01*
X0131085Y0041510D01*
X0128650Y0040292D02*
X0127432Y0039074D01*
X0128650Y0040292D02*
X0128650Y0043945D01*
X0127432Y0046993D02*
X0124997Y0046993D01*
X0123779Y0048211D01*
X0123779Y0050646D01*
X0124997Y0051864D01*
X0127432Y0051864D01*
X0128650Y0050646D01*
X0128650Y0048211D01*
X0127432Y0046993D01*
X0128650Y0054912D02*
X0123779Y0054912D01*
X0123779Y0058565D01*
X0124997Y0059783D01*
X0128650Y0059783D01*
X0128650Y0070749D02*
X0121344Y0075620D01*
X0122561Y0086587D02*
X0127432Y0086587D01*
X0128650Y0087805D01*
X0128650Y0090240D01*
X0127432Y0091458D01*
X0127432Y0094506D02*
X0124997Y0094506D01*
X0123779Y0095723D01*
X0123779Y0098159D01*
X0124997Y0099377D01*
X0127432Y0099377D01*
X0128650Y0098159D01*
X0128650Y0095723D01*
X0127432Y0094506D01*
X0122561Y0091458D02*
X0121344Y0090240D01*
X0121344Y0087805D01*
X0122561Y0086587D01*
X0124997Y0102424D02*
X0123779Y0103642D01*
X0123779Y0107295D01*
X0124997Y0110343D02*
X0127432Y0110343D01*
X0128650Y0111561D01*
X0128650Y0113996D01*
X0127432Y0115214D01*
X0124997Y0115214D01*
X0123779Y0113996D01*
X0123779Y0111561D01*
X0124997Y0110343D01*
X0128650Y0107295D02*
X0128650Y0103642D01*
X0127432Y0102424D01*
X0124997Y0102424D01*
D11*
X0134795Y0104490D02*
X0136663Y0102622D01*
X0140400Y0102622D01*
X0137598Y0102622D02*
X0137598Y0106358D01*
X0136663Y0106358D02*
X0134795Y0104490D01*
X0136663Y0106358D02*
X0140400Y0106358D01*
X0139466Y0108699D02*
X0137598Y0108699D01*
X0136663Y0109633D01*
X0136663Y0112435D01*
X0134795Y0112435D02*
X0140400Y0112435D01*
X0140400Y0109633D01*
X0139466Y0108699D01*
X0139466Y0114776D02*
X0138532Y0115710D01*
X0138532Y0118512D01*
X0137598Y0118512D02*
X0140400Y0118512D01*
X0140400Y0115710D01*
X0139466Y0114776D01*
X0136663Y0115710D02*
X0136663Y0117578D01*
X0137598Y0118512D01*
X0136663Y0120853D02*
X0136663Y0123655D01*
X0137598Y0124590D01*
X0139466Y0124590D01*
X0140400Y0123655D01*
X0140400Y0120853D01*
X0142268Y0120853D02*
X0136663Y0120853D01*
X0136663Y0126930D02*
X0136663Y0128799D01*
X0135729Y0127864D02*
X0139466Y0127864D01*
X0140400Y0128799D01*
X0139466Y0130982D02*
X0137598Y0130982D01*
X0136663Y0131916D01*
X0136663Y0133784D01*
X0137598Y0134718D01*
X0138532Y0134718D01*
X0138532Y0130982D01*
X0139466Y0130982D02*
X0140400Y0131916D01*
X0140400Y0133784D01*
X0140400Y0137059D02*
X0136663Y0137059D01*
X0136663Y0138927D02*
X0136663Y0139861D01*
X0136663Y0138927D02*
X0138532Y0137059D01*
X0140400Y0094282D02*
X0138532Y0091480D01*
X0136663Y0094282D01*
X0134795Y0091480D02*
X0140400Y0091480D01*
X0140400Y0089139D02*
X0140400Y0086337D01*
X0139466Y0085403D01*
X0137598Y0085403D01*
X0136663Y0086337D01*
X0136663Y0089139D01*
X0136663Y0082286D02*
X0140400Y0082286D01*
X0140400Y0083220D02*
X0140400Y0081351D01*
X0140400Y0079168D02*
X0139466Y0078234D01*
X0135729Y0078234D01*
X0136663Y0077300D02*
X0136663Y0079168D01*
X0136663Y0081351D02*
X0136663Y0082286D01*
X0134795Y0082286D02*
X0133861Y0082286D01*
X0136663Y0074959D02*
X0136663Y0072157D01*
X0137598Y0071223D01*
X0138532Y0072157D01*
X0138532Y0074025D01*
X0139466Y0074959D01*
X0140400Y0074025D01*
X0140400Y0071223D01*
X0140400Y0068882D02*
X0140400Y0066080D01*
X0139466Y0065146D01*
X0136663Y0065146D01*
X0137598Y0062805D02*
X0136663Y0061871D01*
X0136663Y0060002D01*
X0137598Y0059068D01*
X0139466Y0059068D01*
X0140400Y0060002D01*
X0140400Y0061871D01*
X0139466Y0062805D01*
X0137598Y0062805D01*
X0142268Y0067014D02*
X0142268Y0067948D01*
X0141334Y0068882D01*
X0136663Y0068882D01*
X0134795Y0056728D02*
X0134795Y0054859D01*
X0134795Y0055794D02*
X0139466Y0055794D01*
X0140400Y0054859D01*
X0140400Y0053925D01*
X0139466Y0052991D01*
X0140400Y0044731D02*
X0140400Y0042863D01*
X0140400Y0043797D02*
X0134795Y0043797D01*
X0134795Y0042863D01*
X0137598Y0040522D02*
X0140400Y0040522D01*
X0140400Y0037719D01*
X0139466Y0036785D01*
X0138532Y0037719D01*
X0138532Y0040522D01*
X0137598Y0040522D02*
X0136663Y0039588D01*
X0136663Y0037719D01*
X0136663Y0034602D02*
X0136663Y0032734D01*
X0135729Y0033668D02*
X0139466Y0033668D01*
X0140400Y0034602D01*
X0140400Y0030551D02*
X0140400Y0028682D01*
X0140400Y0029617D02*
X0136663Y0029617D01*
X0136663Y0028682D01*
X0134795Y0029617D02*
X0133861Y0029617D01*
X0136663Y0026342D02*
X0136663Y0023539D01*
X0137598Y0022605D01*
X0139466Y0022605D01*
X0140400Y0023539D01*
X0140400Y0026342D01*
X0141334Y0026342D02*
X0136663Y0026342D01*
X0141334Y0026342D02*
X0142268Y0025408D01*
X0142268Y0024473D01*
X0140400Y0020422D02*
X0140400Y0018554D01*
X0140400Y0019488D02*
X0136663Y0019488D01*
X0136663Y0018554D01*
X0134795Y0019488D02*
X0133861Y0019488D01*
X0135729Y0016213D02*
X0134795Y0015279D01*
X0134795Y0012477D01*
X0140400Y0012477D01*
X0140400Y0015279D01*
X0139466Y0016213D01*
X0135729Y0016213D01*
D12*
X0045800Y0011800D02*
X0036800Y0011800D01*
X0036800Y0021800D01*
X0045800Y0021800D01*
X0046800Y0020800D01*
X0047800Y0021800D01*
X0055800Y0021800D01*
X0056800Y0020800D01*
X0057800Y0021800D01*
X0065800Y0021800D01*
X0066800Y0020800D01*
X0067800Y0021800D01*
X0075800Y0021800D01*
X0076800Y0020800D01*
X0077800Y0021800D01*
X0085800Y0021800D01*
X0086800Y0020800D01*
X0087800Y0021800D01*
X0096800Y0021800D01*
X0096800Y0011800D01*
X0087800Y0011800D01*
X0086800Y0012800D01*
X0085800Y0011800D01*
X0077800Y0011800D01*
X0076800Y0012800D01*
X0075800Y0011800D01*
X0067800Y0011800D01*
X0066800Y0012800D01*
X0065800Y0011800D01*
X0057800Y0011800D01*
X0056800Y0012800D01*
X0055800Y0011800D01*
X0047800Y0011800D01*
X0046800Y0012800D01*
X0045800Y0011800D01*
X0031800Y0045300D02*
X0031800Y0068300D01*
X0101800Y0068300D01*
X0101800Y0060800D01*
X0101674Y0060798D01*
X0101549Y0060792D01*
X0101424Y0060782D01*
X0101299Y0060768D01*
X0101174Y0060751D01*
X0101050Y0060729D01*
X0100927Y0060704D01*
X0100805Y0060674D01*
X0100684Y0060641D01*
X0100564Y0060604D01*
X0100445Y0060564D01*
X0100328Y0060519D01*
X0100211Y0060471D01*
X0100097Y0060419D01*
X0099984Y0060364D01*
X0099873Y0060305D01*
X0099764Y0060243D01*
X0099657Y0060177D01*
X0099552Y0060108D01*
X0099449Y0060036D01*
X0099348Y0059961D01*
X0099250Y0059882D01*
X0099155Y0059800D01*
X0099062Y0059716D01*
X0098972Y0059628D01*
X0098884Y0059538D01*
X0098800Y0059445D01*
X0098718Y0059350D01*
X0098639Y0059252D01*
X0098564Y0059151D01*
X0098492Y0059048D01*
X0098423Y0058943D01*
X0098357Y0058836D01*
X0098295Y0058727D01*
X0098236Y0058616D01*
X0098181Y0058503D01*
X0098129Y0058389D01*
X0098081Y0058272D01*
X0098036Y0058155D01*
X0097996Y0058036D01*
X0097959Y0057916D01*
X0097926Y0057795D01*
X0097896Y0057673D01*
X0097871Y0057550D01*
X0097849Y0057426D01*
X0097832Y0057301D01*
X0097818Y0057176D01*
X0097808Y0057051D01*
X0097802Y0056926D01*
X0097800Y0056800D01*
X0097802Y0056674D01*
X0097808Y0056549D01*
X0097818Y0056424D01*
X0097832Y0056299D01*
X0097849Y0056174D01*
X0097871Y0056050D01*
X0097896Y0055927D01*
X0097926Y0055805D01*
X0097959Y0055684D01*
X0097996Y0055564D01*
X0098036Y0055445D01*
X0098081Y0055328D01*
X0098129Y0055211D01*
X0098181Y0055097D01*
X0098236Y0054984D01*
X0098295Y0054873D01*
X0098357Y0054764D01*
X0098423Y0054657D01*
X0098492Y0054552D01*
X0098564Y0054449D01*
X0098639Y0054348D01*
X0098718Y0054250D01*
X0098800Y0054155D01*
X0098884Y0054062D01*
X0098972Y0053972D01*
X0099062Y0053884D01*
X0099155Y0053800D01*
X0099250Y0053718D01*
X0099348Y0053639D01*
X0099449Y0053564D01*
X0099552Y0053492D01*
X0099657Y0053423D01*
X0099764Y0053357D01*
X0099873Y0053295D01*
X0099984Y0053236D01*
X0100097Y0053181D01*
X0100211Y0053129D01*
X0100328Y0053081D01*
X0100445Y0053036D01*
X0100564Y0052996D01*
X0100684Y0052959D01*
X0100805Y0052926D01*
X0100927Y0052896D01*
X0101050Y0052871D01*
X0101174Y0052849D01*
X0101299Y0052832D01*
X0101424Y0052818D01*
X0101549Y0052808D01*
X0101674Y0052802D01*
X0101800Y0052800D01*
X0101800Y0045300D01*
X0031800Y0045300D01*
X0054209Y0056803D02*
X0058479Y0056803D01*
X0060654Y0054668D02*
X0060654Y0058938D01*
X0061722Y0060005D01*
X0063857Y0060005D01*
X0064925Y0058938D01*
X0060654Y0054668D01*
X0061722Y0053600D01*
X0063857Y0053600D01*
X0064925Y0054668D01*
X0064925Y0058938D01*
X0067100Y0056803D02*
X0070303Y0056803D01*
X0071370Y0055735D01*
X0071370Y0054668D01*
X0070303Y0053600D01*
X0068168Y0053600D01*
X0067100Y0054668D01*
X0067100Y0056803D01*
X0069235Y0058938D01*
X0071370Y0060005D01*
X0073545Y0056803D02*
X0075681Y0058938D01*
X0077816Y0060005D01*
X0076748Y0056803D02*
X0073545Y0056803D01*
X0073545Y0054668D01*
X0074613Y0053600D01*
X0076748Y0053600D01*
X0077816Y0054668D01*
X0077816Y0055735D01*
X0076748Y0056803D01*
X0057412Y0053600D02*
X0057412Y0060005D01*
X0054209Y0056803D01*
X0055300Y0099300D02*
X0048300Y0099300D01*
X0048240Y0099302D01*
X0048179Y0099307D01*
X0048120Y0099316D01*
X0048061Y0099329D01*
X0048002Y0099345D01*
X0047945Y0099365D01*
X0047890Y0099388D01*
X0047835Y0099415D01*
X0047783Y0099444D01*
X0047732Y0099477D01*
X0047683Y0099513D01*
X0047637Y0099551D01*
X0047593Y0099593D01*
X0047551Y0099637D01*
X0047513Y0099683D01*
X0047477Y0099732D01*
X0047444Y0099783D01*
X0047415Y0099835D01*
X0047388Y0099890D01*
X0047365Y0099945D01*
X0047345Y0100002D01*
X0047329Y0100061D01*
X0047316Y0100120D01*
X0047307Y0100179D01*
X0047302Y0100240D01*
X0047300Y0100300D01*
X0047300Y0101800D01*
X0047800Y0102300D01*
X0047800Y0121300D01*
X0047300Y0121800D01*
X0047300Y0123300D01*
X0046300Y0123300D02*
X0046300Y0121800D01*
X0045800Y0121300D01*
X0045800Y0102300D01*
X0046300Y0101800D01*
X0046300Y0100300D01*
X0046298Y0100240D01*
X0046293Y0100179D01*
X0046284Y0100120D01*
X0046271Y0100061D01*
X0046255Y0100002D01*
X0046235Y0099945D01*
X0046212Y0099890D01*
X0046185Y0099835D01*
X0046156Y0099783D01*
X0046123Y0099732D01*
X0046087Y0099683D01*
X0046049Y0099637D01*
X0046007Y0099593D01*
X0045963Y0099551D01*
X0045917Y0099513D01*
X0045868Y0099477D01*
X0045817Y0099444D01*
X0045765Y0099415D01*
X0045710Y0099388D01*
X0045655Y0099365D01*
X0045598Y0099345D01*
X0045539Y0099329D01*
X0045480Y0099316D01*
X0045421Y0099307D01*
X0045360Y0099302D01*
X0045300Y0099300D01*
X0038300Y0099300D01*
X0038240Y0099302D01*
X0038179Y0099307D01*
X0038120Y0099316D01*
X0038061Y0099329D01*
X0038002Y0099345D01*
X0037945Y0099365D01*
X0037890Y0099388D01*
X0037835Y0099415D01*
X0037783Y0099444D01*
X0037732Y0099477D01*
X0037683Y0099513D01*
X0037637Y0099551D01*
X0037593Y0099593D01*
X0037551Y0099637D01*
X0037513Y0099683D01*
X0037477Y0099732D01*
X0037444Y0099783D01*
X0037415Y0099835D01*
X0037388Y0099890D01*
X0037365Y0099945D01*
X0037345Y0100002D01*
X0037329Y0100061D01*
X0037316Y0100120D01*
X0037307Y0100179D01*
X0037302Y0100240D01*
X0037300Y0100300D01*
X0037300Y0101800D01*
X0037800Y0102300D01*
X0037800Y0121300D01*
X0037300Y0121800D01*
X0037300Y0123300D01*
X0037302Y0123360D01*
X0037307Y0123421D01*
X0037316Y0123480D01*
X0037329Y0123539D01*
X0037345Y0123598D01*
X0037365Y0123655D01*
X0037388Y0123710D01*
X0037415Y0123765D01*
X0037444Y0123817D01*
X0037477Y0123868D01*
X0037513Y0123917D01*
X0037551Y0123963D01*
X0037593Y0124007D01*
X0037637Y0124049D01*
X0037683Y0124087D01*
X0037732Y0124123D01*
X0037783Y0124156D01*
X0037835Y0124185D01*
X0037890Y0124212D01*
X0037945Y0124235D01*
X0038002Y0124255D01*
X0038061Y0124271D01*
X0038120Y0124284D01*
X0038179Y0124293D01*
X0038240Y0124298D01*
X0038300Y0124300D01*
X0045300Y0124300D01*
X0045360Y0124298D01*
X0045421Y0124293D01*
X0045480Y0124284D01*
X0045539Y0124271D01*
X0045598Y0124255D01*
X0045655Y0124235D01*
X0045710Y0124212D01*
X0045765Y0124185D01*
X0045817Y0124156D01*
X0045868Y0124123D01*
X0045917Y0124087D01*
X0045963Y0124049D01*
X0046007Y0124007D01*
X0046049Y0123963D01*
X0046087Y0123917D01*
X0046123Y0123868D01*
X0046156Y0123817D01*
X0046185Y0123765D01*
X0046212Y0123710D01*
X0046235Y0123655D01*
X0046255Y0123598D01*
X0046271Y0123539D01*
X0046284Y0123480D01*
X0046293Y0123421D01*
X0046298Y0123360D01*
X0046300Y0123300D01*
X0047300Y0123300D02*
X0047302Y0123360D01*
X0047307Y0123421D01*
X0047316Y0123480D01*
X0047329Y0123539D01*
X0047345Y0123598D01*
X0047365Y0123655D01*
X0047388Y0123710D01*
X0047415Y0123765D01*
X0047444Y0123817D01*
X0047477Y0123868D01*
X0047513Y0123917D01*
X0047551Y0123963D01*
X0047593Y0124007D01*
X0047637Y0124049D01*
X0047683Y0124087D01*
X0047732Y0124123D01*
X0047783Y0124156D01*
X0047835Y0124185D01*
X0047890Y0124212D01*
X0047945Y0124235D01*
X0048002Y0124255D01*
X0048061Y0124271D01*
X0048120Y0124284D01*
X0048179Y0124293D01*
X0048240Y0124298D01*
X0048300Y0124300D01*
X0055300Y0124300D01*
X0055360Y0124298D01*
X0055421Y0124293D01*
X0055480Y0124284D01*
X0055539Y0124271D01*
X0055598Y0124255D01*
X0055655Y0124235D01*
X0055710Y0124212D01*
X0055765Y0124185D01*
X0055817Y0124156D01*
X0055868Y0124123D01*
X0055917Y0124087D01*
X0055963Y0124049D01*
X0056007Y0124007D01*
X0056049Y0123963D01*
X0056087Y0123917D01*
X0056123Y0123868D01*
X0056156Y0123817D01*
X0056185Y0123765D01*
X0056212Y0123710D01*
X0056235Y0123655D01*
X0056255Y0123598D01*
X0056271Y0123539D01*
X0056284Y0123480D01*
X0056293Y0123421D01*
X0056298Y0123360D01*
X0056300Y0123300D01*
X0056300Y0121800D01*
X0055800Y0121300D01*
X0055800Y0102300D01*
X0056300Y0101800D01*
X0056300Y0100300D01*
X0057300Y0100300D02*
X0057300Y0101800D01*
X0057800Y0102300D01*
X0057800Y0121300D01*
X0057300Y0121800D01*
X0057300Y0123300D01*
X0057302Y0123360D01*
X0057307Y0123421D01*
X0057316Y0123480D01*
X0057329Y0123539D01*
X0057345Y0123598D01*
X0057365Y0123655D01*
X0057388Y0123710D01*
X0057415Y0123765D01*
X0057444Y0123817D01*
X0057477Y0123868D01*
X0057513Y0123917D01*
X0057551Y0123963D01*
X0057593Y0124007D01*
X0057637Y0124049D01*
X0057683Y0124087D01*
X0057732Y0124123D01*
X0057783Y0124156D01*
X0057835Y0124185D01*
X0057890Y0124212D01*
X0057945Y0124235D01*
X0058002Y0124255D01*
X0058061Y0124271D01*
X0058120Y0124284D01*
X0058179Y0124293D01*
X0058240Y0124298D01*
X0058300Y0124300D01*
X0065300Y0124300D01*
X0065360Y0124298D01*
X0065421Y0124293D01*
X0065480Y0124284D01*
X0065539Y0124271D01*
X0065598Y0124255D01*
X0065655Y0124235D01*
X0065710Y0124212D01*
X0065765Y0124185D01*
X0065817Y0124156D01*
X0065868Y0124123D01*
X0065917Y0124087D01*
X0065963Y0124049D01*
X0066007Y0124007D01*
X0066049Y0123963D01*
X0066087Y0123917D01*
X0066123Y0123868D01*
X0066156Y0123817D01*
X0066185Y0123765D01*
X0066212Y0123710D01*
X0066235Y0123655D01*
X0066255Y0123598D01*
X0066271Y0123539D01*
X0066284Y0123480D01*
X0066293Y0123421D01*
X0066298Y0123360D01*
X0066300Y0123300D01*
X0066300Y0121800D01*
X0065800Y0121300D01*
X0065800Y0102300D01*
X0066300Y0101800D01*
X0066300Y0100300D01*
X0067300Y0100300D02*
X0067300Y0101800D01*
X0067800Y0102300D01*
X0067800Y0121300D01*
X0067300Y0121800D01*
X0067300Y0123300D01*
X0067302Y0123360D01*
X0067307Y0123421D01*
X0067316Y0123480D01*
X0067329Y0123539D01*
X0067345Y0123598D01*
X0067365Y0123655D01*
X0067388Y0123710D01*
X0067415Y0123765D01*
X0067444Y0123817D01*
X0067477Y0123868D01*
X0067513Y0123917D01*
X0067551Y0123963D01*
X0067593Y0124007D01*
X0067637Y0124049D01*
X0067683Y0124087D01*
X0067732Y0124123D01*
X0067783Y0124156D01*
X0067835Y0124185D01*
X0067890Y0124212D01*
X0067945Y0124235D01*
X0068002Y0124255D01*
X0068061Y0124271D01*
X0068120Y0124284D01*
X0068179Y0124293D01*
X0068240Y0124298D01*
X0068300Y0124300D01*
X0075300Y0124300D01*
X0075360Y0124298D01*
X0075421Y0124293D01*
X0075480Y0124284D01*
X0075539Y0124271D01*
X0075598Y0124255D01*
X0075655Y0124235D01*
X0075710Y0124212D01*
X0075765Y0124185D01*
X0075817Y0124156D01*
X0075868Y0124123D01*
X0075917Y0124087D01*
X0075963Y0124049D01*
X0076007Y0124007D01*
X0076049Y0123963D01*
X0076087Y0123917D01*
X0076123Y0123868D01*
X0076156Y0123817D01*
X0076185Y0123765D01*
X0076212Y0123710D01*
X0076235Y0123655D01*
X0076255Y0123598D01*
X0076271Y0123539D01*
X0076284Y0123480D01*
X0076293Y0123421D01*
X0076298Y0123360D01*
X0076300Y0123300D01*
X0076300Y0121800D01*
X0075800Y0121300D01*
X0075800Y0102300D01*
X0076300Y0101800D01*
X0076300Y0100300D01*
X0076298Y0100240D01*
X0076293Y0100179D01*
X0076284Y0100120D01*
X0076271Y0100061D01*
X0076255Y0100002D01*
X0076235Y0099945D01*
X0076212Y0099890D01*
X0076185Y0099835D01*
X0076156Y0099783D01*
X0076123Y0099732D01*
X0076087Y0099683D01*
X0076049Y0099637D01*
X0076007Y0099593D01*
X0075963Y0099551D01*
X0075917Y0099513D01*
X0075868Y0099477D01*
X0075817Y0099444D01*
X0075765Y0099415D01*
X0075710Y0099388D01*
X0075655Y0099365D01*
X0075598Y0099345D01*
X0075539Y0099329D01*
X0075480Y0099316D01*
X0075421Y0099307D01*
X0075360Y0099302D01*
X0075300Y0099300D01*
X0068300Y0099300D01*
X0068240Y0099302D01*
X0068179Y0099307D01*
X0068120Y0099316D01*
X0068061Y0099329D01*
X0068002Y0099345D01*
X0067945Y0099365D01*
X0067890Y0099388D01*
X0067835Y0099415D01*
X0067783Y0099444D01*
X0067732Y0099477D01*
X0067683Y0099513D01*
X0067637Y0099551D01*
X0067593Y0099593D01*
X0067551Y0099637D01*
X0067513Y0099683D01*
X0067477Y0099732D01*
X0067444Y0099783D01*
X0067415Y0099835D01*
X0067388Y0099890D01*
X0067365Y0099945D01*
X0067345Y0100002D01*
X0067329Y0100061D01*
X0067316Y0100120D01*
X0067307Y0100179D01*
X0067302Y0100240D01*
X0067300Y0100300D01*
X0066300Y0100300D02*
X0066298Y0100240D01*
X0066293Y0100179D01*
X0066284Y0100120D01*
X0066271Y0100061D01*
X0066255Y0100002D01*
X0066235Y0099945D01*
X0066212Y0099890D01*
X0066185Y0099835D01*
X0066156Y0099783D01*
X0066123Y0099732D01*
X0066087Y0099683D01*
X0066049Y0099637D01*
X0066007Y0099593D01*
X0065963Y0099551D01*
X0065917Y0099513D01*
X0065868Y0099477D01*
X0065817Y0099444D01*
X0065765Y0099415D01*
X0065710Y0099388D01*
X0065655Y0099365D01*
X0065598Y0099345D01*
X0065539Y0099329D01*
X0065480Y0099316D01*
X0065421Y0099307D01*
X0065360Y0099302D01*
X0065300Y0099300D01*
X0058300Y0099300D01*
X0058240Y0099302D01*
X0058179Y0099307D01*
X0058120Y0099316D01*
X0058061Y0099329D01*
X0058002Y0099345D01*
X0057945Y0099365D01*
X0057890Y0099388D01*
X0057835Y0099415D01*
X0057783Y0099444D01*
X0057732Y0099477D01*
X0057683Y0099513D01*
X0057637Y0099551D01*
X0057593Y0099593D01*
X0057551Y0099637D01*
X0057513Y0099683D01*
X0057477Y0099732D01*
X0057444Y0099783D01*
X0057415Y0099835D01*
X0057388Y0099890D01*
X0057365Y0099945D01*
X0057345Y0100002D01*
X0057329Y0100061D01*
X0057316Y0100120D01*
X0057307Y0100179D01*
X0057302Y0100240D01*
X0057300Y0100300D01*
X0056300Y0100300D02*
X0056298Y0100240D01*
X0056293Y0100179D01*
X0056284Y0100120D01*
X0056271Y0100061D01*
X0056255Y0100002D01*
X0056235Y0099945D01*
X0056212Y0099890D01*
X0056185Y0099835D01*
X0056156Y0099783D01*
X0056123Y0099732D01*
X0056087Y0099683D01*
X0056049Y0099637D01*
X0056007Y0099593D01*
X0055963Y0099551D01*
X0055917Y0099513D01*
X0055868Y0099477D01*
X0055817Y0099444D01*
X0055765Y0099415D01*
X0055710Y0099388D01*
X0055655Y0099365D01*
X0055598Y0099345D01*
X0055539Y0099329D01*
X0055480Y0099316D01*
X0055421Y0099307D01*
X0055360Y0099302D01*
X0055300Y0099300D01*
X0036300Y0100300D02*
X0036300Y0101800D01*
X0035800Y0102300D01*
X0035800Y0121300D01*
X0036300Y0121800D01*
X0036300Y0123300D01*
X0036298Y0123360D01*
X0036293Y0123421D01*
X0036284Y0123480D01*
X0036271Y0123539D01*
X0036255Y0123598D01*
X0036235Y0123655D01*
X0036212Y0123710D01*
X0036185Y0123765D01*
X0036156Y0123817D01*
X0036123Y0123868D01*
X0036087Y0123917D01*
X0036049Y0123963D01*
X0036007Y0124007D01*
X0035963Y0124049D01*
X0035917Y0124087D01*
X0035868Y0124123D01*
X0035817Y0124156D01*
X0035765Y0124185D01*
X0035710Y0124212D01*
X0035655Y0124235D01*
X0035598Y0124255D01*
X0035539Y0124271D01*
X0035480Y0124284D01*
X0035421Y0124293D01*
X0035360Y0124298D01*
X0035300Y0124300D01*
X0028300Y0124300D01*
X0028240Y0124298D01*
X0028179Y0124293D01*
X0028120Y0124284D01*
X0028061Y0124271D01*
X0028002Y0124255D01*
X0027945Y0124235D01*
X0027890Y0124212D01*
X0027835Y0124185D01*
X0027783Y0124156D01*
X0027732Y0124123D01*
X0027683Y0124087D01*
X0027637Y0124049D01*
X0027593Y0124007D01*
X0027551Y0123963D01*
X0027513Y0123917D01*
X0027477Y0123868D01*
X0027444Y0123817D01*
X0027415Y0123765D01*
X0027388Y0123710D01*
X0027365Y0123655D01*
X0027345Y0123598D01*
X0027329Y0123539D01*
X0027316Y0123480D01*
X0027307Y0123421D01*
X0027302Y0123360D01*
X0027300Y0123300D01*
X0027300Y0121800D01*
X0027800Y0121300D01*
X0027800Y0102300D01*
X0027300Y0101800D01*
X0027300Y0100300D01*
X0027302Y0100240D01*
X0027307Y0100179D01*
X0027316Y0100120D01*
X0027329Y0100061D01*
X0027345Y0100002D01*
X0027365Y0099945D01*
X0027388Y0099890D01*
X0027415Y0099835D01*
X0027444Y0099783D01*
X0027477Y0099732D01*
X0027513Y0099683D01*
X0027551Y0099637D01*
X0027593Y0099593D01*
X0027637Y0099551D01*
X0027683Y0099513D01*
X0027732Y0099477D01*
X0027783Y0099444D01*
X0027835Y0099415D01*
X0027890Y0099388D01*
X0027945Y0099365D01*
X0028002Y0099345D01*
X0028061Y0099329D01*
X0028120Y0099316D01*
X0028179Y0099307D01*
X0028240Y0099302D01*
X0028300Y0099300D01*
X0035300Y0099300D01*
X0035360Y0099302D01*
X0035421Y0099307D01*
X0035480Y0099316D01*
X0035539Y0099329D01*
X0035598Y0099345D01*
X0035655Y0099365D01*
X0035710Y0099388D01*
X0035765Y0099415D01*
X0035817Y0099444D01*
X0035868Y0099477D01*
X0035917Y0099513D01*
X0035963Y0099551D01*
X0036007Y0099593D01*
X0036049Y0099637D01*
X0036087Y0099683D01*
X0036123Y0099732D01*
X0036156Y0099783D01*
X0036185Y0099835D01*
X0036212Y0099890D01*
X0036235Y0099945D01*
X0036255Y0100002D01*
X0036271Y0100061D01*
X0036284Y0100120D01*
X0036293Y0100179D01*
X0036298Y0100240D01*
X0036300Y0100300D01*
X0077300Y0100300D02*
X0077300Y0101800D01*
X0077800Y0102300D01*
X0077800Y0121300D01*
X0077300Y0121800D01*
X0077300Y0123300D01*
X0077302Y0123360D01*
X0077307Y0123421D01*
X0077316Y0123480D01*
X0077329Y0123539D01*
X0077345Y0123598D01*
X0077365Y0123655D01*
X0077388Y0123710D01*
X0077415Y0123765D01*
X0077444Y0123817D01*
X0077477Y0123868D01*
X0077513Y0123917D01*
X0077551Y0123963D01*
X0077593Y0124007D01*
X0077637Y0124049D01*
X0077683Y0124087D01*
X0077732Y0124123D01*
X0077783Y0124156D01*
X0077835Y0124185D01*
X0077890Y0124212D01*
X0077945Y0124235D01*
X0078002Y0124255D01*
X0078061Y0124271D01*
X0078120Y0124284D01*
X0078179Y0124293D01*
X0078240Y0124298D01*
X0078300Y0124300D01*
X0085300Y0124300D01*
X0085360Y0124298D01*
X0085421Y0124293D01*
X0085480Y0124284D01*
X0085539Y0124271D01*
X0085598Y0124255D01*
X0085655Y0124235D01*
X0085710Y0124212D01*
X0085765Y0124185D01*
X0085817Y0124156D01*
X0085868Y0124123D01*
X0085917Y0124087D01*
X0085963Y0124049D01*
X0086007Y0124007D01*
X0086049Y0123963D01*
X0086087Y0123917D01*
X0086123Y0123868D01*
X0086156Y0123817D01*
X0086185Y0123765D01*
X0086212Y0123710D01*
X0086235Y0123655D01*
X0086255Y0123598D01*
X0086271Y0123539D01*
X0086284Y0123480D01*
X0086293Y0123421D01*
X0086298Y0123360D01*
X0086300Y0123300D01*
X0086300Y0121800D01*
X0085800Y0121300D01*
X0085800Y0102300D01*
X0086300Y0101800D01*
X0086300Y0100300D01*
X0086298Y0100240D01*
X0086293Y0100179D01*
X0086284Y0100120D01*
X0086271Y0100061D01*
X0086255Y0100002D01*
X0086235Y0099945D01*
X0086212Y0099890D01*
X0086185Y0099835D01*
X0086156Y0099783D01*
X0086123Y0099732D01*
X0086087Y0099683D01*
X0086049Y0099637D01*
X0086007Y0099593D01*
X0085963Y0099551D01*
X0085917Y0099513D01*
X0085868Y0099477D01*
X0085817Y0099444D01*
X0085765Y0099415D01*
X0085710Y0099388D01*
X0085655Y0099365D01*
X0085598Y0099345D01*
X0085539Y0099329D01*
X0085480Y0099316D01*
X0085421Y0099307D01*
X0085360Y0099302D01*
X0085300Y0099300D01*
X0078300Y0099300D01*
X0078240Y0099302D01*
X0078179Y0099307D01*
X0078120Y0099316D01*
X0078061Y0099329D01*
X0078002Y0099345D01*
X0077945Y0099365D01*
X0077890Y0099388D01*
X0077835Y0099415D01*
X0077783Y0099444D01*
X0077732Y0099477D01*
X0077683Y0099513D01*
X0077637Y0099551D01*
X0077593Y0099593D01*
X0077551Y0099637D01*
X0077513Y0099683D01*
X0077477Y0099732D01*
X0077444Y0099783D01*
X0077415Y0099835D01*
X0077388Y0099890D01*
X0077365Y0099945D01*
X0077345Y0100002D01*
X0077329Y0100061D01*
X0077316Y0100120D01*
X0077307Y0100179D01*
X0077302Y0100240D01*
X0077300Y0100300D01*
X0087300Y0100300D02*
X0087300Y0101800D01*
X0087800Y0102300D01*
X0087800Y0121300D01*
X0087300Y0121800D01*
X0087300Y0123300D01*
X0087302Y0123360D01*
X0087307Y0123421D01*
X0087316Y0123480D01*
X0087329Y0123539D01*
X0087345Y0123598D01*
X0087365Y0123655D01*
X0087388Y0123710D01*
X0087415Y0123765D01*
X0087444Y0123817D01*
X0087477Y0123868D01*
X0087513Y0123917D01*
X0087551Y0123963D01*
X0087593Y0124007D01*
X0087637Y0124049D01*
X0087683Y0124087D01*
X0087732Y0124123D01*
X0087783Y0124156D01*
X0087835Y0124185D01*
X0087890Y0124212D01*
X0087945Y0124235D01*
X0088002Y0124255D01*
X0088061Y0124271D01*
X0088120Y0124284D01*
X0088179Y0124293D01*
X0088240Y0124298D01*
X0088300Y0124300D01*
X0095300Y0124300D01*
X0095360Y0124298D01*
X0095421Y0124293D01*
X0095480Y0124284D01*
X0095539Y0124271D01*
X0095598Y0124255D01*
X0095655Y0124235D01*
X0095710Y0124212D01*
X0095765Y0124185D01*
X0095817Y0124156D01*
X0095868Y0124123D01*
X0095917Y0124087D01*
X0095963Y0124049D01*
X0096007Y0124007D01*
X0096049Y0123963D01*
X0096087Y0123917D01*
X0096123Y0123868D01*
X0096156Y0123817D01*
X0096185Y0123765D01*
X0096212Y0123710D01*
X0096235Y0123655D01*
X0096255Y0123598D01*
X0096271Y0123539D01*
X0096284Y0123480D01*
X0096293Y0123421D01*
X0096298Y0123360D01*
X0096300Y0123300D01*
X0096300Y0121800D01*
X0095800Y0121300D01*
X0095800Y0102300D01*
X0096300Y0101800D01*
X0096300Y0100300D01*
X0096298Y0100240D01*
X0096293Y0100179D01*
X0096284Y0100120D01*
X0096271Y0100061D01*
X0096255Y0100002D01*
X0096235Y0099945D01*
X0096212Y0099890D01*
X0096185Y0099835D01*
X0096156Y0099783D01*
X0096123Y0099732D01*
X0096087Y0099683D01*
X0096049Y0099637D01*
X0096007Y0099593D01*
X0095963Y0099551D01*
X0095917Y0099513D01*
X0095868Y0099477D01*
X0095817Y0099444D01*
X0095765Y0099415D01*
X0095710Y0099388D01*
X0095655Y0099365D01*
X0095598Y0099345D01*
X0095539Y0099329D01*
X0095480Y0099316D01*
X0095421Y0099307D01*
X0095360Y0099302D01*
X0095300Y0099300D01*
X0088300Y0099300D01*
X0088240Y0099302D01*
X0088179Y0099307D01*
X0088120Y0099316D01*
X0088061Y0099329D01*
X0088002Y0099345D01*
X0087945Y0099365D01*
X0087890Y0099388D01*
X0087835Y0099415D01*
X0087783Y0099444D01*
X0087732Y0099477D01*
X0087683Y0099513D01*
X0087637Y0099551D01*
X0087593Y0099593D01*
X0087551Y0099637D01*
X0087513Y0099683D01*
X0087477Y0099732D01*
X0087444Y0099783D01*
X0087415Y0099835D01*
X0087388Y0099890D01*
X0087365Y0099945D01*
X0087345Y0100002D01*
X0087329Y0100061D01*
X0087316Y0100120D01*
X0087307Y0100179D01*
X0087302Y0100240D01*
X0087300Y0100300D01*
X0097300Y0100300D02*
X0097300Y0101800D01*
X0097800Y0102300D01*
X0097800Y0121300D01*
X0097300Y0121800D01*
X0097300Y0123300D01*
X0097302Y0123360D01*
X0097307Y0123421D01*
X0097316Y0123480D01*
X0097329Y0123539D01*
X0097345Y0123598D01*
X0097365Y0123655D01*
X0097388Y0123710D01*
X0097415Y0123765D01*
X0097444Y0123817D01*
X0097477Y0123868D01*
X0097513Y0123917D01*
X0097551Y0123963D01*
X0097593Y0124007D01*
X0097637Y0124049D01*
X0097683Y0124087D01*
X0097732Y0124123D01*
X0097783Y0124156D01*
X0097835Y0124185D01*
X0097890Y0124212D01*
X0097945Y0124235D01*
X0098002Y0124255D01*
X0098061Y0124271D01*
X0098120Y0124284D01*
X0098179Y0124293D01*
X0098240Y0124298D01*
X0098300Y0124300D01*
X0105300Y0124300D01*
X0105360Y0124298D01*
X0105421Y0124293D01*
X0105480Y0124284D01*
X0105539Y0124271D01*
X0105598Y0124255D01*
X0105655Y0124235D01*
X0105710Y0124212D01*
X0105765Y0124185D01*
X0105817Y0124156D01*
X0105868Y0124123D01*
X0105917Y0124087D01*
X0105963Y0124049D01*
X0106007Y0124007D01*
X0106049Y0123963D01*
X0106087Y0123917D01*
X0106123Y0123868D01*
X0106156Y0123817D01*
X0106185Y0123765D01*
X0106212Y0123710D01*
X0106235Y0123655D01*
X0106255Y0123598D01*
X0106271Y0123539D01*
X0106284Y0123480D01*
X0106293Y0123421D01*
X0106298Y0123360D01*
X0106300Y0123300D01*
X0106300Y0121800D01*
X0105800Y0121300D01*
X0105800Y0102300D01*
X0106300Y0101800D01*
X0106300Y0100300D01*
X0106298Y0100240D01*
X0106293Y0100179D01*
X0106284Y0100120D01*
X0106271Y0100061D01*
X0106255Y0100002D01*
X0106235Y0099945D01*
X0106212Y0099890D01*
X0106185Y0099835D01*
X0106156Y0099783D01*
X0106123Y0099732D01*
X0106087Y0099683D01*
X0106049Y0099637D01*
X0106007Y0099593D01*
X0105963Y0099551D01*
X0105917Y0099513D01*
X0105868Y0099477D01*
X0105817Y0099444D01*
X0105765Y0099415D01*
X0105710Y0099388D01*
X0105655Y0099365D01*
X0105598Y0099345D01*
X0105539Y0099329D01*
X0105480Y0099316D01*
X0105421Y0099307D01*
X0105360Y0099302D01*
X0105300Y0099300D01*
X0098300Y0099300D01*
X0098240Y0099302D01*
X0098179Y0099307D01*
X0098120Y0099316D01*
X0098061Y0099329D01*
X0098002Y0099345D01*
X0097945Y0099365D01*
X0097890Y0099388D01*
X0097835Y0099415D01*
X0097783Y0099444D01*
X0097732Y0099477D01*
X0097683Y0099513D01*
X0097637Y0099551D01*
X0097593Y0099593D01*
X0097551Y0099637D01*
X0097513Y0099683D01*
X0097477Y0099732D01*
X0097444Y0099783D01*
X0097415Y0099835D01*
X0097388Y0099890D01*
X0097365Y0099945D01*
X0097345Y0100002D01*
X0097329Y0100061D01*
X0097316Y0100120D01*
X0097307Y0100179D01*
X0097302Y0100240D01*
X0097300Y0100300D01*
X0112800Y0121800D02*
X0120800Y0121800D01*
X0121800Y0122800D01*
X0121800Y0130800D01*
X0120800Y0131800D01*
X0121800Y0132800D01*
X0121800Y0140800D01*
X0120800Y0141800D01*
X0112800Y0141800D01*
X0111800Y0140800D01*
X0111800Y0132800D01*
X0112800Y0131800D01*
X0111800Y0130800D01*
X0111800Y0122800D01*
X0112800Y0121800D01*
X0104300Y0146111D02*
X0104300Y0184666D01*
X0103800Y0196442D02*
X0103702Y0196444D01*
X0103604Y0196450D01*
X0103506Y0196459D01*
X0103409Y0196473D01*
X0103312Y0196490D01*
X0103216Y0196511D01*
X0103121Y0196536D01*
X0103027Y0196564D01*
X0102935Y0196597D01*
X0102843Y0196632D01*
X0102753Y0196672D01*
X0102665Y0196714D01*
X0102578Y0196761D01*
X0102494Y0196810D01*
X0102411Y0196863D01*
X0102331Y0196919D01*
X0102252Y0196979D01*
X0102176Y0197041D01*
X0102103Y0197106D01*
X0102032Y0197174D01*
X0101964Y0197245D01*
X0101899Y0197318D01*
X0101837Y0197394D01*
X0101777Y0197473D01*
X0101721Y0197553D01*
X0101668Y0197636D01*
X0101619Y0197720D01*
X0101572Y0197807D01*
X0101530Y0197895D01*
X0101490Y0197985D01*
X0101455Y0198077D01*
X0101422Y0198169D01*
X0101394Y0198263D01*
X0101369Y0198358D01*
X0101348Y0198454D01*
X0101331Y0198551D01*
X0101317Y0198648D01*
X0101308Y0198746D01*
X0101302Y0198844D01*
X0101300Y0198942D01*
X0101300Y0217442D01*
X0101298Y0217529D01*
X0101292Y0217616D01*
X0101283Y0217703D01*
X0101270Y0217789D01*
X0101253Y0217875D01*
X0101232Y0217960D01*
X0101207Y0218043D01*
X0101179Y0218126D01*
X0101148Y0218207D01*
X0101113Y0218287D01*
X0101074Y0218365D01*
X0101032Y0218442D01*
X0100987Y0218517D01*
X0100938Y0218589D01*
X0100887Y0218660D01*
X0100832Y0218728D01*
X0100775Y0218793D01*
X0100714Y0218856D01*
X0100651Y0218917D01*
X0100586Y0218974D01*
X0100518Y0219029D01*
X0100447Y0219080D01*
X0100375Y0219129D01*
X0100300Y0219174D01*
X0100223Y0219216D01*
X0100145Y0219255D01*
X0100065Y0219290D01*
X0099984Y0219321D01*
X0099901Y0219349D01*
X0099818Y0219374D01*
X0099733Y0219395D01*
X0099647Y0219412D01*
X0099561Y0219425D01*
X0099474Y0219434D01*
X0099387Y0219440D01*
X0099300Y0219442D01*
X0034300Y0219442D01*
X0034213Y0219440D01*
X0034126Y0219434D01*
X0034039Y0219425D01*
X0033953Y0219412D01*
X0033867Y0219395D01*
X0033782Y0219374D01*
X0033699Y0219349D01*
X0033616Y0219321D01*
X0033535Y0219290D01*
X0033455Y0219255D01*
X0033377Y0219216D01*
X0033300Y0219174D01*
X0033225Y0219129D01*
X0033153Y0219080D01*
X0033082Y0219029D01*
X0033014Y0218974D01*
X0032949Y0218917D01*
X0032886Y0218856D01*
X0032825Y0218793D01*
X0032768Y0218728D01*
X0032713Y0218660D01*
X0032662Y0218589D01*
X0032613Y0218517D01*
X0032568Y0218442D01*
X0032526Y0218365D01*
X0032487Y0218287D01*
X0032452Y0218207D01*
X0032421Y0218126D01*
X0032393Y0218043D01*
X0032368Y0217960D01*
X0032347Y0217875D01*
X0032330Y0217789D01*
X0032317Y0217703D01*
X0032308Y0217616D01*
X0032302Y0217529D01*
X0032300Y0217442D01*
X0032300Y0198942D01*
X0032298Y0198844D01*
X0032292Y0198746D01*
X0032283Y0198648D01*
X0032269Y0198551D01*
X0032252Y0198454D01*
X0032231Y0198358D01*
X0032206Y0198263D01*
X0032178Y0198169D01*
X0032145Y0198077D01*
X0032110Y0197985D01*
X0032070Y0197895D01*
X0032028Y0197807D01*
X0031981Y0197720D01*
X0031932Y0197636D01*
X0031879Y0197553D01*
X0031823Y0197473D01*
X0031763Y0197394D01*
X0031701Y0197318D01*
X0031636Y0197245D01*
X0031568Y0197174D01*
X0031497Y0197106D01*
X0031424Y0197041D01*
X0031348Y0196979D01*
X0031269Y0196919D01*
X0031189Y0196863D01*
X0031106Y0196810D01*
X0031022Y0196761D01*
X0030935Y0196714D01*
X0030847Y0196672D01*
X0030757Y0196632D01*
X0030665Y0196597D01*
X0030573Y0196564D01*
X0030479Y0196536D01*
X0030384Y0196511D01*
X0030288Y0196490D01*
X0030191Y0196473D01*
X0030094Y0196459D01*
X0029996Y0196450D01*
X0029898Y0196444D01*
X0029800Y0196442D01*
X0029300Y0184666D02*
X0029300Y0146111D01*
X0005800Y0146111D02*
X0005800Y0185442D01*
X0127800Y0185442D01*
X0135800Y0185442D02*
X0257800Y0185442D01*
X0257800Y0196442D02*
X0135800Y0196442D01*
X0135800Y0185442D01*
X0135800Y0146111D01*
X0135800Y0146042D02*
X0257800Y0146042D01*
X0257800Y0146111D02*
X0257800Y0196442D01*
X0233800Y0196442D02*
X0233702Y0196444D01*
X0233604Y0196450D01*
X0233506Y0196459D01*
X0233409Y0196473D01*
X0233312Y0196490D01*
X0233216Y0196511D01*
X0233121Y0196536D01*
X0233027Y0196564D01*
X0232935Y0196597D01*
X0232843Y0196632D01*
X0232753Y0196672D01*
X0232665Y0196714D01*
X0232578Y0196761D01*
X0232494Y0196810D01*
X0232411Y0196863D01*
X0232331Y0196919D01*
X0232252Y0196979D01*
X0232176Y0197041D01*
X0232103Y0197106D01*
X0232032Y0197174D01*
X0231964Y0197245D01*
X0231899Y0197318D01*
X0231837Y0197394D01*
X0231777Y0197473D01*
X0231721Y0197553D01*
X0231668Y0197636D01*
X0231619Y0197720D01*
X0231572Y0197807D01*
X0231530Y0197895D01*
X0231490Y0197985D01*
X0231455Y0198077D01*
X0231422Y0198169D01*
X0231394Y0198263D01*
X0231369Y0198358D01*
X0231348Y0198454D01*
X0231331Y0198551D01*
X0231317Y0198648D01*
X0231308Y0198746D01*
X0231302Y0198844D01*
X0231300Y0198942D01*
X0231300Y0217442D01*
X0231298Y0217529D01*
X0231292Y0217616D01*
X0231283Y0217703D01*
X0231270Y0217789D01*
X0231253Y0217875D01*
X0231232Y0217960D01*
X0231207Y0218043D01*
X0231179Y0218126D01*
X0231148Y0218207D01*
X0231113Y0218287D01*
X0231074Y0218365D01*
X0231032Y0218442D01*
X0230987Y0218517D01*
X0230938Y0218589D01*
X0230887Y0218660D01*
X0230832Y0218728D01*
X0230775Y0218793D01*
X0230714Y0218856D01*
X0230651Y0218917D01*
X0230586Y0218974D01*
X0230518Y0219029D01*
X0230447Y0219080D01*
X0230375Y0219129D01*
X0230300Y0219174D01*
X0230223Y0219216D01*
X0230145Y0219255D01*
X0230065Y0219290D01*
X0229984Y0219321D01*
X0229901Y0219349D01*
X0229818Y0219374D01*
X0229733Y0219395D01*
X0229647Y0219412D01*
X0229561Y0219425D01*
X0229474Y0219434D01*
X0229387Y0219440D01*
X0229300Y0219442D01*
X0164300Y0219442D01*
X0164213Y0219440D01*
X0164126Y0219434D01*
X0164039Y0219425D01*
X0163953Y0219412D01*
X0163867Y0219395D01*
X0163782Y0219374D01*
X0163699Y0219349D01*
X0163616Y0219321D01*
X0163535Y0219290D01*
X0163455Y0219255D01*
X0163377Y0219216D01*
X0163300Y0219174D01*
X0163225Y0219129D01*
X0163153Y0219080D01*
X0163082Y0219029D01*
X0163014Y0218974D01*
X0162949Y0218917D01*
X0162886Y0218856D01*
X0162825Y0218793D01*
X0162768Y0218728D01*
X0162713Y0218660D01*
X0162662Y0218589D01*
X0162613Y0218517D01*
X0162568Y0218442D01*
X0162526Y0218365D01*
X0162487Y0218287D01*
X0162452Y0218207D01*
X0162421Y0218126D01*
X0162393Y0218043D01*
X0162368Y0217960D01*
X0162347Y0217875D01*
X0162330Y0217789D01*
X0162317Y0217703D01*
X0162308Y0217616D01*
X0162302Y0217529D01*
X0162300Y0217442D01*
X0162300Y0198942D01*
X0162298Y0198844D01*
X0162292Y0198746D01*
X0162283Y0198648D01*
X0162269Y0198551D01*
X0162252Y0198454D01*
X0162231Y0198358D01*
X0162206Y0198263D01*
X0162178Y0198169D01*
X0162145Y0198077D01*
X0162110Y0197985D01*
X0162070Y0197895D01*
X0162028Y0197807D01*
X0161981Y0197720D01*
X0161932Y0197636D01*
X0161879Y0197553D01*
X0161823Y0197473D01*
X0161763Y0197394D01*
X0161701Y0197318D01*
X0161636Y0197245D01*
X0161568Y0197174D01*
X0161497Y0197106D01*
X0161424Y0197041D01*
X0161348Y0196979D01*
X0161269Y0196919D01*
X0161189Y0196863D01*
X0161106Y0196810D01*
X0161022Y0196761D01*
X0160935Y0196714D01*
X0160847Y0196672D01*
X0160757Y0196632D01*
X0160665Y0196597D01*
X0160573Y0196564D01*
X0160479Y0196536D01*
X0160384Y0196511D01*
X0160288Y0196490D01*
X0160191Y0196473D01*
X0160094Y0196459D01*
X0159996Y0196450D01*
X0159898Y0196444D01*
X0159800Y0196442D01*
X0159300Y0184666D02*
X0159300Y0146111D01*
X0158300Y0124300D02*
X0165300Y0124300D01*
X0165360Y0124298D01*
X0165421Y0124293D01*
X0165480Y0124284D01*
X0165539Y0124271D01*
X0165598Y0124255D01*
X0165655Y0124235D01*
X0165710Y0124212D01*
X0165765Y0124185D01*
X0165817Y0124156D01*
X0165868Y0124123D01*
X0165917Y0124087D01*
X0165963Y0124049D01*
X0166007Y0124007D01*
X0166049Y0123963D01*
X0166087Y0123917D01*
X0166123Y0123868D01*
X0166156Y0123817D01*
X0166185Y0123765D01*
X0166212Y0123710D01*
X0166235Y0123655D01*
X0166255Y0123598D01*
X0166271Y0123539D01*
X0166284Y0123480D01*
X0166293Y0123421D01*
X0166298Y0123360D01*
X0166300Y0123300D01*
X0166300Y0121800D01*
X0165800Y0121300D01*
X0165800Y0102300D01*
X0166300Y0101800D01*
X0166300Y0100300D01*
X0167300Y0100300D02*
X0167300Y0101800D01*
X0167800Y0102300D01*
X0167800Y0121300D01*
X0167300Y0121800D01*
X0167300Y0123300D01*
X0167302Y0123360D01*
X0167307Y0123421D01*
X0167316Y0123480D01*
X0167329Y0123539D01*
X0167345Y0123598D01*
X0167365Y0123655D01*
X0167388Y0123710D01*
X0167415Y0123765D01*
X0167444Y0123817D01*
X0167477Y0123868D01*
X0167513Y0123917D01*
X0167551Y0123963D01*
X0167593Y0124007D01*
X0167637Y0124049D01*
X0167683Y0124087D01*
X0167732Y0124123D01*
X0167783Y0124156D01*
X0167835Y0124185D01*
X0167890Y0124212D01*
X0167945Y0124235D01*
X0168002Y0124255D01*
X0168061Y0124271D01*
X0168120Y0124284D01*
X0168179Y0124293D01*
X0168240Y0124298D01*
X0168300Y0124300D01*
X0175300Y0124300D01*
X0175360Y0124298D01*
X0175421Y0124293D01*
X0175480Y0124284D01*
X0175539Y0124271D01*
X0175598Y0124255D01*
X0175655Y0124235D01*
X0175710Y0124212D01*
X0175765Y0124185D01*
X0175817Y0124156D01*
X0175868Y0124123D01*
X0175917Y0124087D01*
X0175963Y0124049D01*
X0176007Y0124007D01*
X0176049Y0123963D01*
X0176087Y0123917D01*
X0176123Y0123868D01*
X0176156Y0123817D01*
X0176185Y0123765D01*
X0176212Y0123710D01*
X0176235Y0123655D01*
X0176255Y0123598D01*
X0176271Y0123539D01*
X0176284Y0123480D01*
X0176293Y0123421D01*
X0176298Y0123360D01*
X0176300Y0123300D01*
X0176300Y0121800D01*
X0175800Y0121300D01*
X0175800Y0102300D01*
X0176300Y0101800D01*
X0176300Y0100300D01*
X0176298Y0100240D01*
X0176293Y0100179D01*
X0176284Y0100120D01*
X0176271Y0100061D01*
X0176255Y0100002D01*
X0176235Y0099945D01*
X0176212Y0099890D01*
X0176185Y0099835D01*
X0176156Y0099783D01*
X0176123Y0099732D01*
X0176087Y0099683D01*
X0176049Y0099637D01*
X0176007Y0099593D01*
X0175963Y0099551D01*
X0175917Y0099513D01*
X0175868Y0099477D01*
X0175817Y0099444D01*
X0175765Y0099415D01*
X0175710Y0099388D01*
X0175655Y0099365D01*
X0175598Y0099345D01*
X0175539Y0099329D01*
X0175480Y0099316D01*
X0175421Y0099307D01*
X0175360Y0099302D01*
X0175300Y0099300D01*
X0168300Y0099300D01*
X0168240Y0099302D01*
X0168179Y0099307D01*
X0168120Y0099316D01*
X0168061Y0099329D01*
X0168002Y0099345D01*
X0167945Y0099365D01*
X0167890Y0099388D01*
X0167835Y0099415D01*
X0167783Y0099444D01*
X0167732Y0099477D01*
X0167683Y0099513D01*
X0167637Y0099551D01*
X0167593Y0099593D01*
X0167551Y0099637D01*
X0167513Y0099683D01*
X0167477Y0099732D01*
X0167444Y0099783D01*
X0167415Y0099835D01*
X0167388Y0099890D01*
X0167365Y0099945D01*
X0167345Y0100002D01*
X0167329Y0100061D01*
X0167316Y0100120D01*
X0167307Y0100179D01*
X0167302Y0100240D01*
X0167300Y0100300D01*
X0166300Y0100300D02*
X0166298Y0100240D01*
X0166293Y0100179D01*
X0166284Y0100120D01*
X0166271Y0100061D01*
X0166255Y0100002D01*
X0166235Y0099945D01*
X0166212Y0099890D01*
X0166185Y0099835D01*
X0166156Y0099783D01*
X0166123Y0099732D01*
X0166087Y0099683D01*
X0166049Y0099637D01*
X0166007Y0099593D01*
X0165963Y0099551D01*
X0165917Y0099513D01*
X0165868Y0099477D01*
X0165817Y0099444D01*
X0165765Y0099415D01*
X0165710Y0099388D01*
X0165655Y0099365D01*
X0165598Y0099345D01*
X0165539Y0099329D01*
X0165480Y0099316D01*
X0165421Y0099307D01*
X0165360Y0099302D01*
X0165300Y0099300D01*
X0158300Y0099300D01*
X0158240Y0099302D01*
X0158179Y0099307D01*
X0158120Y0099316D01*
X0158061Y0099329D01*
X0158002Y0099345D01*
X0157945Y0099365D01*
X0157890Y0099388D01*
X0157835Y0099415D01*
X0157783Y0099444D01*
X0157732Y0099477D01*
X0157683Y0099513D01*
X0157637Y0099551D01*
X0157593Y0099593D01*
X0157551Y0099637D01*
X0157513Y0099683D01*
X0157477Y0099732D01*
X0157444Y0099783D01*
X0157415Y0099835D01*
X0157388Y0099890D01*
X0157365Y0099945D01*
X0157345Y0100002D01*
X0157329Y0100061D01*
X0157316Y0100120D01*
X0157307Y0100179D01*
X0157302Y0100240D01*
X0157300Y0100300D01*
X0157300Y0101800D01*
X0157800Y0102300D01*
X0157800Y0121300D01*
X0157300Y0121800D01*
X0157300Y0123300D01*
X0157302Y0123360D01*
X0157307Y0123421D01*
X0157316Y0123480D01*
X0157329Y0123539D01*
X0157345Y0123598D01*
X0157365Y0123655D01*
X0157388Y0123710D01*
X0157415Y0123765D01*
X0157444Y0123817D01*
X0157477Y0123868D01*
X0157513Y0123917D01*
X0157551Y0123963D01*
X0157593Y0124007D01*
X0157637Y0124049D01*
X0157683Y0124087D01*
X0157732Y0124123D01*
X0157783Y0124156D01*
X0157835Y0124185D01*
X0157890Y0124212D01*
X0157945Y0124235D01*
X0158002Y0124255D01*
X0158061Y0124271D01*
X0158120Y0124284D01*
X0158179Y0124293D01*
X0158240Y0124298D01*
X0158300Y0124300D01*
X0177300Y0123300D02*
X0177300Y0121800D01*
X0177800Y0121300D01*
X0177800Y0102300D01*
X0177300Y0101800D01*
X0177300Y0100300D01*
X0177302Y0100240D01*
X0177307Y0100179D01*
X0177316Y0100120D01*
X0177329Y0100061D01*
X0177345Y0100002D01*
X0177365Y0099945D01*
X0177388Y0099890D01*
X0177415Y0099835D01*
X0177444Y0099783D01*
X0177477Y0099732D01*
X0177513Y0099683D01*
X0177551Y0099637D01*
X0177593Y0099593D01*
X0177637Y0099551D01*
X0177683Y0099513D01*
X0177732Y0099477D01*
X0177783Y0099444D01*
X0177835Y0099415D01*
X0177890Y0099388D01*
X0177945Y0099365D01*
X0178002Y0099345D01*
X0178061Y0099329D01*
X0178120Y0099316D01*
X0178179Y0099307D01*
X0178240Y0099302D01*
X0178300Y0099300D01*
X0185300Y0099300D01*
X0185360Y0099302D01*
X0185421Y0099307D01*
X0185480Y0099316D01*
X0185539Y0099329D01*
X0185598Y0099345D01*
X0185655Y0099365D01*
X0185710Y0099388D01*
X0185765Y0099415D01*
X0185817Y0099444D01*
X0185868Y0099477D01*
X0185917Y0099513D01*
X0185963Y0099551D01*
X0186007Y0099593D01*
X0186049Y0099637D01*
X0186087Y0099683D01*
X0186123Y0099732D01*
X0186156Y0099783D01*
X0186185Y0099835D01*
X0186212Y0099890D01*
X0186235Y0099945D01*
X0186255Y0100002D01*
X0186271Y0100061D01*
X0186284Y0100120D01*
X0186293Y0100179D01*
X0186298Y0100240D01*
X0186300Y0100300D01*
X0186300Y0101800D01*
X0185800Y0102300D01*
X0185800Y0121300D01*
X0186300Y0121800D01*
X0186300Y0123300D01*
X0186298Y0123360D01*
X0186293Y0123421D01*
X0186284Y0123480D01*
X0186271Y0123539D01*
X0186255Y0123598D01*
X0186235Y0123655D01*
X0186212Y0123710D01*
X0186185Y0123765D01*
X0186156Y0123817D01*
X0186123Y0123868D01*
X0186087Y0123917D01*
X0186049Y0123963D01*
X0186007Y0124007D01*
X0185963Y0124049D01*
X0185917Y0124087D01*
X0185868Y0124123D01*
X0185817Y0124156D01*
X0185765Y0124185D01*
X0185710Y0124212D01*
X0185655Y0124235D01*
X0185598Y0124255D01*
X0185539Y0124271D01*
X0185480Y0124284D01*
X0185421Y0124293D01*
X0185360Y0124298D01*
X0185300Y0124300D01*
X0178300Y0124300D01*
X0178240Y0124298D01*
X0178179Y0124293D01*
X0178120Y0124284D01*
X0178061Y0124271D01*
X0178002Y0124255D01*
X0177945Y0124235D01*
X0177890Y0124212D01*
X0177835Y0124185D01*
X0177783Y0124156D01*
X0177732Y0124123D01*
X0177683Y0124087D01*
X0177637Y0124049D01*
X0177593Y0124007D01*
X0177551Y0123963D01*
X0177513Y0123917D01*
X0177477Y0123868D01*
X0177444Y0123817D01*
X0177415Y0123765D01*
X0177388Y0123710D01*
X0177365Y0123655D01*
X0177345Y0123598D01*
X0177329Y0123539D01*
X0177316Y0123480D01*
X0177307Y0123421D01*
X0177302Y0123360D01*
X0177300Y0123300D01*
X0187300Y0123300D02*
X0187300Y0121800D01*
X0187800Y0121300D01*
X0187800Y0102300D01*
X0187300Y0101800D01*
X0187300Y0100300D01*
X0187302Y0100240D01*
X0187307Y0100179D01*
X0187316Y0100120D01*
X0187329Y0100061D01*
X0187345Y0100002D01*
X0187365Y0099945D01*
X0187388Y0099890D01*
X0187415Y0099835D01*
X0187444Y0099783D01*
X0187477Y0099732D01*
X0187513Y0099683D01*
X0187551Y0099637D01*
X0187593Y0099593D01*
X0187637Y0099551D01*
X0187683Y0099513D01*
X0187732Y0099477D01*
X0187783Y0099444D01*
X0187835Y0099415D01*
X0187890Y0099388D01*
X0187945Y0099365D01*
X0188002Y0099345D01*
X0188061Y0099329D01*
X0188120Y0099316D01*
X0188179Y0099307D01*
X0188240Y0099302D01*
X0188300Y0099300D01*
X0195300Y0099300D01*
X0195360Y0099302D01*
X0195421Y0099307D01*
X0195480Y0099316D01*
X0195539Y0099329D01*
X0195598Y0099345D01*
X0195655Y0099365D01*
X0195710Y0099388D01*
X0195765Y0099415D01*
X0195817Y0099444D01*
X0195868Y0099477D01*
X0195917Y0099513D01*
X0195963Y0099551D01*
X0196007Y0099593D01*
X0196049Y0099637D01*
X0196087Y0099683D01*
X0196123Y0099732D01*
X0196156Y0099783D01*
X0196185Y0099835D01*
X0196212Y0099890D01*
X0196235Y0099945D01*
X0196255Y0100002D01*
X0196271Y0100061D01*
X0196284Y0100120D01*
X0196293Y0100179D01*
X0196298Y0100240D01*
X0196300Y0100300D01*
X0196300Y0101800D01*
X0195800Y0102300D01*
X0195800Y0121300D01*
X0196300Y0121800D01*
X0196300Y0123300D01*
X0196298Y0123360D01*
X0196293Y0123421D01*
X0196284Y0123480D01*
X0196271Y0123539D01*
X0196255Y0123598D01*
X0196235Y0123655D01*
X0196212Y0123710D01*
X0196185Y0123765D01*
X0196156Y0123817D01*
X0196123Y0123868D01*
X0196087Y0123917D01*
X0196049Y0123963D01*
X0196007Y0124007D01*
X0195963Y0124049D01*
X0195917Y0124087D01*
X0195868Y0124123D01*
X0195817Y0124156D01*
X0195765Y0124185D01*
X0195710Y0124212D01*
X0195655Y0124235D01*
X0195598Y0124255D01*
X0195539Y0124271D01*
X0195480Y0124284D01*
X0195421Y0124293D01*
X0195360Y0124298D01*
X0195300Y0124300D01*
X0188300Y0124300D01*
X0188240Y0124298D01*
X0188179Y0124293D01*
X0188120Y0124284D01*
X0188061Y0124271D01*
X0188002Y0124255D01*
X0187945Y0124235D01*
X0187890Y0124212D01*
X0187835Y0124185D01*
X0187783Y0124156D01*
X0187732Y0124123D01*
X0187683Y0124087D01*
X0187637Y0124049D01*
X0187593Y0124007D01*
X0187551Y0123963D01*
X0187513Y0123917D01*
X0187477Y0123868D01*
X0187444Y0123817D01*
X0187415Y0123765D01*
X0187388Y0123710D01*
X0187365Y0123655D01*
X0187345Y0123598D01*
X0187329Y0123539D01*
X0187316Y0123480D01*
X0187307Y0123421D01*
X0187302Y0123360D01*
X0187300Y0123300D01*
X0197300Y0123300D02*
X0197300Y0121800D01*
X0197800Y0121300D01*
X0197800Y0102300D01*
X0197300Y0101800D01*
X0197300Y0100300D01*
X0197302Y0100240D01*
X0197307Y0100179D01*
X0197316Y0100120D01*
X0197329Y0100061D01*
X0197345Y0100002D01*
X0197365Y0099945D01*
X0197388Y0099890D01*
X0197415Y0099835D01*
X0197444Y0099783D01*
X0197477Y0099732D01*
X0197513Y0099683D01*
X0197551Y0099637D01*
X0197593Y0099593D01*
X0197637Y0099551D01*
X0197683Y0099513D01*
X0197732Y0099477D01*
X0197783Y0099444D01*
X0197835Y0099415D01*
X0197890Y0099388D01*
X0197945Y0099365D01*
X0198002Y0099345D01*
X0198061Y0099329D01*
X0198120Y0099316D01*
X0198179Y0099307D01*
X0198240Y0099302D01*
X0198300Y0099300D01*
X0205300Y0099300D01*
X0205360Y0099302D01*
X0205421Y0099307D01*
X0205480Y0099316D01*
X0205539Y0099329D01*
X0205598Y0099345D01*
X0205655Y0099365D01*
X0205710Y0099388D01*
X0205765Y0099415D01*
X0205817Y0099444D01*
X0205868Y0099477D01*
X0205917Y0099513D01*
X0205963Y0099551D01*
X0206007Y0099593D01*
X0206049Y0099637D01*
X0206087Y0099683D01*
X0206123Y0099732D01*
X0206156Y0099783D01*
X0206185Y0099835D01*
X0206212Y0099890D01*
X0206235Y0099945D01*
X0206255Y0100002D01*
X0206271Y0100061D01*
X0206284Y0100120D01*
X0206293Y0100179D01*
X0206298Y0100240D01*
X0206300Y0100300D01*
X0206300Y0101800D01*
X0205800Y0102300D01*
X0205800Y0121300D01*
X0206300Y0121800D01*
X0206300Y0123300D01*
X0207300Y0123300D02*
X0207300Y0121800D01*
X0207800Y0121300D01*
X0207800Y0102300D01*
X0207300Y0101800D01*
X0207300Y0100300D01*
X0207302Y0100240D01*
X0207307Y0100179D01*
X0207316Y0100120D01*
X0207329Y0100061D01*
X0207345Y0100002D01*
X0207365Y0099945D01*
X0207388Y0099890D01*
X0207415Y0099835D01*
X0207444Y0099783D01*
X0207477Y0099732D01*
X0207513Y0099683D01*
X0207551Y0099637D01*
X0207593Y0099593D01*
X0207637Y0099551D01*
X0207683Y0099513D01*
X0207732Y0099477D01*
X0207783Y0099444D01*
X0207835Y0099415D01*
X0207890Y0099388D01*
X0207945Y0099365D01*
X0208002Y0099345D01*
X0208061Y0099329D01*
X0208120Y0099316D01*
X0208179Y0099307D01*
X0208240Y0099302D01*
X0208300Y0099300D01*
X0215300Y0099300D01*
X0215360Y0099302D01*
X0215421Y0099307D01*
X0215480Y0099316D01*
X0215539Y0099329D01*
X0215598Y0099345D01*
X0215655Y0099365D01*
X0215710Y0099388D01*
X0215765Y0099415D01*
X0215817Y0099444D01*
X0215868Y0099477D01*
X0215917Y0099513D01*
X0215963Y0099551D01*
X0216007Y0099593D01*
X0216049Y0099637D01*
X0216087Y0099683D01*
X0216123Y0099732D01*
X0216156Y0099783D01*
X0216185Y0099835D01*
X0216212Y0099890D01*
X0216235Y0099945D01*
X0216255Y0100002D01*
X0216271Y0100061D01*
X0216284Y0100120D01*
X0216293Y0100179D01*
X0216298Y0100240D01*
X0216300Y0100300D01*
X0216300Y0101800D01*
X0215800Y0102300D01*
X0215800Y0121300D01*
X0216300Y0121800D01*
X0216300Y0123300D01*
X0217300Y0123300D02*
X0217300Y0121800D01*
X0217800Y0121300D01*
X0217800Y0102300D01*
X0217300Y0101800D01*
X0217300Y0100300D01*
X0217302Y0100240D01*
X0217307Y0100179D01*
X0217316Y0100120D01*
X0217329Y0100061D01*
X0217345Y0100002D01*
X0217365Y0099945D01*
X0217388Y0099890D01*
X0217415Y0099835D01*
X0217444Y0099783D01*
X0217477Y0099732D01*
X0217513Y0099683D01*
X0217551Y0099637D01*
X0217593Y0099593D01*
X0217637Y0099551D01*
X0217683Y0099513D01*
X0217732Y0099477D01*
X0217783Y0099444D01*
X0217835Y0099415D01*
X0217890Y0099388D01*
X0217945Y0099365D01*
X0218002Y0099345D01*
X0218061Y0099329D01*
X0218120Y0099316D01*
X0218179Y0099307D01*
X0218240Y0099302D01*
X0218300Y0099300D01*
X0225300Y0099300D01*
X0225360Y0099302D01*
X0225421Y0099307D01*
X0225480Y0099316D01*
X0225539Y0099329D01*
X0225598Y0099345D01*
X0225655Y0099365D01*
X0225710Y0099388D01*
X0225765Y0099415D01*
X0225817Y0099444D01*
X0225868Y0099477D01*
X0225917Y0099513D01*
X0225963Y0099551D01*
X0226007Y0099593D01*
X0226049Y0099637D01*
X0226087Y0099683D01*
X0226123Y0099732D01*
X0226156Y0099783D01*
X0226185Y0099835D01*
X0226212Y0099890D01*
X0226235Y0099945D01*
X0226255Y0100002D01*
X0226271Y0100061D01*
X0226284Y0100120D01*
X0226293Y0100179D01*
X0226298Y0100240D01*
X0226300Y0100300D01*
X0226300Y0101800D01*
X0225800Y0102300D01*
X0225800Y0121300D01*
X0226300Y0121800D01*
X0226300Y0123300D01*
X0226298Y0123360D01*
X0226293Y0123421D01*
X0226284Y0123480D01*
X0226271Y0123539D01*
X0226255Y0123598D01*
X0226235Y0123655D01*
X0226212Y0123710D01*
X0226185Y0123765D01*
X0226156Y0123817D01*
X0226123Y0123868D01*
X0226087Y0123917D01*
X0226049Y0123963D01*
X0226007Y0124007D01*
X0225963Y0124049D01*
X0225917Y0124087D01*
X0225868Y0124123D01*
X0225817Y0124156D01*
X0225765Y0124185D01*
X0225710Y0124212D01*
X0225655Y0124235D01*
X0225598Y0124255D01*
X0225539Y0124271D01*
X0225480Y0124284D01*
X0225421Y0124293D01*
X0225360Y0124298D01*
X0225300Y0124300D01*
X0218300Y0124300D01*
X0218240Y0124298D01*
X0218179Y0124293D01*
X0218120Y0124284D01*
X0218061Y0124271D01*
X0218002Y0124255D01*
X0217945Y0124235D01*
X0217890Y0124212D01*
X0217835Y0124185D01*
X0217783Y0124156D01*
X0217732Y0124123D01*
X0217683Y0124087D01*
X0217637Y0124049D01*
X0217593Y0124007D01*
X0217551Y0123963D01*
X0217513Y0123917D01*
X0217477Y0123868D01*
X0217444Y0123817D01*
X0217415Y0123765D01*
X0217388Y0123710D01*
X0217365Y0123655D01*
X0217345Y0123598D01*
X0217329Y0123539D01*
X0217316Y0123480D01*
X0217307Y0123421D01*
X0217302Y0123360D01*
X0217300Y0123300D01*
X0216300Y0123300D02*
X0216298Y0123360D01*
X0216293Y0123421D01*
X0216284Y0123480D01*
X0216271Y0123539D01*
X0216255Y0123598D01*
X0216235Y0123655D01*
X0216212Y0123710D01*
X0216185Y0123765D01*
X0216156Y0123817D01*
X0216123Y0123868D01*
X0216087Y0123917D01*
X0216049Y0123963D01*
X0216007Y0124007D01*
X0215963Y0124049D01*
X0215917Y0124087D01*
X0215868Y0124123D01*
X0215817Y0124156D01*
X0215765Y0124185D01*
X0215710Y0124212D01*
X0215655Y0124235D01*
X0215598Y0124255D01*
X0215539Y0124271D01*
X0215480Y0124284D01*
X0215421Y0124293D01*
X0215360Y0124298D01*
X0215300Y0124300D01*
X0208300Y0124300D01*
X0208240Y0124298D01*
X0208179Y0124293D01*
X0208120Y0124284D01*
X0208061Y0124271D01*
X0208002Y0124255D01*
X0207945Y0124235D01*
X0207890Y0124212D01*
X0207835Y0124185D01*
X0207783Y0124156D01*
X0207732Y0124123D01*
X0207683Y0124087D01*
X0207637Y0124049D01*
X0207593Y0124007D01*
X0207551Y0123963D01*
X0207513Y0123917D01*
X0207477Y0123868D01*
X0207444Y0123817D01*
X0207415Y0123765D01*
X0207388Y0123710D01*
X0207365Y0123655D01*
X0207345Y0123598D01*
X0207329Y0123539D01*
X0207316Y0123480D01*
X0207307Y0123421D01*
X0207302Y0123360D01*
X0207300Y0123300D01*
X0206300Y0123300D02*
X0206298Y0123360D01*
X0206293Y0123421D01*
X0206284Y0123480D01*
X0206271Y0123539D01*
X0206255Y0123598D01*
X0206235Y0123655D01*
X0206212Y0123710D01*
X0206185Y0123765D01*
X0206156Y0123817D01*
X0206123Y0123868D01*
X0206087Y0123917D01*
X0206049Y0123963D01*
X0206007Y0124007D01*
X0205963Y0124049D01*
X0205917Y0124087D01*
X0205868Y0124123D01*
X0205817Y0124156D01*
X0205765Y0124185D01*
X0205710Y0124212D01*
X0205655Y0124235D01*
X0205598Y0124255D01*
X0205539Y0124271D01*
X0205480Y0124284D01*
X0205421Y0124293D01*
X0205360Y0124298D01*
X0205300Y0124300D01*
X0198300Y0124300D01*
X0198240Y0124298D01*
X0198179Y0124293D01*
X0198120Y0124284D01*
X0198061Y0124271D01*
X0198002Y0124255D01*
X0197945Y0124235D01*
X0197890Y0124212D01*
X0197835Y0124185D01*
X0197783Y0124156D01*
X0197732Y0124123D01*
X0197683Y0124087D01*
X0197637Y0124049D01*
X0197593Y0124007D01*
X0197551Y0123963D01*
X0197513Y0123917D01*
X0197477Y0123868D01*
X0197444Y0123817D01*
X0197415Y0123765D01*
X0197388Y0123710D01*
X0197365Y0123655D01*
X0197345Y0123598D01*
X0197329Y0123539D01*
X0197316Y0123480D01*
X0197307Y0123421D01*
X0197302Y0123360D01*
X0197300Y0123300D01*
X0227300Y0123300D02*
X0227300Y0121800D01*
X0227800Y0121300D01*
X0227800Y0102300D01*
X0227300Y0101800D01*
X0227300Y0100300D01*
X0227302Y0100240D01*
X0227307Y0100179D01*
X0227316Y0100120D01*
X0227329Y0100061D01*
X0227345Y0100002D01*
X0227365Y0099945D01*
X0227388Y0099890D01*
X0227415Y0099835D01*
X0227444Y0099783D01*
X0227477Y0099732D01*
X0227513Y0099683D01*
X0227551Y0099637D01*
X0227593Y0099593D01*
X0227637Y0099551D01*
X0227683Y0099513D01*
X0227732Y0099477D01*
X0227783Y0099444D01*
X0227835Y0099415D01*
X0227890Y0099388D01*
X0227945Y0099365D01*
X0228002Y0099345D01*
X0228061Y0099329D01*
X0228120Y0099316D01*
X0228179Y0099307D01*
X0228240Y0099302D01*
X0228300Y0099300D01*
X0235300Y0099300D01*
X0235360Y0099302D01*
X0235421Y0099307D01*
X0235480Y0099316D01*
X0235539Y0099329D01*
X0235598Y0099345D01*
X0235655Y0099365D01*
X0235710Y0099388D01*
X0235765Y0099415D01*
X0235817Y0099444D01*
X0235868Y0099477D01*
X0235917Y0099513D01*
X0235963Y0099551D01*
X0236007Y0099593D01*
X0236049Y0099637D01*
X0236087Y0099683D01*
X0236123Y0099732D01*
X0236156Y0099783D01*
X0236185Y0099835D01*
X0236212Y0099890D01*
X0236235Y0099945D01*
X0236255Y0100002D01*
X0236271Y0100061D01*
X0236284Y0100120D01*
X0236293Y0100179D01*
X0236298Y0100240D01*
X0236300Y0100300D01*
X0236300Y0101800D01*
X0235800Y0102300D01*
X0235800Y0121300D01*
X0236300Y0121800D01*
X0236300Y0123300D01*
X0236298Y0123360D01*
X0236293Y0123421D01*
X0236284Y0123480D01*
X0236271Y0123539D01*
X0236255Y0123598D01*
X0236235Y0123655D01*
X0236212Y0123710D01*
X0236185Y0123765D01*
X0236156Y0123817D01*
X0236123Y0123868D01*
X0236087Y0123917D01*
X0236049Y0123963D01*
X0236007Y0124007D01*
X0235963Y0124049D01*
X0235917Y0124087D01*
X0235868Y0124123D01*
X0235817Y0124156D01*
X0235765Y0124185D01*
X0235710Y0124212D01*
X0235655Y0124235D01*
X0235598Y0124255D01*
X0235539Y0124271D01*
X0235480Y0124284D01*
X0235421Y0124293D01*
X0235360Y0124298D01*
X0235300Y0124300D01*
X0228300Y0124300D01*
X0228240Y0124298D01*
X0228179Y0124293D01*
X0228120Y0124284D01*
X0228061Y0124271D01*
X0228002Y0124255D01*
X0227945Y0124235D01*
X0227890Y0124212D01*
X0227835Y0124185D01*
X0227783Y0124156D01*
X0227732Y0124123D01*
X0227683Y0124087D01*
X0227637Y0124049D01*
X0227593Y0124007D01*
X0227551Y0123963D01*
X0227513Y0123917D01*
X0227477Y0123868D01*
X0227444Y0123817D01*
X0227415Y0123765D01*
X0227388Y0123710D01*
X0227365Y0123655D01*
X0227345Y0123598D01*
X0227329Y0123539D01*
X0227316Y0123480D01*
X0227307Y0123421D01*
X0227302Y0123360D01*
X0227300Y0123300D01*
X0241800Y0122800D02*
X0241800Y0130800D01*
X0242800Y0131800D01*
X0241800Y0132800D01*
X0241800Y0140800D01*
X0242800Y0141800D01*
X0250800Y0141800D01*
X0251800Y0140800D01*
X0251800Y0132800D01*
X0250800Y0131800D01*
X0251800Y0130800D01*
X0251800Y0122800D01*
X0250800Y0121800D01*
X0242800Y0121800D01*
X0241800Y0122800D01*
X0234300Y0146111D02*
X0234300Y0184666D01*
X0127800Y0196442D02*
X0127800Y0146111D01*
X0127800Y0146042D02*
X0005800Y0146042D01*
X0005800Y0185442D02*
X0005800Y0196442D01*
X0127800Y0196442D01*
X0161800Y0068300D02*
X0161800Y0045300D01*
X0231800Y0045300D01*
X0231800Y0052800D01*
X0231674Y0052802D01*
X0231549Y0052808D01*
X0231424Y0052818D01*
X0231299Y0052832D01*
X0231174Y0052849D01*
X0231050Y0052871D01*
X0230927Y0052896D01*
X0230805Y0052926D01*
X0230684Y0052959D01*
X0230564Y0052996D01*
X0230445Y0053036D01*
X0230328Y0053081D01*
X0230211Y0053129D01*
X0230097Y0053181D01*
X0229984Y0053236D01*
X0229873Y0053295D01*
X0229764Y0053357D01*
X0229657Y0053423D01*
X0229552Y0053492D01*
X0229449Y0053564D01*
X0229348Y0053639D01*
X0229250Y0053718D01*
X0229155Y0053800D01*
X0229062Y0053884D01*
X0228972Y0053972D01*
X0228884Y0054062D01*
X0228800Y0054155D01*
X0228718Y0054250D01*
X0228639Y0054348D01*
X0228564Y0054449D01*
X0228492Y0054552D01*
X0228423Y0054657D01*
X0228357Y0054764D01*
X0228295Y0054873D01*
X0228236Y0054984D01*
X0228181Y0055097D01*
X0228129Y0055211D01*
X0228081Y0055328D01*
X0228036Y0055445D01*
X0227996Y0055564D01*
X0227959Y0055684D01*
X0227926Y0055805D01*
X0227896Y0055927D01*
X0227871Y0056050D01*
X0227849Y0056174D01*
X0227832Y0056299D01*
X0227818Y0056424D01*
X0227808Y0056549D01*
X0227802Y0056674D01*
X0227800Y0056800D01*
X0227802Y0056926D01*
X0227808Y0057051D01*
X0227818Y0057176D01*
X0227832Y0057301D01*
X0227849Y0057426D01*
X0227871Y0057550D01*
X0227896Y0057673D01*
X0227926Y0057795D01*
X0227959Y0057916D01*
X0227996Y0058036D01*
X0228036Y0058155D01*
X0228081Y0058272D01*
X0228129Y0058389D01*
X0228181Y0058503D01*
X0228236Y0058616D01*
X0228295Y0058727D01*
X0228357Y0058836D01*
X0228423Y0058943D01*
X0228492Y0059048D01*
X0228564Y0059151D01*
X0228639Y0059252D01*
X0228718Y0059350D01*
X0228800Y0059445D01*
X0228884Y0059538D01*
X0228972Y0059628D01*
X0229062Y0059716D01*
X0229155Y0059800D01*
X0229250Y0059882D01*
X0229348Y0059961D01*
X0229449Y0060036D01*
X0229552Y0060108D01*
X0229657Y0060177D01*
X0229764Y0060243D01*
X0229873Y0060305D01*
X0229984Y0060364D01*
X0230097Y0060419D01*
X0230211Y0060471D01*
X0230328Y0060519D01*
X0230445Y0060564D01*
X0230564Y0060604D01*
X0230684Y0060641D01*
X0230805Y0060674D01*
X0230927Y0060704D01*
X0231050Y0060729D01*
X0231174Y0060751D01*
X0231299Y0060768D01*
X0231424Y0060782D01*
X0231549Y0060792D01*
X0231674Y0060798D01*
X0231800Y0060800D01*
X0231800Y0068300D01*
X0161800Y0068300D01*
X0184209Y0056803D02*
X0188479Y0056803D01*
X0190654Y0054668D02*
X0190654Y0058938D01*
X0191722Y0060005D01*
X0193857Y0060005D01*
X0194925Y0058938D01*
X0190654Y0054668D01*
X0191722Y0053600D01*
X0193857Y0053600D01*
X0194925Y0054668D01*
X0194925Y0058938D01*
X0197100Y0056803D02*
X0200303Y0056803D01*
X0201370Y0055735D01*
X0201370Y0054668D01*
X0200303Y0053600D01*
X0198168Y0053600D01*
X0197100Y0054668D01*
X0197100Y0056803D01*
X0199235Y0058938D01*
X0201370Y0060005D01*
X0203545Y0056803D02*
X0206748Y0056803D01*
X0207816Y0055735D01*
X0207816Y0054668D01*
X0206748Y0053600D01*
X0204613Y0053600D01*
X0203545Y0054668D01*
X0203545Y0056803D01*
X0205681Y0058938D01*
X0207816Y0060005D01*
X0187412Y0060005D02*
X0187412Y0053600D01*
X0184209Y0056803D02*
X0187412Y0060005D01*
X0187800Y0021800D02*
X0186800Y0020800D01*
X0185800Y0021800D01*
X0177800Y0021800D01*
X0176800Y0020800D01*
X0175800Y0021800D01*
X0166800Y0021800D01*
X0166800Y0011800D01*
X0175800Y0011800D01*
X0176800Y0012800D01*
X0177800Y0011800D01*
X0185800Y0011800D01*
X0186800Y0012800D01*
X0187800Y0011800D01*
X0195800Y0011800D01*
X0196800Y0012800D01*
X0197800Y0011800D01*
X0205800Y0011800D01*
X0206800Y0012800D01*
X0207800Y0011800D01*
X0215800Y0011800D01*
X0216800Y0012800D01*
X0217800Y0011800D01*
X0226800Y0011800D01*
X0226800Y0021800D01*
X0217800Y0021800D01*
X0216800Y0020800D01*
X0215800Y0021800D01*
X0207800Y0021800D01*
X0206800Y0020800D01*
X0205800Y0021800D01*
X0197800Y0021800D01*
X0196800Y0020800D01*
X0195800Y0021800D01*
X0187800Y0021800D01*
D13*
X0191800Y0097600D03*
X0181800Y0097600D03*
X0171800Y0097600D03*
X0161800Y0097600D03*
X0161800Y0126000D03*
X0171800Y0126000D03*
X0181800Y0126000D03*
X0191800Y0126000D03*
X0201800Y0126000D03*
X0211800Y0126000D03*
X0221800Y0126000D03*
X0231800Y0126000D03*
X0231800Y0097600D03*
X0221800Y0097600D03*
X0211800Y0097600D03*
X0201800Y0097600D03*
X0101800Y0097600D03*
X0091800Y0097600D03*
X0081800Y0097600D03*
X0071800Y0097600D03*
X0061800Y0097600D03*
X0051800Y0097600D03*
X0041800Y0097600D03*
X0031800Y0097600D03*
X0031800Y0126000D03*
X0041800Y0126000D03*
X0051800Y0126000D03*
X0061800Y0126000D03*
X0071800Y0126000D03*
X0081800Y0126000D03*
X0091800Y0126000D03*
X0101800Y0126000D03*
D14*
X0095449Y0152766D02*
X0092446Y0152766D01*
X0093947Y0152766D02*
X0093947Y0157270D01*
X0092446Y0155768D01*
X0093197Y0163266D02*
X0094698Y0163266D01*
X0095449Y0164016D01*
X0095449Y0164767D01*
X0094698Y0165518D01*
X0092446Y0165518D01*
X0092446Y0164016D01*
X0093197Y0163266D01*
X0092446Y0165518D02*
X0093947Y0167019D01*
X0095449Y0167770D01*
X0222446Y0165518D02*
X0224698Y0165518D01*
X0225449Y0164767D01*
X0225449Y0164016D01*
X0224698Y0163266D01*
X0223197Y0163266D01*
X0222446Y0164016D01*
X0222446Y0165518D01*
X0223947Y0167019D01*
X0225449Y0167770D01*
X0223947Y0157270D02*
X0223947Y0152766D01*
X0222446Y0152766D02*
X0225449Y0152766D01*
X0222446Y0155768D02*
X0223947Y0157270D01*
X0220947Y0010554D02*
X0220947Y0006050D01*
X0219446Y0006050D02*
X0222449Y0006050D01*
X0219446Y0009053D02*
X0220947Y0010554D01*
X0172449Y0010554D02*
X0170947Y0009803D01*
X0169446Y0008302D01*
X0171698Y0008302D01*
X0172449Y0007551D01*
X0172449Y0006801D01*
X0171698Y0006050D01*
X0170197Y0006050D01*
X0169446Y0006801D01*
X0169446Y0008302D01*
X0092449Y0006050D02*
X0089446Y0006050D01*
X0090947Y0006050D02*
X0090947Y0010554D01*
X0089446Y0009053D01*
X0042449Y0010554D02*
X0040947Y0009803D01*
X0039446Y0008302D01*
X0041698Y0008302D01*
X0042449Y0007551D01*
X0042449Y0006801D01*
X0041698Y0006050D01*
X0040197Y0006050D01*
X0039446Y0006801D01*
X0039446Y0008302D01*
M02*
